GeoramaSemiCondensed-Bold.ufo
<glyph name="exclam" format="2">
  <advance width="214.12"/>
  <unicode hex="0021"/>
  <outline>
    <contour>
      <point x="43.86000000000001" y="260.5" type="line"/>
      <point x="170.12" y="260.5" type="line"/>
      <point x="181.88" y="740.0" type="line"/>
      <point x="33.78" y="740.0" type="line"/>
    </contour>
    <contour>
      <point x="27.78000000000001" y="79.44" type="curve" smooth="yes"/>
      <point x="27.78000000000001" y="20.459999999999997"/>
      <point x="50.120000000000005" y="-7.14"/>
      <point x="107.06" y="-7.14" type="curve" smooth="yes"/>
      <point x="164.3" y="-7.14"/>
      <point x="186.33999999999997" y="20.459999999999997"/>
      <point x="186.33999999999997" y="79.44" type="curve" smooth="yes"/>
      <point x="186.33999999999997" y="139.12"/>
      <point x="164.3" y="166.72"/>
      <point x="107.06" y="166.72" type="curve" smooth="yes"/>
      <point x="49.82000000000001" y="166.72"/>
      <point x="27.78000000000001" y="139.12"/>
    </contour>
  </outline>
</glyph>
<glyph name="numbersign" format="2">
  <advance width="504.23999999999995"/>
  <unicode hex="0023"/>
  <outline>
    <contour>
      <point x="53.28" y="420.78" type="line"/>
      <point x="109.64" y="420.78" type="line"/>
      <point x="91.22" y="272.97999999999996" type="line"/>
      <point x="34.26" y="272.97999999999996" type="line"/>
      <point x="34.26" y="155.38000000000002" type="line"/>
      <point x="80.58000000000001" y="155.38000000000002" type="line"/>
      <point x="63.72" y="0.0" type="line"/>
      <point x="183.12" y="0.0" type="line"/>
      <point x="199.98" y="155.38000000000002" type="line"/>
      <point x="265.64" y="155.38000000000002" type="line"/>
      <point x="248.78000000000003" y="0.0" type="line"/>
      <point x="368.17999999999995" y="0.0" type="line"/>
      <point x="385.04" y="155.38000000000002" type="line"/>
      <point x="451.1" y="155.38000000000002" type="line"/>
      <point x="451.1" y="272.97999999999996" type="line"/>
      <point x="395.68" y="272.97999999999996" type="line"/>
      <point x="414.1" y="420.78" type="line"/>
      <point x="470.12" y="420.78" type="line"/>
      <point x="470.12" y="539.22" type="line"/>
      <point x="424.78" y="539.22" type="line"/>
      <point x="442.41999999999996" y="700.0" type="line"/>
      <point x="323.02000000000004" y="700.0" type="line"/>
      <point x="305.38" y="539.22" type="line"/>
      <point x="239.72" y="539.22" type="line"/>
      <point x="257.36" y="700.0" type="line"/>
      <point x="137.96" y="700.0" type="line"/>
      <point x="120.32000000000001" y="539.22" type="line"/>
      <point x="53.28" y="539.22" type="line"/>
    </contour>
    <contour>
      <point x="229.04" y="420.78" type="line"/>
      <point x="294.70000000000005" y="420.78" type="line"/>
      <point x="276.28000000000003" y="272.97999999999996" type="line"/>
      <point x="210.61999999999998" y="272.97999999999996" type="line"/>
    </contour>
  </outline>
</glyph>
<glyph name="dollar" format="2">
  <advance width="504.23999999999995"/>
  <unicode hex="0024"/>
  <outline>
    <contour>
      <point x="224.16" y="-10.0" type="curve" smooth="yes"/>
      <point x="358.96" y="-11.6"/>
      <point x="471.16" y="41.8"/>
      <point x="471.16" y="188.76000000000002" type="curve" smooth="yes"/>
      <point x="471.16" y="309.19999999999993"/>
      <point x="397.88" y="363.79999999999995"/>
      <point x="312.55999999999995" y="405.56" type="curve" smooth="yes"/>
      <point x="240.32000000000002" y="440.4"/>
      <point x="193.27999999999997" y="467.08"/>
      <point x="193.27999999999997" y="519.4799999999999" type="curve" smooth="yes"/>
      <point x="193.27999999999997" y="559.24"/>
      <point x="220.83999999999997" y="578.4"/>
      <point x="279.40000000000003" y="578.4" type="curve" smooth="yes"/>
      <point x="327.32" y="578.4"/>
      <point x="379.8" y="569.56"/>
      <point x="420.40000000000003" y="554.72" type="curve"/>
      <point x="448.16" y="678.0" type="line"/>
      <point x="404.44" y="696.3199999999999"/>
      <point x="334.32" y="710.0"/>
      <point x="264.52" y="710.0" type="curve" smooth="yes"/>
      <point x="129.76000000000002" y="709.88"/>
      <point x="45.96000000000001" y="639.5600000000001"/>
      <point x="45.96000000000001" y="514.96" type="curve" smooth="yes"/>
      <point x="45.96000000000001" y="403.12"/>
      <point x="108.52000000000001" y="343.68000000000006"/>
      <point x="182.16000000000003" y="300.76" type="curve" smooth="yes"/>
      <point x="264.88" y="258.00000000000006"/>
      <point x="325.08000000000004" y="232.0"/>
      <point x="325.08000000000004" y="179.84" type="curve" smooth="yes"/>
      <point x="325.08000000000004" y="140.03999999999996"/>
      <point x="293.96" y="117.52"/>
      <point x="233.64" y="117.52" type="curve" smooth="yes"/>
      <point x="183.48000000000002" y="117.52"/>
      <point x="122.36" y="129.44"/>
      <point x="60.8" y="151.59999999999997" type="curve"/>
      <point x="33.28000000000001" y="29.55999999999999" type="line"/>
      <point x="84.68" y="7.08"/>
      <point x="158.96" y="-9.360000000000001"/>
    </contour>
    <contour>
      <point x="193.04" y="-105.0" type="line"/>
      <point x="317.4" y="-105.0" type="line"/>
      <point x="317.4" y="15.12" type="line"/>
      <point x="193.04" y="6.4399999999999995" type="line"/>
    </contour>
    <contour>
      <point x="193.04" y="684.64" type="line"/>
      <point x="317.4" y="694.2799999999999" type="line"/>
      <point x="317.4" y="803.88" type="line"/>
      <point x="193.04" y="803.88" type="line"/>
    </contour>
  </outline>
</glyph>
<glyph name="ampersand" format="2">
  <advance width="590.82"/>
  <unicode hex="0026"/>
  <outline>
    <contour>
      <point x="428.26000000000005" y="-4.2" type="line"/>
      <point x="589.64" y="-0.9000000000000001" type="line"/>
      <point x="271.4" y="426.94000000000005" type="line" smooth="yes"/>
      <point x="241.18" y="467.02"/>
      <point x="229.73999999999998" y="496.34"/>
      <point x="229.73999999999998" y="522.7800000000001" type="curve" smooth="yes"/>
      <point x="229.73999999999998" y="562.82"/>
      <point x="247.9" y="583.08"/>
      <point x="283.69999999999993" y="583.08" type="curve" smooth="yes"/>
      <point x="318.22" y="583.08"/>
      <point x="334.0199999999999" y="561.6400000000001"/>
      <point x="334.0199999999999" y="522.4399999999999" type="curve" smooth="yes"/>
      <point x="334.0199999999999" y="494.16"/>
      <point x="327.98" y="473.74"/>
      <point x="309.04" y="457.1600000000001" type="curve"/>
      <point x="362.69999999999993" y="384.04" type="line"/>
      <point x="429.16" y="417.08000000000004"/>
      <point x="461.36" y="472.46000000000004"/>
      <point x="461.36" y="549.44" type="curve" smooth="yes"/>
      <point x="461.36" y="656.5799999999999"/>
      <point x="397.4" y="710.0"/>
      <point x="280.5199999999999" y="710.0" type="curve" smooth="yes"/>
      <point x="145.32000000000002" y="710.0"/>
      <point x="82.66000000000001" y="640.0799999999999"/>
      <point x="82.66000000000001" y="525.94" type="curve" smooth="yes"/>
      <point x="82.66000000000001" y="468.58000000000004"/>
      <point x="103.95999999999998" y="414.0200000000001"/>
      <point x="144.72" y="359.24" type="curve" smooth="yes"/>
    </contour>
    <contour>
      <point x="236.52" y="-10.0" type="curve" smooth="yes"/>
      <point x="310.54" y="-10.0"/>
      <point x="364.30000000000007" y="15.259999999999998"/>
      <point x="405.3399999999999" y="62.540000000000006" type="curve"/>
      <point x="340.56" y="151.67999999999998" type="line"/>
      <point x="323.52000000000004" y="124.32000000000001"/>
      <point x="299.90000000000003" y="107.35999999999999"/>
      <point x="255.29999999999995" y="107.35999999999999" type="curve" smooth="yes"/>
      <point x="196.68" y="107.35999999999999"/>
      <point x="156.8" y="147.57999999999996"/>
      <point x="156.8" y="204.64000000000001" type="curve" smooth="yes"/>
      <point x="156.8" y="252.01999999999995"/>
      <point x="174.35999999999999" y="279.94000000000005"/>
      <point x="209.63999999999996" y="306.06" type="curve"/>
      <point x="145.22" y="397.97999999999996" type="line"/>
      <point x="56.800000000000004" y="348.96"/>
      <point x="19.860000000000003" y="280.38"/>
      <point x="19.860000000000003" y="189.58000000000004" type="curve" smooth="yes"/>
      <point x="19.860000000000003" y="68.52000000000001"/>
      <point x="102.57999999999998" y="-10.0"/>
    </contour>
    <contour>
      <point x="481.76" y="121.80000000000001" type="line"/>
      <point x="517.4799999999999" y="176.07999999999996"/>
      <point x="538.7199999999999" y="237.71999999999997"/>
      <point x="538.7199999999999" y="306.02" type="curve" smooth="yes"/>
      <point x="538.7199999999999" y="327.62"/>
      <point x="537.42" y="345.24"/>
      <point x="534.9" y="363.7" type="curve"/>
      <point x="419.94000000000005" y="362.79999999999995" type="line"/>
      <point x="421.76" y="349.8"/>
      <point x="422.59999999999997" y="337.06"/>
      <point x="421.97999999999996" y="321.7399999999999" type="curve" smooth="yes"/>
      <point x="421.03999999999996" y="287.14000000000004"/>
      <point x="413.5" y="258.74"/>
      <point x="400.12000000000006" y="235.94" type="curve"/>
    </contour>
  </outline>
</glyph>
<glyph name="quotesingle" format="2">
  <advance width="191.88"/>
  <unicode hex="0027"/>
  <outline>
    <contour>
      <point x="35.2" y="427.0" type="line"/>
      <point x="155.0" y="427.0" type="line"/>
      <point x="162.94" y="700.0" type="line"/>
      <point x="28.940000000000005" y="700.0" type="line"/>
    </contour>
  </outline>
</glyph>
<glyph name="parenleft" format="2">
  <advance width="272.84000000000003"/>
  <unicode hex="0028"/>
  <outline>
    <contour>
      <point x="34.7" y="265.0" type="curve" smooth="yes"/>
      <point x="34.7" y="-7.960000000000001"/>
      <point x="101.16" y="-195.5"/>
      <point x="259.8" y="-220.24" type="curve"/>
      <point x="259.8" y="-101.04" type="line"/>
      <point x="185.60000000000002" y="-66.84"/>
      <point x="153.46" y="26.08"/>
      <point x="153.46" y="265.0" type="curve" smooth="yes"/>
      <point x="153.46" y="503.9200000000001"/>
      <point x="185.60000000000002" y="596.84"/>
      <point x="259.8" y="631.04" type="curve"/>
      <point x="259.8" y="750.2399999999999" type="line"/>
      <point x="101.16" y="725.5"/>
      <point x="34.7" y="537.96"/>
    </contour>
  </outline>
</glyph>
<glyph name="parenright" format="2">
  <advance width="272.84000000000003"/>
  <unicode hex="0029"/>
  <outline>
    <contour>
      <point x="13.040000000000001" y="-101.04" type="curve"/>
      <point x="13.040000000000001" y="-220.24" type="line"/>
      <point x="171.67999999999998" y="-195.5"/>
      <point x="238.14" y="-7.960000000000001"/>
      <point x="238.14" y="265.0" type="curve" smooth="yes"/>
      <point x="238.14" y="537.96"/>
      <point x="171.67999999999998" y="725.5"/>
      <point x="13.040000000000001" y="750.2399999999999" type="curve"/>
      <point x="13.040000000000001" y="631.04" type="line"/>
      <point x="87.24000000000001" y="596.84"/>
      <point x="119.38000000000001" y="503.9200000000001"/>
      <point x="119.38000000000001" y="265.0" type="curve" smooth="yes"/>
      <point x="119.38000000000001" y="26.08"/>
      <point x="87.24000000000001" y="-66.84"/>
    </contour>
  </outline>
</glyph>
<glyph name="asterisk" format="2">
  <advance width="332.04"/>
  <unicode hex="002A"/>
  <outline>
    <contour>
      <point x="100.21999999999998" y="393.34000000000003" type="line"/>
      <point x="166.08" y="474.06" type="line"/>
      <point x="231.7" y="393.28" type="line"/>
      <point x="286.34000000000003" y="431.21999999999997" type="line"/>
      <point x="234.58" y="523.36" type="line"/>
      <point x="325.93999999999994" y="567.2" type="line"/>
      <point x="304.92" y="630.18" type="line"/>
      <point x="208.32" y="604.8599999999999" type="line"/>
      <point x="200.06" y="711.3600000000001" type="line"/>
      <point x="132.10000000000002" y="711.3600000000001" type="line"/>
      <point x="123.84" y="604.8599999999999" type="line"/>
      <point x="27.119999999999997" y="630.18" type="line"/>
      <point x="6.099999999999999" y="567.2" type="line"/>
      <point x="97.58000000000001" y="523.36" type="line"/>
      <point x="45.52" y="431.34000000000003" type="line"/>
    </contour>
  </outline>
</glyph>
<glyph name="plus" format="2">
  <advance width="467.08"/>
  <unicode hex="002B"/>
  <outline>
    <contour>
      <point x="168.52" y="125.05999999999999" type="line"/>
      <point x="298.42" y="125.05999999999999" type="line"/>
      <point x="298.42" y="254.49999999999997" type="line"/>
      <point x="422.02" y="254.49999999999997" type="line"/>
      <point x="422.02" y="378.79999999999995" type="line"/>
      <point x="298.42" y="378.79999999999995" type="line"/>
      <point x="298.42" y="508.1" type="line"/>
      <point x="168.52" y="508.1" type="line"/>
      <point x="168.52" y="378.79999999999995" type="line"/>
      <point x="45.06" y="378.79999999999995" type="line"/>
      <point x="45.06" y="254.49999999999997" type="line"/>
      <point x="168.52" y="254.49999999999997" type="line"/>
    </contour>
  </outline>
</glyph>
<glyph name="comma" format="2">
  <advance width="201.45999999999998"/>
  <unicode hex="002C"/>
  <outline>
    <contour>
      <point x="30.980000000000008" y="87.54" type="line"/>
      <point x="36.9" y="55.49999999999999"/>
      <point x="38.36000000000001" y="26.399999999999995"/>
      <point x="38.36000000000001" y="10.579999999999997" type="curve" smooth="yes"/>
      <point x="38.36000000000001" y="-44.6"/>
      <point x="20.060000000000006" y="-107.8"/>
      <point x="-16.22" y="-159.84" type="curve"/>
      <point x="92.73999999999998" y="-188.07999999999998" type="line"/>
      <point x="150.5" y="-122.82000000000001"/>
      <point x="175.67999999999998" y="-57.6"/>
      <point x="175.67999999999998" y="12.519999999999996" type="curve" smooth="yes"/>
      <point x="175.67999999999998" y="43.82"/>
      <point x="170.68" y="69.03999999999999"/>
      <point x="164.42" y="90.46" type="curve"/>
    </contour>
  </outline>
</glyph>
<glyph name="hyphen" format="2">
  <advance width="314.67999999999995"/>
  <unicode hex="002D"/>
  <outline>
    <contour>
      <point x="32.62" y="240.3" type="line"/>
      <point x="282.06" y="240.3" type="line"/>
      <point x="282.06" y="372.86" type="line"/>
      <point x="32.62" y="372.86" type="line"/>
    </contour>
  </outline>
</glyph>
<glyph name="period" format="2">
  <advance width="203.7"/>
  <unicode hex="002E"/>
  <outline>
    <contour>
      <point x="22.600000000000005" y="81.11999999999999" type="curve" smooth="yes"/>
      <point x="22.600000000000005" y="22.14"/>
      <point x="44.940000000000005" y="-5.459999999999999"/>
      <point x="101.88" y="-5.459999999999999" type="curve" smooth="yes"/>
      <point x="159.11999999999998" y="-5.459999999999999"/>
      <point x="181.16000000000003" y="22.14"/>
      <point x="181.16000000000003" y="81.11999999999999" type="curve" smooth="yes"/>
      <point x="181.16000000000003" y="140.79999999999998"/>
      <point x="159.11999999999998" y="168.39999999999998"/>
      <point x="101.88" y="168.39999999999998" type="curve" smooth="yes"/>
      <point x="44.63999999999999" y="168.39999999999998"/>
      <point x="22.600000000000005" y="140.79999999999998"/>
    </contour>
  </outline>
</glyph>
<glyph name="slash" format="2">
  <advance width="380.82"/>
  <unicode hex="002F"/>
  <outline>
    <contour>
      <point x="-3.119999999999999" y="-210.0" type="line"/>
      <point x="117.69999999999999" y="-210.0" type="line"/>
      <point x="383.94" y="740.0" type="line"/>
      <point x="262.56" y="740.0" type="line"/>
    </contour>
  </outline>
</glyph>
<glyph name="zero" format="2">
  <advance width="504.23999999999995"/>
  <unicode hex="0030"/>
  <outline>
    <contour>
      <point x="20.92" y="350.0" type="curve" smooth="yes"/>
      <point x="20.92" y="77.64"/>
      <point x="101.04" y="-10.0"/>
      <point x="252.11999999999998" y="-10.0" type="curve" smooth="yes"/>
      <point x="401.64" y="-10.0"/>
      <point x="483.32000000000005" y="79.88"/>
      <point x="483.32000000000005" y="350.0" type="curve" smooth="yes"/>
      <point x="483.32000000000005" y="620.92"/>
      <point x="410.04" y="710.0"/>
      <point x="252.11999999999998" y="710.0" type="curve" smooth="yes"/>
      <point x="99.36000000000001" y="710.0"/>
      <point x="20.92" y="625.4"/>
    </contour>
    <contour>
      <point x="170.19999999999996" y="342.71999999999997" type="curve" smooth="yes"/>
      <point x="170.19999999999996" y="556.3599999999999"/>
      <point x="202.16000000000003" y="584.56"/>
      <point x="252.11999999999998" y="584.56" type="curve" smooth="yes"/>
      <point x="302.2" y="584.56"/>
      <point x="334.16" y="556.92"/>
      <point x="334.16" y="342.71999999999997" type="curve" smooth="yes"/>
      <point x="334.16" y="147.24"/>
      <point x="303.88000000000005" y="115.43999999999998"/>
      <point x="252.11999999999998" y="115.43999999999998" type="curve" smooth="yes"/>
      <point x="200.48" y="115.43999999999998"/>
      <point x="170.19999999999996" y="146.68"/>
    </contour>
  </outline>
</glyph>
<glyph name="one" format="2">
  <advance width="504.23999999999995"/>
  <unicode hex="0031"/>
  <outline>
    <contour>
      <point x="66.97999999999999" y="0.0" type="line"/>
      <point x="468.92" y="0.0" type="line"/>
      <point x="468.92" y="125.0" type="line"/>
      <point x="351.52000000000004" y="125.0" type="line"/>
      <point x="351.52000000000004" y="700.6" type="line"/>
      <point x="276.8" y="700.6" type="line"/>
      <point x="50.1" y="609.5799999999999" type="line"/>
      <point x="78.52" y="472.84000000000003" type="line"/>
      <point x="203.84" y="527.32" type="line"/>
      <point x="203.84" y="125.0" type="line"/>
      <point x="66.97999999999999" y="125.0" type="line"/>
    </contour>
  </outline>
</glyph>
<glyph name="two" format="2">
  <advance width="504.68"/>
  <unicode hex="0032"/>
  <outline>
    <contour>
      <point x="47.440000000000005" y="108.83999999999999" type="curve"/>
      <point x="49.17" y="0.0" type="line"/>
      <point x="464.07000000000005" y="0.0" type="line"/>
      <point x="464.07000000000005" y="125.3" type="line"/>
      <point x="238.62999999999997" y="125.3" type="line"/>
      <point x="395.90999999999997" y="310.85"/>
      <point x="431.49" y="389.01"/>
      <point x="431.49" y="502.76" type="curve" smooth="yes"/>
      <point x="431.49" y="633.9699999999999"/>
      <point x="359.75" y="710.0"/>
      <point x="232.98999999999998" y="710.0" type="curve" smooth="yes"/>
      <point x="160.87000000000003" y="710.0"/>
      <point x="91.41000000000001" y="688.37"/>
      <point x="34.78" y="647.11" type="curve"/>
      <point x="84.03999999999999" y="511.96999999999997" type="line"/>
      <point x="123.71" y="537.6999999999999"/>
      <point x="159.84" y="549.1499999999999"/>
      <point x="196.76000000000002" y="549.1499999999999" type="curve" smooth="yes"/>
      <point x="248.74999999999997" y="549.1499999999999"/>
      <point x="279.03000000000003" y="519.1600000000001"/>
      <point x="279.03000000000003" y="457.76" type="curve" smooth="yes"/>
      <point x="279.03000000000003" y="382.99"/>
      <point x="215.69" y="285.03"/>
    </contour>
  </outline>
</glyph>
<glyph name="three" format="2">
  <advance width="504.6"/>
  <unicode hex="0033"/>
  <outline>
    <contour>
      <point x="22.4" y="40.35" type="line"/>
      <point x="85.15" y="4.199999999999999"/>
      <point x="140.24999999999997" y="-10.0"/>
      <point x="220.65" y="-10.0" type="curve" smooth="yes"/>
      <point x="371.7" y="-10.0"/>
      <point x="458.09999999999997" y="69.39999999999999"/>
      <point x="458.09999999999997" y="204.7" type="curve" smooth="yes"/>
      <point x="458.09999999999997" y="283.5"/>
      <point x="421.04999999999995" y="343.45"/>
      <point x="352.40000000000003" y="371.75" type="curve"/>
      <point x="409.5" y="404.3"/>
      <point x="442.5" y="463.45000000000005"/>
      <point x="442.5" y="531.6500000000001" type="curve" smooth="yes"/>
      <point x="442.5" y="641.9"/>
      <point x="364.1" y="710.0"/>
      <point x="227.95" y="710.0" type="curve" smooth="yes"/>
      <point x="149.75" y="710.0"/>
      <point x="79.05" y="691.6999999999999"/>
      <point x="30.700000000000003" y="658.1" type="curve"/>
      <point x="71.65" y="539.6" type="line"/>
      <point x="108.7" y="557.5999999999999"/>
      <point x="154.20000000000002" y="566.6999999999999"/>
      <point x="195.89999999999998" y="566.6999999999999" type="curve" smooth="yes"/>
      <point x="262.3" y="566.6999999999999"/>
      <point x="296.9" y="537.6"/>
      <point x="296.9" y="489.65" type="curve" smooth="yes"/>
      <point x="296.9" y="443.55"/>
      <point x="268.0" y="413.65"/>
      <point x="209.10000000000002" y="413.65" type="curve" smooth="yes"/>
      <point x="130.85" y="413.65" type="line"/>
      <point x="130.85" y="297.79999999999995" type="line"/>
      <point x="205.8" y="297.79999999999995" type="line" smooth="yes"/>
      <point x="274.79999999999995" y="297.79999999999995"/>
      <point x="310.25" y="270.1"/>
      <point x="310.25" y="215.9" type="curve" smooth="yes"/>
      <point x="310.25" y="158.15"/>
      <point x="274.4" y="125.8"/>
      <point x="203.5" y="125.8" type="curve" smooth="yes"/>
      <point x="152.8" y="125.8"/>
      <point x="109.05" y="136.05"/>
      <point x="68.25" y="157.25" type="curve"/>
    </contour>
  </outline>
</glyph>
<glyph name="four" format="2">
  <advance width="504.6"/>
  <unicode hex="0034"/>
  <outline>
    <contour>
      <point x="19.700000000000003" y="113.29999999999998" type="line"/>
      <point x="260.0" y="113.29999999999998" type="line"/>
      <point x="260.0" y="0.0" type="line"/>
      <point x="410.6" y="0.0" type="line"/>
      <point x="410.6" y="113.29999999999998" type="line"/>
      <point x="485.09999999999997" y="113.29999999999998" type="line"/>
      <point x="485.09999999999997" y="235.1" type="line"/>
      <point x="410.6" y="235.1" type="line"/>
      <point x="410.6" y="699.6999999999999" type="line"/>
      <point x="260.2" y="701.5" type="line"/>
      <point x="18.2" y="235.00000000000003" type="line"/>
    </contour>
    <contour>
      <point x="127.3" y="235.1" type="line"/>
      <point x="265.6" y="511.29999999999995" type="line"/>
      <point x="265.6" y="235.1" type="line"/>
    </contour>
  </outline>
</glyph>
<glyph name="five" format="2">
  <advance width="504.59999999999997"/>
  <unicode hex="0035"/>
  <outline>
    <contour>
      <point x="31.76" y="34.99" type="line"/>
      <point x="88.36" y="4.639999999999999"/>
      <point x="143.9" y="-10.000000000000002"/>
      <point x="218.67999999999998" y="-10.000000000000002" type="curve" smooth="yes"/>
      <point x="367.09" y="-10.000000000000002"/>
      <point x="470.07" y="70.7"/>
      <point x="470.07" y="225.7" type="curve" smooth="yes"/>
      <point x="470.07" y="358.34"/>
      <point x="398.56" y="418.15000000000003"/>
      <point x="273.33000000000004" y="421.44" type="curve" smooth="yes"/>
      <point x="207.99999999999997" y="422.38" type="line"/>
      <point x="220.04999999999998" y="569.01" type="line"/>
      <point x="443.73" y="569.01" type="line"/>
      <point x="443.73" y="700.0" type="line"/>
      <point x="106.33" y="700.0" type="line"/>
      <point x="67.7" y="318.21999999999997" type="line"/>
      <point x="76.84" y="306.6" type="line"/>
      <point x="199.26000000000002" y="306.6" type="line" smooth="yes"/>
      <point x="290.26" y="306.6"/>
      <point x="321.30999999999995" y="277.97999999999996"/>
      <point x="321.30999999999995" y="219.7" type="curve" smooth="yes"/>
      <point x="321.30999999999995" y="162.83999999999997"/>
      <point x="286.81" y="127.17999999999999"/>
      <point x="203.26999999999998" y="127.17999999999999" type="curve" smooth="yes"/>
      <point x="143.89" y="127.17999999999999"/>
      <point x="100.14999999999998" y="140.08999999999997"/>
      <point x="64.33" y="156.60999999999999" type="curve"/>
    </contour>
  </outline>
</glyph>
<glyph name="six" format="2">
  <advance width="504.59999999999997"/>
  <unicode hex="0036"/>
  <outline>
    <contour>
      <point x="257.05000000000007" y="-10.0" type="curve" smooth="yes"/>
      <point x="405.90000000000003" y="-10.0"/>
      <point x="481.8500000000001" y="73.0"/>
      <point x="481.8500000000001" y="233.5" type="curve" smooth="yes"/>
      <point x="481.8500000000001" y="367.79999999999995"/>
      <point x="419.95" y="445.75"/>
      <point x="308.24999999999994" y="445.75" type="curve" smooth="yes"/>
      <point x="247.15" y="445.75"/>
      <point x="195.95" y="424.2"/>
      <point x="160.85" y="386.04999999999995" type="curve"/>
      <point x="160.5" y="274.85" type="line"/>
      <point x="188.3" y="309.35"/>
      <point x="221.25" y="331.40000000000003"/>
      <point x="257.75" y="331.40000000000003" type="curve" smooth="yes"/>
      <point x="307.09999999999997" y="331.40000000000003"/>
      <point x="337.05" y="295.15"/>
      <point x="337.05" y="227.85" type="curve" smooth="yes"/>
      <point x="337.05" y="150.0"/>
      <point x="308.6" y="113.45000000000002"/>
      <point x="262.8" y="113.45000000000002" type="curve" smooth="yes"/>
      <point x="206.6" y="113.45000000000002"/>
      <point x="175.95" y="154.09999999999997"/>
      <point x="175.95" y="350.0" type="curve" smooth="yes"/>
      <point x="175.95" y="501.8"/>
      <point x="201.04999999999995" y="577.45"/>
      <point x="316.65000000000003" y="577.45" type="curve" smooth="yes"/>
      <point x="357.25" y="577.45"/>
      <point x="393.55" y="567.25"/>
      <point x="431.25" y="551.2" type="curve"/>
      <point x="471.09999999999997" y="671.95" type="line"/>
      <point x="429.99999999999994" y="694.7499999999999"/>
      <point x="361.4" y="710.0"/>
      <point x="293.65000000000003" y="710.0" type="curve" smooth="yes"/>
      <point x="116.35" y="710.0"/>
      <point x="24.549999999999997" y="583.7999999999998"/>
      <point x="24.549999999999997" y="327.30000000000007" type="curve" smooth="yes"/>
      <point x="24.549999999999997" y="92.70000000000002"/>
      <point x="102.6" y="-10.0"/>
    </contour>
  </outline>
</glyph>
<glyph name="seven" format="2">
  <advance width="504.59999999999997"/>
  <unicode hex="0037"/>
  <outline>
    <contour>
      <point x="129.57" y="0.0" type="curve"/>
      <point x="284.28000000000003" y="0.0" type="line"/>
      <point x="285.67" y="122.8"/>
      <point x="308.65999999999997" y="213.4"/>
      <point x="363.68" y="346.06" type="curve" smooth="yes"/>
      <point x="468.66999999999996" y="598.7699999999999" type="line"/>
      <point x="468.66999999999996" y="700.0" type="line"/>
      <point x="38.550000000000004" y="700.0" type="line"/>
      <point x="38.550000000000004" y="567.5500000000001" type="line"/>
      <point x="305.19000000000005" y="567.5500000000001" type="line"/>
      <point x="214.52" y="373.62" type="line" smooth="yes"/>
      <point x="152.64000000000001" y="241.11"/>
      <point x="129.57" y="134.86"/>
    </contour>
  </outline>
</glyph>
<glyph name="eight" format="2">
  <advance width="504.68"/>
  <unicode hex="0038"/>
  <outline>
    <contour>
      <point x="266.33" y="400.84999999999997" type="curve"/>
      <point x="351.79999999999995" y="352.69" type="line"/>
      <point x="431.69" y="404.35"/>
      <point x="465.37" y="465.94"/>
      <point x="465.37" y="535.06" type="curve" smooth="yes"/>
      <point x="465.37" y="645.2800000000001"/>
      <point x="388.99" y="710.0"/>
      <point x="256.82" y="710.0" type="curve" smooth="yes"/>
      <point x="117.97999999999999" y="710.0"/>
      <point x="40.01" y="642.1800000000001"/>
      <point x="40.01" y="519.02" type="curve" smooth="yes"/>
      <point x="40.01" y="285.18"/>
      <point x="337.13" y="326.20000000000005"/>
      <point x="337.13" y="180.07" type="curve" smooth="yes"/>
      <point x="337.13" y="133.50000000000003"/>
      <point x="310.13" y="108.61999999999999"/>
      <point x="257.71" y="108.61999999999999" type="curve" smooth="yes"/>
      <point x="197.07999999999998" y="108.61999999999999"/>
      <point x="163.79" y="138.51"/>
      <point x="163.79" y="194.4" type="curve" smooth="yes"/>
      <point x="163.79" y="248.52999999999997"/>
      <point x="183.76999999999998" y="280.28"/>
      <point x="229.25" y="313.39" type="curve"/>
      <point x="143.01" y="372.04" type="line"/>
      <point x="58.46" y="328.59000000000003"/>
      <point x="19.310000000000002" y="263.57"/>
      <point x="19.310000000000002" y="184.01000000000002" type="curve" smooth="yes"/>
      <point x="19.310000000000002" y="59.9"/>
      <point x="101.4" y="-10.0"/>
      <point x="250.35999999999999" y="-10.0" type="curve" smooth="yes"/>
      <point x="406.68" y="-10.0"/>
      <point x="485.75" y="58.11"/>
      <point x="485.75" y="188.53000000000003" type="curve" smooth="yes"/>
      <point x="485.75" y="430.85999999999996"/>
      <point x="179.60999999999999" y="384.87"/>
      <point x="179.60999999999999" y="521.88" type="curve" smooth="yes"/>
      <point x="179.60999999999999" y="562.71"/>
      <point x="203.79999999999998" y="588.61"/>
      <point x="252.13000000000002" y="588.61" type="curve" smooth="yes"/>
      <point x="304.65" y="588.61"/>
      <point x="331.15000000000003" y="562.55"/>
      <point x="331.15000000000003" y="512.0600000000001" type="curve" smooth="yes"/>
      <point x="331.15000000000003" y="463.78"/>
      <point x="315.49" y="434.00000000000006"/>
    </contour>
  </outline>
</glyph>
<glyph name="nine" format="2">
  <advance width="504.59999999999997"/>
  <unicode hex="0039"/>
  <outline>
    <contour>
      <point x="213.05" y="-10.0" type="curve" smooth="yes"/>
      <point x="390.35" y="-10.0"/>
      <point x="481.0500000000001" y="115.3"/>
      <point x="481.0500000000001" y="370.59999999999997" type="curve" smooth="yes"/>
      <point x="481.0500000000001" y="606.1"/>
      <point x="407.5" y="710.0"/>
      <point x="250.74999999999997" y="710.0" type="curve" smooth="yes"/>
      <point x="101.60000000000001" y="710.0"/>
      <point x="23.75" y="626.6"/>
      <point x="23.75" y="466.09999999999997" type="curve" smooth="yes"/>
      <point x="23.75" y="331.0"/>
      <point x="86.94999999999999" y="254.24999999999997"/>
      <point x="199.45000000000002" y="254.24999999999997" type="curve" smooth="yes"/>
      <point x="257.35" y="254.24999999999997"/>
      <point x="310.25" y="275.5"/>
      <point x="344.75" y="313.05" type="curve"/>
      <point x="347.8" y="427.24999999999994" type="line"/>
      <point x="320.15000000000003" y="389.8"/>
      <point x="284.84999999999997" y="368.79999999999995"/>
      <point x="246.25" y="368.79999999999995" type="curve" smooth="yes"/>
      <point x="199.50000000000003" y="368.79999999999995"/>
      <point x="168.45" y="404.55"/>
      <point x="168.45" y="472.45000000000005" type="curve" smooth="yes"/>
      <point x="168.45" y="549.1"/>
      <point x="197.7" y="586.55"/>
      <point x="245.29999999999998" y="586.55" type="curve" smooth="yes"/>
      <point x="305.70000000000005" y="586.55"/>
      <point x="329.8499999999999" y="540.6999999999999"/>
      <point x="329.8499999999999" y="350.2" type="curve" smooth="yes"/>
      <point x="329.8499999999999" y="198.4"/>
      <point x="304.95" y="121.95"/>
      <point x="189.65" y="121.95" type="curve" smooth="yes"/>
      <point x="148.75" y="121.95"/>
      <point x="111.85" y="132.15"/>
      <point x="74.35000000000001" y="148.2" type="curve"/>
      <point x="34.50000000000001" y="28.649999999999995" type="line"/>
      <point x="75.60000000000001" y="5.85"/>
      <point x="145.3" y="-10.0"/>
    </contour>
  </outline>
</glyph>
<glyph name="less" format="2">
  <advance width="467.08"/>
  <unicode hex="003C"/>
  <outline>
    <contour>
      <point x="433.53999999999996" y="88.92" type="line"/>
      <point x="433.53999999999996" y="205.33999999999997" type="line"/>
      <point x="165.94" y="306.18" type="line"/>
      <point x="433.53999999999996" y="407.79999999999995" type="line"/>
      <point x="433.53999999999996" y="523.4000000000001" type="line"/>
      <point x="33.540000000000006" y="367.56" type="line"/>
      <point x="33.540000000000006" y="244.38" type="line"/>
    </contour>
  </outline>
</glyph>
<glyph name="equal" format="2">
  <advance width="455.88"/>
  <unicode hex="003D"/>
  <outline>
    <contour>
      <point x="410.81999999999994" y="257.76" type="line"/>
      <point x="45.06" y="257.76" type="line"/>
      <point x="45.06" y="133.46" type="line"/>
      <point x="410.81999999999994" y="133.46" type="line"/>
    </contour>
    <contour>
      <point x="410.81999999999994" y="480.02" type="line"/>
      <point x="45.06" y="480.02" type="line"/>
      <point x="45.06" y="355.72" type="line"/>
      <point x="410.81999999999994" y="355.72" type="line"/>
    </contour>
  </outline>
</glyph>
<glyph name="greater" format="2">
  <advance width="467.08"/>
  <unicode hex="003E"/>
  <outline>
    <contour>
      <point x="433.53999999999996" y="244.14000000000001" type="line"/>
      <point x="433.53999999999996" y="367.32" type="line"/>
      <point x="33.540000000000006" y="523.4000000000001" type="line"/>
      <point x="33.540000000000006" y="407.26" type="line"/>
      <point x="301.14" y="305.94" type="line"/>
      <point x="33.540000000000006" y="204.86" type="line"/>
      <point x="33.540000000000006" y="88.92" type="line"/>
    </contour>
  </outline>
</glyph>
<glyph name="question" format="2">
  <advance width="403.92"/>
  <unicode hex="003F"/>
  <outline>
    <contour>
      <point x="123.92000000000002" y="260.32" type="line"/>
      <point x="250.73999999999998" y="260.32" type="line"/>
      <point x="251.01999999999998" y="330.04" type="line"/>
      <point x="350.14" y="379.15999999999997"/>
      <point x="390.47999999999996" y="450.0"/>
      <point x="390.47999999999996" y="551.1" type="curve" smooth="yes"/>
      <point x="390.47999999999996" y="684.7"/>
      <point x="305.73999999999995" y="749.4399999999999"/>
      <point x="185.20000000000002" y="749.4399999999999" type="curve" smooth="yes"/>
      <point x="121.82000000000001" y="749.4399999999999"/>
      <point x="54.0" y="726.5799999999999"/>
      <point x="9.079999999999998" y="692.4399999999999" type="curve"/>
      <point x="57.22" y="567.98" type="line"/>
      <point x="97.28" y="595.66"/>
      <point x="130.2" y="604.5199999999999"/>
      <point x="161.82" y="604.5199999999999" type="curve" smooth="yes"/>
      <point x="208.12" y="604.5199999999999"/>
      <point x="238.64" y="575.7800000000001"/>
      <point x="238.64" y="528.48" type="curve" smooth="yes"/>
      <point x="238.64" y="482.18"/>
      <point x="220.12" y="440.87999999999994"/>
      <point x="120.7" y="395.32" type="curve"/>
    </contour>
    <contour>
      <point x="108.3" y="79.44" type="curve" smooth="yes"/>
      <point x="108.3" y="20.459999999999997"/>
      <point x="130.56000000000003" y="-7.14"/>
      <point x="187.82" y="-7.14" type="curve" smooth="yes"/>
      <point x="244.26" y="-7.14"/>
      <point x="267.1" y="20.459999999999997"/>
      <point x="267.1" y="79.44" type="curve" smooth="yes"/>
      <point x="267.1" y="139.12"/>
      <point x="244.26" y="166.72"/>
      <point x="187.82" y="166.72" type="curve" smooth="yes"/>
      <point x="130.02" y="166.72"/>
      <point x="108.3" y="139.12"/>
    </contour>
  </outline>
</glyph>
<glyph name="at" format="2">
  <advance width="772.1999999999999"/>
  <unicode hex="0040"/>
  <outline>
    <contour>
      <point x="384.00000000000006" y="-124.32" type="curve" smooth="yes"/>
      <point x="445.5199999999999" y="-124.32"/>
      <point x="522.4" y="-105.96"/>
      <point x="566.4" y="-81.51999999999998" type="curve"/>
      <point x="546.0399999999998" y="-21.440000000000005" type="line"/>
      <point x="499.68" y="-41.360000000000014"/>
      <point x="443.47999999999996" y="-54.720000000000006"/>
      <point x="387.16" y="-54.720000000000006" type="curve" smooth="yes"/>
      <point x="224.92000000000002" y="-54.720000000000006"/>
      <point x="106.24000000000001" y="24.36"/>
      <point x="106.24000000000001" y="263.76" type="curve" smooth="yes"/>
      <point x="106.24000000000001" y="484.88"/>
      <point x="204.52" y="644.12"/>
      <point x="399.67999999999995" y="644.12" type="curve" smooth="yes"/>
      <point x="594.8800000000001" y="644.12"/>
      <point x="672.36" y="535.1200000000001"/>
      <point x="672.36" y="336.24" type="curve" smooth="yes"/>
      <point x="672.36" y="217.56"/>
      <point x="637.7199999999999" y="135.59999999999997"/>
      <point x="597.52" y="135.99999999999997" type="curve" smooth="yes"/>
      <point x="567.68" y="135.99999999999997"/>
      <point x="546.2399999999999" y="158.07999999999998"/>
      <point x="552.4399999999998" y="245.12" type="curve" smooth="yes"/>
      <point x="573.36" y="515.48" type="line"/>
      <point x="519.2800000000001" y="537.6800000000001"/>
      <point x="467.23999999999995" y="549.32"/>
      <point x="407.04" y="549.32" type="curve" smooth="yes"/>
      <point x="262.23999999999995" y="549.32"/>
      <point x="194.47999999999996" y="421.79999999999995"/>
      <point x="194.47999999999996" y="257.8" type="curve" smooth="yes"/>
      <point x="194.47999999999996" y="108.44"/>
      <point x="248.15999999999994" y="52.440000000000005"/>
      <point x="320.08" y="52.440000000000005" type="curve" smooth="yes"/>
      <point x="379.56" y="52.440000000000005"/>
      <point x="418.08" y="89.64"/>
      <point x="449.96" y="157.00000000000003" type="curve"/>
      <point x="463.64" y="85.6"/>
      <point x="498.68000000000006" y="45.160000000000004"/>
      <point x="571.92" y="45.160000000000004" type="curve" smooth="yes"/>
      <point x="686.8000000000001" y="44.36000000000001"/>
      <point x="747.3199999999999" y="175.56"/>
      <point x="747.3199999999999" y="346.40000000000003" type="curve" smooth="yes"/>
      <point x="747.3199999999999" y="588.8000000000001"/>
      <point x="615.9599999999999" y="710.0"/>
      <point x="411.72" y="710.0" type="curve" smooth="yes"/>
      <point x="156.39999999999998" y="710.0"/>
      <point x="26.119999999999997" y="527.6"/>
      <point x="26.119999999999997" y="271.2" type="curve" smooth="yes"/>
      <point x="26.119999999999997" y="-8.440000000000001"/>
      <point x="169.04" y="-124.32"/>
    </contour>
    <contour>
      <point x="371.5999999999999" y="175.92" type="curve" smooth="yes"/>
      <point x="350.59999999999997" y="175.92"/>
      <point x="332.9200000000001" y="197.79999999999998"/>
      <point x="332.9200000000001" y="256.47999999999996" type="curve" smooth="yes"/>
      <point x="332.9200000000001" y="352.16"/>
      <point x="360.36" y="454.76"/>
      <point x="404.88" y="454.76" type="curve" smooth="yes"/>
      <point x="417.88000000000005" y="454.76"/>
      <point x="430.96" y="451.00000000000006"/>
      <point x="444.12" y="445.56" type="curve"/>
      <point x="429.43999999999994" y="286.88" type="line" smooth="yes"/>
      <point x="415.68000000000006" y="194.44000000000003"/>
      <point x="398.59999999999997" y="175.92"/>
    </contour>
  </outline>
</glyph>
<glyph name="A" format="2">
  <advance width="529.32"/>
  <unicode hex="0041"/>
  <anchor x="522.16" y="0.0" name="ogonek"/>
  <anchor x="261.96000000000004" y="0.0" name="bottom"/>
  <anchor x="264.40000000000003" y="700.0" name="top"/>
  <outline>
    <contour>
      <point x="7.28" y="0.0" type="line"/>
      <point x="160.2" y="0.0" type="line"/>
      <point x="186.55999999999997" y="130.0" type="line"/>
      <point x="337.00000000000006" y="130.0" type="line"/>
      <point x="364.35999999999996" y="0.0" type="line"/>
      <point x="522.16" y="0.0" type="line"/>
      <point x="360.44" y="703.0" type="line"/>
      <point x="166.56" y="703.0" type="line"/>
    </contour>
    <contour>
      <point x="208.51999999999995" y="269.96" type="line"/>
      <point x="262.24" y="586.3199999999999" type="line"/>
      <point x="315.03999999999996" y="269.96" type="line"/>
    </contour>
  </outline>
</glyph>
<glyph name="B" format="2">
  <advance width="519.72"/>
  <unicode hex="0042"/>
  <anchor x="256.47999999999996" y="700.0" name="top"/>
  <anchor x="256.47999999999996" y="0.0" name="bottom"/>
  <outline>
    <contour>
      <point x="41.690000000000005" y="2.4499999999999993" type="line"/>
      <point x="161.52" y="-8.15"/>
      <point x="174.27999999999997" y="-10.0"/>
      <point x="256.44" y="-10.0" type="curve" smooth="yes"/>
      <point x="434.76" y="-10.0"/>
      <point x="503.19000000000005" y="52.95"/>
      <point x="503.19000000000005" y="203.68" type="curve" smooth="yes"/>
      <point x="503.19000000000005" y="288.16999999999996"/>
      <point x="462.2200000000001" y="353.57000000000005"/>
      <point x="392.66" y="381.31" type="curve"/>
      <point x="392.66" y="383.16" type="line"/>
      <point x="446.4000000000001" y="412.18"/>
      <point x="474.5299999999999" y="466.94999999999993"/>
      <point x="474.5299999999999" y="537.72" type="curve" smooth="yes"/>
      <point x="474.5299999999999" y="656.76"/>
      <point x="409.66999999999996" y="710.0"/>
      <point x="255.24" y="710.0" type="curve" smooth="yes"/>
      <point x="199.50000000000003" y="710.0"/>
      <point x="130.85" y="705.7499999999999"/>
      <point x="41.690000000000005" y="696.95" type="curve"/>
    </contour>
    <contour>
      <point x="191.41000000000003" y="409.28" type="line"/>
      <point x="191.41000000000003" y="575.43" type="line"/>
      <point x="220.82000000000002" y="579.03"/>
      <point x="229.38000000000002" y="580.03"/>
      <point x="254.11000000000004" y="580.03" type="curve" smooth="yes"/>
      <point x="314.51" y="580.03"/>
      <point x="337.56" y="552.8900000000001"/>
      <point x="337.56" y="493.33000000000004" type="curve" smooth="yes"/>
      <point x="337.56" y="440.90999999999997"/>
      <point x="314.0" y="409.28"/>
      <point x="273.43" y="409.28" type="curve" smooth="yes"/>
    </contour>
    <contour>
      <point x="191.41000000000003" y="123.63" type="curve"/>
      <point x="191.41000000000003" y="294.87000000000006" type="line"/>
      <point x="272.29" y="294.87000000000006" type="line" smooth="yes"/>
      <point x="327.76" y="294.87000000000006"/>
      <point x="352.46000000000004" y="265.77000000000004"/>
      <point x="352.46000000000004" y="209.27999999999997" type="curve" smooth="yes"/>
      <point x="352.46000000000004" y="145.54"/>
      <point x="328.11" y="119.64999999999999"/>
      <point x="253.91" y="119.64999999999999" type="curve" smooth="yes"/>
      <point x="237.35999999999999" y="119.64999999999999"/>
      <point x="218.78000000000003" y="121.03"/>
    </contour>
  </outline>
</glyph>
<glyph name="C" format="2">
  <advance width="476.74000000000007"/>
  <unicode hex="0043"/>
  <anchor x="271.78" y="700.0" name="top"/>
  <anchor x="273.78" y="0.0" name="bottom"/>
  <outline>
    <contour>
      <point x="22.32" y="342.64" type="curve" smooth="yes"/>
      <point x="22.32" y="81.62"/>
      <point x="106.3" y="-10.0"/>
      <point x="280.30000000000007" y="-10.0" type="curve" smooth="yes"/>
      <point x="354.34000000000003" y="-10.0"/>
      <point x="410.32" y="0.15999999999999984"/>
      <point x="458.59999999999997" y="18.18" type="curve"/>
      <point x="432.64" y="145.6" type="line"/>
      <point x="395.26000000000005" y="134.39999999999998"/>
      <point x="345.53999999999996" y="126.41999999999999"/>
      <point x="306.72" y="126.41999999999999" type="curve" smooth="yes"/>
      <point x="212.72" y="126.41999999999999"/>
      <point x="173.5" y="175.5"/>
      <point x="173.5" y="341.38" type="curve" smooth="yes"/>
      <point x="173.5" y="520.46"/>
      <point x="213.66000000000003" y="573.2"/>
      <point x="308.1" y="573.2" type="curve" smooth="yes"/>
      <point x="346.14000000000004" y="573.2"/>
      <point x="381.02" y="567.72"/>
      <point x="424.21999999999997" y="555.94" type="curve"/>
      <point x="453.82" y="683.4" type="line"/>
      <point x="407.76" y="701.1600000000001"/>
      <point x="357.26" y="710.0"/>
      <point x="290.64" y="710.0" type="curve" smooth="yes"/>
      <point x="108.54" y="710.0"/>
      <point x="22.32" y="607.98"/>
    </contour>
  </outline>
</glyph>
<glyph name="D" format="2">
  <advance width="541.42"/>
  <unicode hex="0044"/>
  <anchor x="265.06" y="700.0" name="top"/>
  <outline>
    <contour>
      <point x="247.6" y="-10.0" type="curve" smooth="yes"/>
      <point x="435.1600000000001" y="-10.0"/>
      <point x="519.01" y="96.41"/>
      <point x="519.01" y="351.1" type="curve" smooth="yes"/>
      <point x="519.01" y="604.3599999999999"/>
      <point x="446.08" y="710.0"/>
      <point x="244.75000000000003" y="710.0" type="curve" smooth="yes"/>
      <point x="171.23" y="710.0"/>
      <point x="112.06000000000002" y="707.1499999999999"/>
      <point x="41.690000000000005" y="699.6600000000001" type="curve"/>
      <point x="41.690000000000005" y="-1.5000000000000004" type="line"/>
      <point x="102.32000000000001" y="-6.76"/>
      <point x="168.8" y="-10.0"/>
    </contour>
    <contour>
      <point x="260.48" y="118.35" type="curve" smooth="yes"/>
      <point x="235.07999999999998" y="118.35"/>
      <point x="213.38" y="119.80999999999999"/>
      <point x="190.94000000000003" y="121.64" type="curve"/>
      <point x="190.94000000000003" y="576.96" type="line"/>
      <point x="210.0" y="579.04"/>
      <point x="235.8" y="580.34"/>
      <point x="258.54999999999995" y="580.34" type="curve" smooth="yes"/>
      <point x="334.42" y="580.34"/>
      <point x="364.71999999999997" y="531.0000000000001"/>
      <point x="364.71999999999997" y="349.16" type="curve" smooth="yes"/>
      <point x="364.71999999999997" y="175.61"/>
      <point x="332.5" y="118.35"/>
    </contour>
  </outline>
</glyph>
<glyph name="E" format="2">
  <advance width="462.79"/>
  <unicode hex="0045"/>
  <anchor x="443.96000000000004" y="0.0" name="ogonek"/>
  <anchor x="242.47" y="0.0" name="bottom"/>
  <anchor x="242.54000000000002" y="700.0" name="top"/>
  <outline>
    <contour>
      <point x="41.690000000000005" y="0.0" type="line"/>
      <point x="444.26000000000005" y="0.0" type="line"/>
      <point x="444.26000000000005" y="136.66" type="line"/>
      <point x="190.91" y="136.66" type="line"/>
      <point x="190.91" y="289.56" type="line"/>
      <point x="407.05" y="289.56" type="line"/>
      <point x="407.05" y="419.07" type="line"/>
      <point x="190.91" y="419.07" type="line"/>
      <point x="190.91" y="560.9899999999999" type="line"/>
      <point x="429.87" y="560.9899999999999" type="line"/>
      <point x="429.87" y="700.0" type="line"/>
      <point x="41.690000000000005" y="700.0" type="line"/>
    </contour>
  </outline>
</glyph>
<glyph name="F" format="2">
  <advance width="441.04"/>
  <unicode hex="0046"/>
  <outline>
    <contour>
      <point x="41.690000000000005" y="0.0" type="line"/>
      <point x="192.17999999999998" y="0.0" type="line"/>
      <point x="192.17999999999998" y="242.64000000000001" type="line"/>
      <point x="392.92" y="242.64000000000001" type="line"/>
      <point x="392.92" y="381.3" type="line"/>
      <point x="190.94000000000003" y="381.3" type="line"/>
      <point x="190.94000000000003" y="559.1899999999999" type="line"/>
      <point x="427.70000000000005" y="559.1899999999999" type="line"/>
      <point x="427.70000000000005" y="700.0" type="line"/>
      <point x="41.690000000000005" y="700.0" type="line"/>
    </contour>
  </outline>
</glyph>
<glyph name="G" format="2">
  <advance width="516.38"/>
  <unicode hex="0047"/>
  <anchor x="273.09999999999997" y="700.0" name="top"/>
  <anchor x="272.1" y="0.0" name="bottom"/>
  <outline>
    <contour>
      <point x="22.32" y="343.76" type="curve" smooth="yes"/>
      <point x="22.32" y="100.86"/>
      <point x="100.14000000000001" y="-10.0"/>
      <point x="267.34000000000003" y="-10.0" type="curve" smooth="yes"/>
      <point x="353.16" y="-10.0"/>
      <point x="424.53999999999996" y="5.32"/>
      <point x="484.34000000000003" y="38.0" type="curve"/>
      <point x="484.34000000000003" y="393.12" type="line"/>
      <point x="266.90000000000003" y="393.12" type="line"/>
      <point x="266.90000000000003" y="265.0" type="line"/>
      <point x="348.98" y="265.0" type="line"/>
      <point x="348.98" y="128.72" type="line"/>
      <point x="331.84000000000003" y="122.11999999999999"/>
      <point x="307.62" y="118.58"/>
      <point x="279.34000000000003" y="118.58" type="curve" smooth="yes"/>
      <point x="206.22000000000003" y="118.58"/>
      <point x="172.38" y="176.85999999999999"/>
      <point x="172.38" y="337.46" type="curve" smooth="yes"/>
      <point x="172.38" y="504.82"/>
      <point x="212.49999999999997" y="574.3199999999999"/>
      <point x="305.0" y="574.3199999999999" type="curve" smooth="yes"/>
      <point x="345.08" y="574.3199999999999"/>
      <point x="395.08000000000004" y="566.52"/>
      <point x="437.08000000000004" y="554.6" type="curve"/>
      <point x="464.02" y="683.0600000000001" type="line"/>
      <point x="417.14" y="699.5999999999999"/>
      <point x="352.92" y="710.0"/>
      <point x="290.34000000000003" y="710.0" type="curve" smooth="yes"/>
      <point x="107.10000000000001" y="710.0"/>
      <point x="22.32" y="594.6599999999999"/>
    </contour>
  </outline>
</glyph>
<glyph name="H" format="2">
  <advance width="549.58"/>
  <unicode hex="0048"/>
  <anchor x="275.1" y="700.0" name="top"/>
  <outline>
    <contour>
      <point x="41.660000000000004" y="0.0" type="line"/>
      <point x="190.46000000000004" y="0.0" type="line"/>
      <point x="190.46000000000004" y="244.46" type="line"/>
      <point x="359.12" y="244.46" type="line"/>
      <point x="359.12" y="0.0" type="line"/>
      <point x="507.92" y="0.0" type="line"/>
      <point x="507.92" y="700.0" type="line"/>
      <point x="359.12" y="700.0" type="line"/>
      <point x="359.12" y="387.42" type="line"/>
      <point x="190.46000000000004" y="387.42" type="line"/>
      <point x="190.46000000000004" y="700.0" type="line"/>
      <point x="41.660000000000004" y="700.0" type="line"/>
    </contour>
  </outline>
</glyph>
<glyph name="I" format="2">
  <advance width="232.11999999999998"/>
  <unicode hex="0049"/>
  <anchor x="190.46000000000004" y="0.0" name="ogonek"/>
  <anchor x="116.34" y="0.0" name="bottom"/>
  <anchor x="116.34" y="700.0" name="top"/>
  <outline>
    <contour>
      <point x="41.660000000000004" y="0.0" type="line"/>
      <point x="190.46000000000004" y="0.0" type="line"/>
      <point x="190.46000000000004" y="700.0" type="line"/>
      <point x="41.660000000000004" y="700.0" type="line"/>
    </contour>
  </outline>
</glyph>
<glyph name="J" format="2">
  <advance width="397.18000000000006"/>
  <unicode hex="004A"/>
  <anchor x="205.76" y="700.0" name="top"/>
  <outline>
    <contour>
      <point x="4.620000000000001" y="20.86" type="line"/>
      <point x="55.16" y="2.3399999999999994"/>
      <point x="113.10000000000001" y="-10.059999999999999"/>
      <point x="174.56" y="-10.059999999999999" type="curve" smooth="yes"/>
      <point x="302.24" y="-10.059999999999999"/>
      <point x="360.62" y="60.94"/>
      <point x="360.62" y="195.06" type="curve" smooth="yes"/>
      <point x="360.62" y="700.0" type="line"/>
      <point x="45.94" y="700.0" type="line"/>
      <point x="45.94" y="559.6999999999999" type="line"/>
      <point x="211.82" y="559.6999999999999" type="line"/>
      <point x="211.82" y="239.84" type="line" smooth="yes"/>
      <point x="211.82" y="150.16"/>
      <point x="184.78" y="125.61999999999999"/>
      <point x="125.98" y="125.61999999999999" type="curve" smooth="yes"/>
      <point x="101.24" y="125.61999999999999"/>
      <point x="66.52" y="132.04"/>
      <point x="31.239999999999995" y="141.6" type="curve"/>
    </contour>
  </outline>
</glyph>
<glyph name="K" format="2">
  <advance width="551.8"/>
  <unicode hex="004B"/>
  <anchor x="276.7" y="700.0" name="top"/>
  <anchor x="282.29999999999995" y="0.0" name="bottom"/>
  <outline>
    <contour>
      <point x="507.30000000000007" y="-10.0" type="curve" smooth="yes"/>
      <point x="514.8" y="-10.0"/>
      <point x="522.3000000000001" y="-10.0"/>
      <point x="532.1" y="-8.0" type="curve"/>
      <point x="532.1" y="156.4" type="line"/>
      <point x="528.1" y="156.39999999999998"/>
      <point x="523.5999999999999" y="156.39999999999998"/>
      <point x="520.1" y="156.39999999999998" type="curve" smooth="yes"/>
      <point x="492.9" y="156.6"/>
      <point x="464.19999999999993" y="169.3"/>
      <point x="397.9" y="238.39999999999998" type="curve" smooth="yes"/>
      <point x="183.8" y="462.09999999999997" type="line"/>
      <point x="183.8" y="700.0" type="line"/>
      <point x="45.6" y="700.0" type="line"/>
      <point x="45.6" y="0.0" type="line"/>
      <point x="183.8" y="0.0" type="line"/>
      <point x="183.8" y="245.40000000000003" type="line"/>
      <point x="352.9" y="70.10000000000001" type="line" smooth="yes"/>
      <point x="405.4" y="15.6"/>
      <point x="450.49999999999994" y="-10.0"/>
    </contour>
    <contour>
      <point x="286.99999999999994" y="280.9" type="line"/>
      <point x="396.8" y="379.2"/>
      <point x="493.9" y="502.5"/>
      <point x="537.1" y="666.1999999999999" type="curve"/>
      <point x="416.09999999999997" y="702.5" type="line"/>
      <point x="374.1" y="560.5"/>
      <point x="273.20000000000005" y="442.79999999999995"/>
      <point x="207.5" y="384.7" type="curve"/>
    </contour>
  </outline>
</glyph>
<glyph name="L" format="2">
  <advance width="430.5"/>
  <unicode hex="004C"/>
  <anchor x="215.56" y="350.0" name="center"/>
  <anchor x="116.34" y="700.0" name="top"/>
  <anchor x="272.0" y="700.0" name="topright"/>
  <anchor x="229.46" y="0.0" name="bottom"/>
  <outline>
    <contour>
      <point x="41.660000000000004" y="0.0" type="line"/>
      <point x="417.29999999999995" y="0.0" type="line"/>
      <point x="417.29999999999995" y="139.04" type="line"/>
      <point x="191.02" y="139.04" type="line"/>
      <point x="191.02" y="700.0" type="line"/>
      <point x="41.660000000000004" y="700.0" type="line"/>
    </contour>
  </outline>
</glyph>
<glyph name="M" format="2">
  <advance width="635.28"/>
  <unicode hex="004D"/>
  <outline>
    <contour>
      <point x="41.86" y="0.0" type="line"/>
      <point x="177.07999999999998" y="0.0" type="line"/>
      <point x="177.07999999999998" y="456.46000000000004" type="line"/>
      <point x="279.42" y="169.40000000000003" type="line"/>
      <point x="353.03999999999996" y="169.40000000000003" type="line"/>
      <point x="458.20000000000005" y="458.84" type="line"/>
      <point x="458.20000000000005" y="0.0" type="line"/>
      <point x="593.42" y="0.0" type="line"/>
      <point x="593.42" y="700.0" type="line"/>
      <point x="442.3" y="700.0" type="line"/>
      <point x="320.38" y="373.06" type="line"/>
      <point x="199.07999999999998" y="700.0" type="line"/>
      <point x="41.86" y="700.0" type="line"/>
    </contour>
  </outline>
</glyph>
<glyph name="N" format="2">
  <advance width="546.4499999999999"/>
  <unicode hex="004E"/>
  <anchor x="273.40000000000003" y="700.0" name="top"/>
  <anchor x="273.40000000000003" y="0.0" name="bottom"/>
  <outline>
    <contour>
      <point x="41.65" y="0.0" type="line"/>
      <point x="173.95000000000002" y="0.0" type="line"/>
      <point x="173.95000000000002" y="406.85" type="line"/>
      <point x="357.6" y="-0.6000000000000001" type="line"/>
      <point x="504.79999999999995" y="-0.6000000000000001" type="line"/>
      <point x="504.79999999999995" y="700.0" type="line"/>
      <point x="372.7" y="700.0" type="line"/>
      <point x="372.7" y="277.15000000000003" type="line"/>
      <point x="189.39999999999998" y="700.6" type="line"/>
      <point x="41.65" y="700.6" type="line"/>
    </contour>
  </outline>
</glyph>
<glyph name="O" format="2">
  <advance width="543.75"/>
  <unicode hex="004F"/>
  <anchor x="352.70000000000005" y="6.299999999999999" name="ogonek"/>
  <anchor x="271.79999999999995" y="700.0" name="top"/>
  <anchor x="418.65" y="693.3" name="topright"/>
  <anchor x="271.75" y="0.0" name="bottom"/>
  <outline>
    <contour>
      <point x="271.79999999999995" y="119.4" type="curve" smooth="yes"/>
      <point x="209.65" y="119.4"/>
      <point x="175.05" y="162.7"/>
      <point x="175.05" y="349.35" type="curve" smooth="yes"/>
      <point x="175.05" y="537.25"/>
      <point x="209.35" y="581.2"/>
      <point x="271.79999999999995" y="581.2" type="curve" smooth="yes"/>
      <point x="335.95" y="581.2"/>
      <point x="368.95" y="537.4"/>
      <point x="368.95" y="350.40000000000003" type="curve" smooth="yes"/>
      <point x="368.95" y="164.59999999999997"/>
      <point x="335.55" y="119.4"/>
    </contour>
    <contour>
      <point x="271.75" y="-10.0" type="curve" smooth="yes"/>
      <point x="434.95" y="-10.0"/>
      <point x="521.0" y="76.69999999999999"/>
      <point x="521.0" y="352.04999999999995" type="curve" smooth="yes"/>
      <point x="521.0" y="623.3"/>
      <point x="437.65" y="710.0"/>
      <point x="271.79999999999995" y="710.0" type="curve" smooth="yes"/>
      <point x="106.24999999999999" y="710.0"/>
      <point x="22.750000000000004" y="622.1"/>
      <point x="22.750000000000004" y="349.3" type="curve" smooth="yes"/>
      <point x="22.750000000000004" y="76.7"/>
      <point x="109.00000000000001" y="-10.0"/>
    </contour>
  </outline>
</glyph>
<glyph name="P" format="2">
  <advance width="524.3000000000001"/>
  <unicode hex="0050"/>
  <outline>
    <contour>
      <point x="41.660000000000004" y="0.0" type="line"/>
      <point x="191.02" y="0.0" type="line"/>
      <point x="191.02" y="197.1" type="line"/>
      <point x="241.36" y="193.82000000000002"/>
      <point x="243.05999999999997" y="193.76"/>
      <point x="290.3" y="193.76" type="curve" smooth="yes"/>
      <point x="446.38" y="193.76"/>
      <point x="507.56" y="275.53999999999996"/>
      <point x="507.56" y="458.46" type="curve" smooth="yes"/>
      <point x="507.56" y="635.28"/>
      <point x="451.22" y="710.0"/>
      <point x="254.66000000000003" y="710.0" type="curve" smooth="yes"/>
      <point x="223.44000000000003" y="710.0"/>
      <point x="152.16" y="708.4200000000001"/>
      <point x="41.660000000000004" y="702.08" type="curve"/>
    </contour>
    <contour>
      <point x="191.57999999999998" y="577.9" type="line"/>
      <point x="229.62" y="581.34"/>
      <point x="245.06" y="581.7"/>
      <point x="265.40000000000003" y="581.7" type="curve" smooth="yes"/>
      <point x="338.53999999999996" y="581.7"/>
      <point x="357.21999999999997" y="546.3199999999999"/>
      <point x="357.21999999999997" y="464.32" type="curve" smooth="yes"/>
      <point x="357.21999999999997" y="358.94000000000005"/>
      <point x="336.76" y="321.28"/>
      <point x="252.32000000000002" y="321.28" type="curve" smooth="yes"/>
      <point x="230.33999999999997" y="321.28"/>
      <point x="216.90000000000003" y="321.6"/>
      <point x="191.57999999999998" y="323.7" type="curve"/>
    </contour>
  </outline>
</glyph>
<glyph name="Q" format="2">
  <advance width="543.96"/>
  <unicode hex="0051"/>
  <outline>
    <contour>
      <point x="381.64" y="39.68" type="curve"/>
      <point x="263.4" y="8.34" type="line"/>
      <point x="290.92" y="-123.6"/>
      <point x="331.28" y="-181.92"/>
      <point x="416.8" y="-181.92" type="curve" smooth="yes"/>
      <point x="443.47999999999996" y="-181.92"/>
      <point x="471.81999999999994" y="-176.22"/>
      <point x="497.18" y="-166.76" type="curve"/>
      <point x="480.59999999999997" y="-32.84000000000001" type="line"/>
      <point x="468.34" y="-38.44000000000001"/>
      <point x="454.9" y="-41.92"/>
      <point x="442.2" y="-41.92" type="curve" smooth="yes"/>
      <point x="413.14" y="-41.92"/>
      <point x="397.2" y="-16.420000000000023"/>
    </contour>
    <component base="O"/>
  </outline>
</glyph>
<glyph name="R" format="2">
  <advance width="556.9"/>
  <unicode hex="0052"/>
  <anchor x="272.2" y="700.0" name="top"/>
  <anchor x="277.1" y="0.0" name="bottom"/>
  <outline>
    <contour>
      <point x="502.19999999999993" y="-10.0" type="curve" smooth="yes"/>
      <point x="522.9" y="-10.0"/>
      <point x="535.1" y="-7.9"/>
      <point x="544.4999999999999" y="-6.0" type="curve"/>
      <point x="543.6999999999999" y="143.4" type="line"/>
      <point x="540.4" y="143.4"/>
      <point x="533.5999999999999" y="143.10000000000002"/>
      <point x="530.8" y="143.10000000000002" type="curve" smooth="yes"/>
      <point x="488.40000000000003" y="143.10000000000002"/>
      <point x="443.69999999999993" y="182.6"/>
      <point x="389.6" y="277.7" type="curve"/>
      <point x="469.3" y="305.8"/>
      <point x="508.59999999999997" y="381.7"/>
      <point x="508.59999999999997" y="490.7" type="curve" smooth="yes"/>
      <point x="508.59999999999997" y="644.6999999999999"/>
      <point x="429.59999999999997" y="709.6"/>
      <point x="263.5" y="709.6" type="curve" smooth="yes"/>
      <point x="186.7" y="709.6"/>
      <point x="122.80000000000001" y="706.1999999999999"/>
      <point x="45.6" y="700.3" type="curve"/>
      <point x="45.6" y="0.0" type="line"/>
      <point x="182.4" y="0.0" type="line"/>
      <point x="182.4" y="233.4" type="line"/>
      <point x="202.6" y="232.6"/>
      <point x="223.7" y="232.39999999999998"/>
      <point x="242.39999999999998" y="232.39999999999998" type="curve" smooth="yes"/>
      <point x="249.1" y="232.39999999999998"/>
      <point x="260.79999999999995" y="232.70000000000002"/>
      <point x="267.7" y="233.10000000000002" type="curve"/>
      <point x="355.79999999999995" y="31.9"/>
      <point x="424.1" y="-10.0"/>
    </contour>
    <contour>
      <point x="259.1" y="344.8" type="curve" smooth="yes"/>
      <point x="232.60000000000002" y="344.8"/>
      <point x="210.7" y="346.0"/>
      <point x="182.4" y="347.5" type="curve"/>
      <point x="182.4" y="579.9" type="line"/>
      <point x="216.29999999999998" y="583.4"/>
      <point x="232.9" y="584.1"/>
      <point x="261.1" y="584.1" type="curve" smooth="yes"/>
      <point x="343.6" y="584.1"/>
      <point x="368.9" y="551.5000000000001"/>
      <point x="368.9" y="469.20000000000005" type="curve" smooth="yes"/>
      <point x="368.9" y="382.1"/>
      <point x="336.0" y="344.8"/>
    </contour>
  </outline>
</glyph>
<glyph name="S" format="2">
  <advance width="487.9"/>
  <unicode hex="0053"/>
  <anchor x="247.74999999999997" y="700.0" name="top"/>
  <anchor x="238.57999999999998" y="0.0" name="bottom"/>
  <outline>
    <contour>
      <point x="448.92999999999995" y="677.8800000000001" type="line"/>
      <point x="411.37999999999994" y="693.65"/>
      <point x="331.89" y="710.0"/>
      <point x="260.8" y="710.0" type="curve" smooth="yes"/>
      <point x="89.0" y="710.0"/>
      <point x="21.740000000000002" y="616.47"/>
      <point x="21.740000000000002" y="510.03000000000003" type="curve" smooth="yes"/>
      <point x="21.740000000000002" y="409.6"/>
      <point x="66.9" y="349.73999999999995"/>
      <point x="161.69000000000003" y="304.03999999999996" type="curve" smooth="yes"/>
      <point x="268.62" y="256.50000000000006"/>
      <point x="320.90999999999997" y="231.59"/>
      <point x="320.90999999999997" y="184.61" type="curve" smooth="yes"/>
      <point x="320.90999999999997" y="141.62"/>
      <point x="286.82" y="117.24"/>
      <point x="220.99" y="117.24" type="curve" smooth="yes"/>
      <point x="169.99" y="117.24"/>
      <point x="102.32" y="128.53"/>
      <point x="37.690000000000005" y="151.50000000000003" type="curve"/>
      <point x="8.23" y="29.640000000000004" type="line"/>
      <point x="75.56" y="1.4100000000000006"/>
      <point x="156.63" y="-10.0"/>
      <point x="219.28000000000003" y="-10.0" type="curve" smooth="yes"/>
      <point x="385.7" y="-10.0"/>
      <point x="472.27" y="70.69"/>
      <point x="472.27" y="193.95" type="curve" smooth="yes"/>
      <point x="472.27" y="301.07000000000005"/>
      <point x="420.69" y="356.65999999999997"/>
      <point x="312.05999999999995" y="401.0" type="curve" smooth="yes"/>
      <point x="212.48999999999998" y="441.7"/>
      <point x="174.90000000000003" y="466.76"/>
      <point x="174.90000000000003" y="512.32" type="curve" smooth="yes"/>
      <point x="174.90000000000003" y="556.4200000000001"/>
      <point x="209.57" y="579.1199999999999"/>
      <point x="268.43" y="579.1199999999999" type="curve" smooth="yes"/>
      <point x="316.74" y="579.1199999999999"/>
      <point x="375.39000000000004" y="571.1199999999999"/>
      <point x="419.82" y="554.65" type="curve"/>
    </contour>
  </outline>
</glyph>
<glyph name="T" format="2">
  <advance width="479.84"/>
  <unicode hex="0054"/>
  <anchor x="239.92" y="700.0" name="top"/>
  <anchor x="239.92" y="0.0" name="bottom"/>
  <outline>
    <contour>
      <point x="467.78" y="558.78" type="line"/>
      <point x="467.78" y="700.0" type="line"/>
      <point x="12.059999999999999" y="700.0" type="line"/>
      <point x="12.059999999999999" y="558.78" type="line"/>
      <point x="165.8" y="558.78" type="line"/>
      <point x="165.8" y="0.0" type="line"/>
      <point x="314.6" y="0.0" type="line"/>
      <point x="314.6" y="558.78" type="line"/>
    </contour>
  </outline>
</glyph>
<glyph name="U" format="2">
  <advance width="537.8"/>
  <unicode hex="0055"/>
  <anchor x="343.94000000000005" y="1.1199999999999999" name="ogonek"/>
  <anchor x="269.29999999999995" y="700.0" name="top"/>
  <anchor x="501.23999999999995" y="700.0" name="topright"/>
  <anchor x="269.29999999999995" y="0.0" name="bottom"/>
  <outline>
    <contour>
      <point x="36.56" y="205.28" type="line"/>
      <point x="36.56" y="46.4"/>
      <point x="124.24000000000001" y="-10.0"/>
      <point x="268.18" y="-10.0" type="curve" smooth="yes"/>
      <point x="416.03999999999996" y="-10.0"/>
      <point x="501.23999999999995" y="46.4"/>
      <point x="501.23999999999995" y="205.28" type="curve" smooth="yes"/>
      <point x="501.23999999999995" y="700.0" type="line"/>
      <point x="352.44" y="700.0" type="line"/>
      <point x="352.44" y="195.76000000000002" type="line" smooth="yes"/>
      <point x="352.44" y="137.84"/>
      <point x="317.84" y="119.33999999999999"/>
      <point x="268.6" y="119.33999999999999" type="curve" smooth="yes"/>
      <point x="220.9" y="119.33999999999999"/>
      <point x="184.23999999999998" y="136.58"/>
      <point x="184.23999999999998" y="195.76000000000002" type="curve" smooth="yes"/>
      <point x="184.23999999999998" y="700.0" type="line"/>
      <point x="36.56" y="700.0" type="line"/>
    </contour>
  </outline>
</glyph>
<glyph name="V" format="2">
  <advance width="521.6199999999999"/>
  <unicode hex="0056"/>
  <outline>
    <contour>
      <point x="170.54000000000002" y="0.0" type="line"/>
      <point x="355.3" y="0.0" type="line"/>
      <point x="520.42" y="699.7" type="line"/>
      <point x="359.44" y="701.0400000000001" type="line"/>
      <point x="263.2" y="140.7" type="line"/>
      <point x="163.0" y="701.0400000000001" type="line"/>
      <point x="1.2000000000000006" y="699.7" type="line"/>
    </contour>
  </outline>
</glyph>
<glyph name="W" format="2">
  <advance width="671.9"/>
  <unicode hex="0057"/>
  <anchor x="335.9" y="700.0" name="top"/>
  <anchor x="335.9" y="0.0" name="bottom"/>
  <outline>
    <contour>
      <point x="559.68" y="0.0" type="line"/>
      <point x="670.14" y="699.92" type="line"/>
      <point x="508.38" y="700.82" type="line"/>
      <point x="474.7400000000001" y="162.72" type="line"/>
      <point x="398.23999999999995" y="661.1400000000001" type="line"/>
      <point x="277.59999999999997" y="661.1400000000001" type="line"/>
      <point x="198.71999999999997" y="162.55999999999997" type="line"/>
      <point x="162.68" y="700.82" type="line"/>
      <point x="1.7600000000000016" y="699.92" type="line"/>
      <point x="110.32000000000001" y="0.0" type="line"/>
      <point x="264.4" y="0.0" type="line"/>
      <point x="334.08" y="428.99999999999994" type="line"/>
      <point x="399.15999999999997" y="0.0" type="line"/>
    </contour>
  </outline>
</glyph>
<glyph name="X" format="2">
  <advance width="526.56"/>
  <unicode hex="0058"/>
  <outline>
    <contour>
      <point x="2.96" y="0.8200000000000003" type="line"/>
      <point x="181.04" y="-1.58" type="line"/>
      <point x="263.96999999999997" y="258.41" type="line"/>
      <point x="345.9" y="-1.58" type="line"/>
      <point x="522.37" y="0.8200000000000003" type="line"/>
      <point x="370.79999999999995" y="358.66999999999996" type="line"/>
      <point x="513.17" y="699.0300000000001" type="line"/>
      <point x="341.97" y="701.13" type="line"/>
      <point x="267.11" y="454.7" type="line"/>
      <point x="191.16" y="701.13" type="line"/>
      <point x="15.99" y="699.0300000000001" type="line"/>
      <point x="158.86" y="356.64" type="line"/>
    </contour>
  </outline>
</glyph>
<glyph name="Y" format="2">
  <advance width="518.4"/>
  <unicode hex="0059"/>
  <anchor x="259.44" y="700.0" name="top"/>
  <anchor x="259.62" y="0.0" name="bottom"/>
  <outline>
    <contour>
      <point x="185.18" y="0.0" type="line"/>
      <point x="333.98" y="0.0" type="line"/>
      <point x="333.98" y="242.50000000000003" type="line"/>
      <point x="516.68" y="698.8000000000001" type="line"/>
      <point x="349.24" y="701.1999999999999" type="line"/>
      <point x="260.13999999999993" y="343.64" type="line"/>
      <point x="168.76" y="701.1999999999999" type="line"/>
      <point x="0.7600000000000009" y="698.8000000000001" type="line"/>
      <point x="185.18" y="242.50000000000003" type="line"/>
    </contour>
  </outline>
</glyph>
<glyph name="Z" format="2">
  <advance width="485.6000000000001"/>
  <unicode hex="005A"/>
  <anchor x="244.70000000000002" y="350.0" name="center"/>
  <anchor x="244.70000000000002" y="0.0" name="bottom"/>
  <anchor x="247.52" y="700.0" name="top"/>
  <outline>
    <contour>
      <point x="17.26" y="0.0" type="line"/>
      <point x="469.18000000000006" y="0.0" type="line"/>
      <point x="469.18000000000006" y="131.84" type="line"/>
      <point x="185.81999999999996" y="131.84" type="line"/>
      <point x="185.81999999999996" y="133.22" type="line"/>
      <point x="456.67999999999995" y="567.8" type="line"/>
      <point x="456.67999999999995" y="700.0" type="line"/>
      <point x="30.119999999999997" y="700.0" type="line"/>
      <point x="30.119999999999997" y="568.46" type="line"/>
      <point x="289.8" y="568.46" type="line"/>
      <point x="289.8" y="566.78" type="line"/>
      <point x="17.26" y="132.50000000000003" type="line"/>
    </contour>
  </outline>
</glyph>
<glyph name="bracketleft" format="2">
  <advance width="272.84000000000003"/>
  <unicode hex="005B"/>
  <outline>
    <contour>
      <point x="146.78000000000003" y="-99.0" type="line"/>
      <point x="146.78000000000003" y="629.0" type="line"/>
      <point x="258.84" y="629.0" type="line"/>
      <point x="258.84" y="740.0" type="line"/>
      <point x="34.1" y="740.0" type="line"/>
      <point x="34.1" y="-210.0" type="line"/>
      <point x="258.84" y="-210.0" type="line"/>
      <point x="258.84" y="-99.0" type="line"/>
    </contour>
  </outline>
</glyph>
<glyph name="backslash" format="2">
  <advance width="380.82"/>
  <unicode hex="005C"/>
  <outline>
    <contour>
      <point x="118.25999999999999" y="740.0" type="line"/>
      <point x="-3.119999999999999" y="740.0" type="line"/>
      <point x="263.12" y="-210.0" type="line"/>
      <point x="383.94" y="-210.0" type="line"/>
    </contour>
  </outline>
</glyph>
<glyph name="bracketright" format="2">
  <advance width="272.84000000000003"/>
  <unicode hex="005D"/>
  <outline>
    <contour>
      <point x="14.0" y="-99.0" type="line"/>
      <point x="14.0" y="-210.0" type="line"/>
      <point x="238.74" y="-210.0" type="line"/>
      <point x="238.74" y="740.0" type="line"/>
      <point x="14.0" y="740.0" type="line"/>
      <point x="14.0" y="629.0" type="line"/>
      <point x="126.06" y="629.0" type="line"/>
      <point x="126.06" y="-99.0" type="line"/>
    </contour>
  </outline>
</glyph>
<glyph name="asciicircum" format="2">
  <advance width="467.08"/>
  <unicode hex="005E"/>
  <outline>
    <contour>
      <point x="45.900000000000006" y="247.32" type="line"/>
      <point x="155.21999999999997" y="247.32" type="line"/>
      <point x="233.54" y="552.22" type="line"/>
      <point x="312.56" y="247.32" type="line"/>
      <point x="421.18" y="247.32" type="line"/>
      <point x="303.18" y="703.0" type="line"/>
      <point x="163.89999999999998" y="703.0" type="line"/>
    </contour>
  </outline>
</glyph>
<glyph name="underscore" format="2">
  <advance width="702.08"/>
  <unicode hex="005F"/>
  <outline>
    <contour>
      <point x="14.0" y="-187.23999999999998" type="line"/>
      <point x="688.08" y="-187.23999999999998" type="line"/>
      <point x="688.08" y="-63.64" type="line"/>
      <point x="14.0" y="-63.64" type="line"/>
    </contour>
  </outline>
</glyph>
<glyph name="a" format="2">
  <advance width="472.0999999999999"/>
  <unicode hex="0061"/>
  <anchor x="468.2" y="11.399999999999999" name="ogonek"/>
  <anchor x="234.7" y="0.0" name="bottom"/>
  <anchor x="229.0" y="544.0" name="top"/>
  <outline>
    <contour>
      <point x="16.8" y="149.0" type="curve" smooth="yes"/>
      <point x="16.8" y="61.099999999999994"/>
      <point x="58.8" y="-10.0"/>
      <point x="145.6" y="-10.0" type="curve" smooth="yes"/>
      <point x="211.2" y="-10.0"/>
      <point x="252.8" y="13.500000000000004"/>
      <point x="291.2" y="48.1" type="curve"/>
      <point x="306.0" y="8.7"/>
      <point x="334.30000000000007" y="-10.0"/>
      <point x="384.59999999999997" y="-10.0" type="curve" smooth="yes"/>
      <point x="421.40000000000003" y="-10.0"/>
      <point x="446.7" y="-0.7000000000000008"/>
      <point x="468.2" y="11.7" type="curve"/>
      <point x="458.0" y="129.7" type="line"/>
      <point x="452.09999999999997" y="126.9"/>
      <point x="444.3999999999999" y="125.89999999999998"/>
      <point x="438.2" y="125.89999999999998" type="curve" smooth="yes"/>
      <point x="425.59999999999997" y="125.89999999999998"/>
      <point x="416.0" y="133.9"/>
      <point x="416.0" y="166.7" type="curve" smooth="yes"/>
      <point x="416.0" y="361.9" type="line" smooth="yes"/>
      <point x="416.0" y="485.8"/>
      <point x="355.09999999999997" y="554.0"/>
      <point x="209.0" y="554.0" type="curve" smooth="yes"/>
      <point x="159.29999999999998" y="554.0"/>
      <point x="91.9" y="541.6"/>
      <point x="40.3" y="522.6" type="curve"/>
      <point x="67.80000000000001" y="398.1" type="line"/>
      <point x="124.8" y="416.0"/>
      <point x="166.2" y="420.2"/>
      <point x="196.79999999999998" y="420.2" type="curve" smooth="yes"/>
      <point x="247.5" y="420.2"/>
      <point x="281.1" y="399.1"/>
      <point x="281.1" y="359.2" type="curve" smooth="yes"/>
      <point x="281.1" y="327.5" type="line"/>
      <point x="106.3" y="309.3"/>
      <point x="16.8" y="278.2"/>
    </contour>
    <contour>
      <point x="151.49999999999997" y="161.9" type="curve" smooth="yes"/>
      <point x="151.49999999999997" y="225.20000000000002"/>
      <point x="201.60000000000002" y="236.4"/>
      <point x="281.1" y="242.1" type="curve"/>
      <point x="281.1" y="128.8" type="line"/>
      <point x="258.6" y="107.30000000000001"/>
      <point x="225.99999999999997" y="94.7"/>
      <point x="198.2" y="94.7" type="curve" smooth="yes"/>
      <point x="170.2" y="94.7"/>
      <point x="151.49999999999997" y="113.89999999999999"/>
    </contour>
  </outline>
</glyph>
<glyph name="b" format="2">
  <advance width="475.56"/>
  <unicode hex="0062"/>
  <outline>
    <contour>
      <point x="36.2" y="16.08" type="line"/>
      <point x="100.5" y="-0.18000000000000005"/>
      <point x="167.9" y="-10.0"/>
      <point x="221.44" y="-10.0" type="curve" smooth="yes"/>
      <point x="388.46" y="-10.0"/>
      <point x="454.5" y="72.02"/>
      <point x="454.5" y="287.04" type="curve" smooth="yes"/>
      <point x="454.5" y="465.93999999999994"/>
      <point x="401.7" y="554.0"/>
      <point x="296.79999999999995" y="554.0" type="curve" smooth="yes"/>
      <point x="259.24" y="554.0"/>
      <point x="217.43999999999997" y="540.52"/>
      <point x="182.2" y="517.4" type="curve"/>
      <point x="182.2" y="740.0" type="line"/>
      <point x="36.2" y="740.0" type="line"/>
    </contour>
    <contour>
      <point x="182.2" y="109.7" type="curve"/>
      <point x="182.2" y="403.2" type="line"/>
      <point x="206.36" y="417.74"/>
      <point x="224.43999999999997" y="423.6"/>
      <point x="244.5" y="423.6" type="curve" smooth="yes"/>
      <point x="282.88" y="423.6"/>
      <point x="301.78" y="383.32"/>
      <point x="301.78" y="273.32" type="curve" smooth="yes"/>
      <point x="301.78" y="139.74"/>
      <point x="281.06" y="102.32000000000001"/>
      <point x="229.61999999999998" y="102.32000000000001" type="curve" smooth="yes"/>
      <point x="215.51999999999998" y="102.32000000000001"/>
      <point x="200.7" y="104.6"/>
    </contour>
  </outline>
</glyph>
<glyph name="c" format="2">
  <advance width="412.94"/>
  <unicode hex="0063"/>
  <anchor x="244.90000000000003" y="544.0" name="top"/>
  <anchor x="248.64000000000001" y="0.0" name="bottom"/>
  <outline>
    <contour>
      <point x="21.360000000000003" y="267.32" type="curve" smooth="yes"/>
      <point x="21.360000000000003" y="79.08000000000001"/>
      <point x="92.78" y="-10.0"/>
      <point x="240.93999999999997" y="-10.0" type="curve" smooth="yes"/>
      <point x="295.38" y="-10.0"/>
      <point x="360.32" y="-0.10000000000000009"/>
      <point x="400.36" y="13.42" type="curve"/>
      <point x="373.94" y="137.76000000000002" type="line"/>
      <point x="339.14" y="130.23999999999998"/>
      <point x="306.44" y="125.66"/>
      <point x="275.18" y="125.66" type="curve" smooth="yes"/>
      <point x="209.14" y="125.66"/>
      <point x="172.88" y="163.42"/>
      <point x="172.88" y="271.17999999999995" type="curve" smooth="yes"/>
      <point x="172.88" y="381.46"/>
      <point x="207.62" y="417.38000000000005"/>
      <point x="276.04" y="417.38000000000005" type="curve" smooth="yes"/>
      <point x="306.5" y="417.38000000000005"/>
      <point x="338.64" y="413.70000000000005"/>
      <point x="369.53999999999996" y="406.6" type="curve"/>
      <point x="392.0" y="536.38" type="line"/>
      <point x="357.40000000000003" y="547.4"/>
      <point x="302.47999999999996" y="554.0"/>
      <point x="253.10000000000005" y="554.0" type="curve" smooth="yes"/>
      <point x="99.94" y="554.0"/>
      <point x="21.360000000000003" y="459.76"/>
    </contour>
  </outline>
</glyph>
<glyph name="d" format="2">
  <advance width="476.32"/>
  <unicode hex="0064"/>
  <anchor x="237.61999999999998" y="275.0" name="center"/>
  <anchor x="233.54999999999998" y="740.0" name="top"/>
  <anchor x="485.32" y="740.0" name="topright"/>
  <anchor x="237.61999999999998" y="0.0" name="bottom"/>
  <outline>
    <contour>
      <point x="310.34" y="-0.6199999999999999" type="line"/>
      <point x="440.27" y="-0.6199999999999999" type="line"/>
      <point x="440.27" y="740.0" type="line"/>
      <point x="293.35" y="740.0" type="line"/>
      <point x="293.35" y="547.5099999999999" type="line"/>
      <point x="272.86" y="551.78"/>
      <point x="249.70000000000002" y="554.0"/>
      <point x="229.85999999999999" y="554.0" type="curve" smooth="yes"/>
      <point x="89.16000000000001" y="554.0"/>
      <point x="20.970000000000002" y="458.53999999999996"/>
      <point x="20.970000000000002" y="262.03" type="curve" smooth="yes"/>
      <point x="20.970000000000002" y="83.64000000000001"/>
      <point x="75.17999999999999" y="-10.0"/>
      <point x="176.09" y="-10.0" type="curve" smooth="yes"/>
      <point x="218.72" y="-10.0"/>
      <point x="259.82" y="3.0"/>
      <point x="295.92" y="27.57" type="curve"/>
    </contour>
    <contour>
      <point x="293.27000000000004" y="137.62" type="line"/>
      <point x="270.84999999999997" y="125.05999999999999"/>
      <point x="251.52999999999997" y="119.05"/>
      <point x="232.00000000000003" y="119.05" type="curve" smooth="yes"/>
      <point x="193.54" y="119.05"/>
      <point x="174.58" y="161.8"/>
      <point x="174.58" y="280.08" type="curve" smooth="yes"/>
      <point x="174.58" y="404.26000000000005"/>
      <point x="195.09" y="439.64000000000004"/>
      <point x="245.76000000000002" y="439.64000000000004" type="curve" smooth="yes"/>
      <point x="260.74000000000007" y="439.64000000000004"/>
      <point x="274.86" y="437.57000000000005"/>
      <point x="293.27000000000004" y="430.82" type="curve"/>
    </contour>
  </outline>
</glyph>
<glyph name="e" format="2">
  <advance width="458.76"/>
  <unicode hex="0065"/>
  <anchor x="389.4200000000001" y="9.66" name="ogonek"/>
  <anchor x="235.16" y="0.0" name="bottom"/>
  <anchor x="238.32" y="544.0" name="top"/>
  <outline>
    <contour>
      <point x="239.42" y="-10.0" type="curve" smooth="yes"/>
      <point x="313.62" y="-10.0"/>
      <point x="373.28" y="0.2599999999999998"/>
      <point x="432.78000000000003" y="22.74" type="curve"/>
      <point x="414.08" y="138.15999999999997" type="line"/>
      <point x="365.64000000000004" y="125.78"/>
      <point x="315.52000000000004" y="116.61999999999999"/>
      <point x="271.76000000000005" y="116.61999999999999" type="curve" smooth="yes"/>
      <point x="197.97999999999996" y="116.61999999999999"/>
      <point x="171.7" y="145.54"/>
      <point x="171.54" y="214.48000000000005" type="curve" smooth="yes"/>
      <point x="171.54" y="218.82000000000002"/>
      <point x="171.53999999999996" y="222.46000000000004"/>
      <point x="171.84" y="226.80000000000007" type="curve"/>
      <point x="266.78000000000003" y="229.06"/>
      <point x="378.76000000000005" y="240.84"/>
      <point x="435.78" y="247.08" type="curve"/>
      <point x="436.56000000000006" y="264.02"/>
      <point x="437.48" y="292.40000000000003"/>
      <point x="437.48" y="304.85999999999996" type="curve" smooth="yes"/>
      <point x="437.48" y="481.88"/>
      <point x="377.92" y="554.0"/>
      <point x="245.5" y="554.0" type="curve" smooth="yes"/>
      <point x="107.8" y="554.0"/>
      <point x="21.120000000000008" y="476.78000000000003"/>
      <point x="21.120000000000008" y="261.38" type="curve" smooth="yes"/>
      <point x="21.120000000000008" y="69.66000000000001"/>
      <point x="97.17999999999999" y="-10.0"/>
    </contour>
    <contour>
      <point x="172.22" y="319.75999999999993" type="curve"/>
      <point x="178.0" y="421.12"/>
      <point x="203.50000000000003" y="443.15999999999997"/>
      <point x="237.22" y="443.15999999999997" type="curve" smooth="yes"/>
      <point x="273.88" y="443.15999999999997"/>
      <point x="291.35999999999996" y="417.15999999999997"/>
      <point x="292.59999999999997" y="325.90000000000003" type="curve"/>
      <point x="270.34000000000003" y="323.62"/>
      <point x="219.0" y="320.2199999999999"/>
    </contour>
  </outline>
</glyph>
<glyph name="f" format="2">
  <advance width="325.22"/>
  <unicode hex="0066"/>
  <outline>
    <contour>
      <point x="71.54" y="0.0" type="line"/>
      <point x="214.74" y="0.0" type="line"/>
      <point x="214.74" y="394.38" type="line"/>
      <point x="308.70000000000005" y="394.38" type="line"/>
      <point x="308.70000000000005" y="509.2" type="line"/>
      <point x="215.3" y="509.2" type="line"/>
      <point x="215.3" y="526.2199999999999" type="line" smooth="yes"/>
      <point x="215.3" y="598.1800000000001"/>
      <point x="237.62" y="626.5600000000001"/>
      <point x="281.80000000000007" y="626.5600000000001" type="curve" smooth="yes"/>
      <point x="300.06" y="626.5600000000001"/>
      <point x="320.78" y="623.3599999999999"/>
      <point x="344.04" y="616.22" type="curve"/>
      <point x="364.9" y="725.48" type="line"/>
      <point x="323.74" y="742.8799999999999"/>
      <point x="286.14" y="750.0600000000001"/>
      <point x="244.45999999999998" y="750.0600000000001" type="curve" smooth="yes"/>
      <point x="131.44" y="750.0600000000001"/>
      <point x="71.54" y="675.0400000000001"/>
      <point x="71.54" y="528.18" type="curve" smooth="yes"/>
      <point x="71.54" y="509.2" type="line"/>
      <point x="10.100000000000001" y="500.74" type="line"/>
      <point x="10.100000000000001" y="394.38" type="line"/>
      <point x="71.54" y="394.38" type="line"/>
    </contour>
  </outline>
</glyph>
<glyph name="g" format="2">
  <advance width="475.74"/>
  <unicode hex="0067"/>
  <anchor x="222.28" y="544.0" name="top"/>
  <anchor x="231.48000000000002" y="-212.0" name="bottom"/>
  <outline>
    <contour>
      <point x="213.46" y="-220.0" type="curve" smooth="yes"/>
      <point x="373.7" y="-220.0"/>
      <point x="459.52" y="-149.86"/>
      <point x="459.52" y="-30.50000000000001" type="curve" smooth="yes"/>
      <point x="459.52" y="63.660000000000004"/>
      <point x="405.69999999999993" y="118.96000000000001"/>
      <point x="309.5200000000001" y="118.96000000000001" type="curve" smooth="yes"/>
      <point x="188.56000000000003" y="118.96000000000001" type="line" smooth="yes"/>
      <point x="155.43999999999997" y="118.96000000000001"/>
      <point x="138.94000000000003" y="131.0"/>
      <point x="138.94000000000003" y="154.5" type="curve" smooth="yes"/>
      <point x="138.94000000000003" y="177.32"/>
      <point x="149.5" y="189.76000000000002"/>
      <point x="173.04000000000002" y="204.22" type="curve"/>
      <point x="97.95999999999998" y="227.20000000000002" type="line"/>
      <point x="57.6" y="201.39999999999998"/>
      <point x="30.240000000000006" y="165.58"/>
      <point x="30.240000000000006" y="111.54" type="curve" smooth="yes"/>
      <point x="30.240000000000006" y="38.599999999999994"/>
      <point x="87.17999999999998" y="-6.179999999999998"/>
      <point x="181.72000000000003" y="-6.179999999999998" type="curve" smooth="yes"/>
      <point x="267.34" y="-6.179999999999998" type="line" smooth="yes"/>
      <point x="310.52" y="-6.179999999999998"/>
      <point x="324.12" y="-19.159999999999997"/>
      <point x="324.12" y="-47.379999999999995" type="curve" smooth="yes"/>
      <point x="324.12" y="-83.02000000000001"/>
      <point x="289.26000000000005" y="-103.78000000000002"/>
      <point x="222.57999999999998" y="-103.78000000000002" type="curve" smooth="yes"/>
      <point x="152.14000000000001" y="-103.78000000000002"/>
      <point x="124.53999999999999" y="-86.16"/>
      <point x="124.53999999999999" y="-47.38000000000001" type="curve" smooth="yes"/>
      <point x="124.53999999999999" y="-21.86"/>
      <point x="136.27999999999997" y="-7.259999999999998"/>
      <point x="159.12" y="6.700000000000001" type="curve"/>
      <point x="82.42000000000002" y="36.16000000000001" type="line"/>
      <point x="37.1" y="12.2"/>
      <point x="10.64" y="-26.22"/>
      <point x="10.64" y="-82.08" type="curve" smooth="yes"/>
      <point x="10.64" y="-173.2"/>
      <point x="81.32" y="-220.0"/>
    </contour>
    <contour>
      <point x="223.5" y="178.38" type="curve" smooth="yes"/>
      <point x="349.86" y="178.38"/>
      <point x="415.14" y="241.92"/>
      <point x="415.14" y="366.08000000000004" type="curve" smooth="yes"/>
      <point x="415.14" y="490.53999999999996"/>
      <point x="349.86" y="554.08"/>
      <point x="223.5" y="554.08" type="curve" smooth="yes"/>
      <point x="96.84" y="554.08"/>
      <point x="31.560000000000002" y="490.53999999999996"/>
      <point x="31.560000000000002" y="366.08000000000004" type="curve" smooth="yes"/>
      <point x="31.560000000000002" y="241.92"/>
      <point x="96.84" y="178.38"/>
    </contour>
    <contour>
      <point x="223.5" y="280.2" type="curve" smooth="yes"/>
      <point x="187.2" y="280.2"/>
      <point x="170.26" y="301.2600000000001"/>
      <point x="170.26" y="366.08000000000004" type="curve" smooth="yes"/>
      <point x="170.26" y="431.5"/>
      <point x="187.2" y="452.56"/>
      <point x="223.5" y="452.56" type="curve" smooth="yes"/>
      <point x="259.8" y="452.56"/>
      <point x="276.43999999999994" y="431.5"/>
      <point x="276.43999999999994" y="366.08000000000004" type="curve" smooth="yes"/>
      <point x="276.43999999999994" y="301.2600000000001"/>
      <point x="259.8" y="280.2"/>
    </contour>
    <contour>
      <point x="384.7" y="421.24" type="line"/>
      <point x="395.09999999999997" y="441.85999999999996"/>
      <point x="409.25999999999993" y="451.9000000000001"/>
      <point x="426.78" y="451.9000000000001" type="curve" smooth="yes"/>
      <point x="437.74" y="451.9000000000001"/>
      <point x="446.78000000000003" y="450.5"/>
      <point x="455.28000000000003" y="448.34" type="curve"/>
      <point x="474.47999999999996" y="568.66" type="line"/>
      <point x="461.32000000000005" y="574.48"/>
      <point x="444.49999999999994" y="577.9799999999999"/>
      <point x="426.53999999999996" y="577.9799999999999" type="curve" smooth="yes"/>
      <point x="382.20000000000005" y="577.9799999999999"/>
      <point x="349.61999999999995" y="556.6399999999999"/>
      <point x="330.4" y="512.42" type="curve"/>
    </contour>
  </outline>
</glyph>
<glyph name="h" format="2">
  <advance width="474.33"/>
  <unicode hex="0068"/>
  <anchor x="235.69000000000003" y="395.0" name="center"/>
  <anchor x="237.09000000000003" y="0.0" name="bottom"/>
  <anchor x="241.33" y="740.0" name="top"/>
  <outline>
    <contour>
      <point x="36.050000000000004" y="0.0" type="line"/>
      <point x="182.5" y="0.0" type="line"/>
      <point x="182.5" y="402.16" type="line"/>
      <point x="204.20000000000002" y="414.1"/>
      <point x="224.93000000000004" y="421.61"/>
      <point x="246.44" y="421.61" type="curve" smooth="yes"/>
      <point x="274.65999999999997" y="421.61"/>
      <point x="292.3" y="406.14"/>
      <point x="292.3" y="368.79" type="curve" smooth="yes"/>
      <point x="292.3" y="0.0" type="line"/>
      <point x="439.21999999999997" y="0.0" type="line"/>
      <point x="439.21999999999997" y="412.03000000000003" type="line" smooth="yes"/>
      <point x="439.21999999999997" y="508.72"/>
      <point x="391.49" y="554.0"/>
      <point x="311.0" y="554.0" type="curve" smooth="yes"/>
      <point x="267.09" y="554.0"/>
      <point x="224.18000000000004" y="539.17"/>
      <point x="182.5" y="508.00999999999993" type="curve"/>
      <point x="182.5" y="740.0" type="line"/>
      <point x="36.050000000000004" y="740.0" type="line"/>
    </contour>
  </outline>
</glyph>
<glyph name="i" format="2">
  <advance width="218.4"/>
  <unicode hex="0069"/>
  <anchor x="182.14000000000001" y="0.0" name="ogonek"/>
  <anchor x="109.47999999999999" y="0.0" name="bottom"/>
  <outline>
    <contour>
      <point x="109.47999999999999" y="601.54" type="curve" smooth="yes"/>
      <point x="167.84" y="601.54"/>
      <point x="193.93999999999997" y="627.88"/>
      <point x="193.93999999999997" y="683.64" type="curve" smooth="yes"/>
      <point x="193.93999999999997" y="740.52"/>
      <point x="166.72" y="766.3"/>
      <point x="109.47999999999999" y="766.3" type="curve" smooth="yes"/>
      <point x="51.68" y="766.3"/>
      <point x="24.46" y="740.52"/>
      <point x="24.46" y="683.64" type="curve" smooth="yes"/>
      <point x="24.46" y="627.3199999999999"/>
      <point x="51.980000000000004" y="601.54"/>
    </contour>
    <contour>
      <point x="36.2" y="0.0" type="line"/>
      <point x="182.2" y="0.0" type="line"/>
      <point x="182.2" y="544.0" type="line"/>
      <point x="36.2" y="544.0" type="line"/>
    </contour>
  </outline>
</glyph>
<glyph name="j" format="2">
  <advance width="222.2"/>
  <unicode hex="006A"/>
  <outline>
    <contour>
      <point x="186.06" y="544.0" type="line"/>
      <point x="40.06" y="544.0" type="line"/>
      <point x="40.06" y="27.86" type="line" smooth="yes"/>
      <point x="40.06" y="-34.96000000000001"/>
      <point x="25.900000000000006" y="-63.660000000000004"/>
      <point x="-7.279999999999999" y="-73.26000000000002" type="curve" smooth="yes"/>
      <point x="-16.499999999999996" y="-74.82000000000001"/>
      <point x="-24.6" y="-74.4"/>
      <point x="-35.800000000000004" y="-72.56" type="curve"/>
      <point x="-49.559999999999995" y="-205.74" type="line"/>
      <point x="-22.56" y="-211.29999999999998"/>
      <point x="5.74" y="-213.28"/>
      <point x="28.879999999999995" y="-211.48" type="curve" smooth="yes"/>
      <point x="141.52" y="-200.5"/>
      <point x="186.06" y="-124.71999999999998"/>
      <point x="186.06" y="17.919999999999998" type="curve" smooth="yes"/>
    </contour>
    <contour>
      <point x="113.22" y="601.54" type="curve" smooth="yes"/>
      <point x="171.34" y="601.54"/>
      <point x="197.68" y="627.88"/>
      <point x="197.68" y="683.64" type="curve" smooth="yes"/>
      <point x="197.68" y="740.52"/>
      <point x="170.22" y="766.3"/>
      <point x="113.22" y="766.3" type="curve" smooth="yes"/>
      <point x="55.42" y="766.3"/>
      <point x="28.200000000000003" y="740.52"/>
      <point x="28.200000000000003" y="683.64" type="curve" smooth="yes"/>
      <point x="28.200000000000003" y="627.3199999999999"/>
      <point x="55.72" y="601.54"/>
    </contour>
  </outline>
</glyph>
<glyph name="k" format="2">
  <advance width="459.7"/>
  <unicode hex="006B"/>
  <anchor x="104.10000000000001" y="740.0" name="top"/>
  <anchor x="238.2" y="0.0" name="bottom"/>
  <outline>
    <contour>
      <point x="413.79999999999995" y="-9.5" type="curve" smooth="yes"/>
      <point x="426.5" y="-9.5"/>
      <point x="438.09999999999997" y="-8.5"/>
      <point x="450.7" y="-5.6000000000000005" type="curve"/>
      <point x="449.59999999999997" y="140.6" type="line"/>
      <point x="445.5" y="140.6"/>
      <point x="442.0" y="140.0"/>
      <point x="438.9" y="140.0" type="curve" smooth="yes"/>
      <point x="409.3" y="140.0"/>
      <point x="381.7" y="158.79999999999998"/>
      <point x="303.40000000000003" y="253.0" type="curve" smooth="yes"/>
      <point x="168.4" y="416.8" type="line"/>
      <point x="168.4" y="740.0" type="line"/>
      <point x="39.8" y="740.0" type="line"/>
      <point x="39.8" y="0.0" type="line"/>
      <point x="168.4" y="0.0" type="line"/>
      <point x="168.4" y="205.3" type="line"/>
      <point x="268.8" y="88.2" type="line" smooth="yes"/>
      <point x="338.2" y="6.6"/>
      <point x="368.1" y="-9.5"/>
    </contour>
    <contour>
      <point x="264.0" y="225.9" type="line"/>
      <point x="343.9" y="319.3"/>
      <point x="423.6" y="436.3"/>
      <point x="445.9" y="543.4999999999999" type="curve"/>
      <point x="313.2" y="553.0" type="line"/>
      <point x="296.2" y="450.6"/>
      <point x="243.89999999999998" y="382.3"/>
      <point x="173.3" y="305.4" type="curve"/>
    </contour>
  </outline>
</glyph>
<glyph name="l" format="2">
  <advance width="260.02"/>
  <unicode hex="006C"/>
  <anchor x="130.3" y="395.0" name="center"/>
  <anchor x="109.47999999999999" y="740.0" name="top"/>
  <anchor x="227.39999999999998" y="740.0" name="topright"/>
  <anchor x="147.9" y="0.0" name="bottom"/>
  <outline>
    <contour>
      <point x="182.2" y="740.0" type="line"/>
      <point x="36.2" y="740.0" type="line"/>
      <point x="36.2" y="162.98" type="line" smooth="yes"/>
      <point x="36.2" y="35.3"/>
      <point x="80.42" y="-10.0"/>
      <point x="171.98" y="-10.0" type="curve" smooth="yes"/>
      <point x="207.46" y="-10.0"/>
      <point x="238.84" y="0.6999999999999986"/>
      <point x="260.78" y="12.1" type="curve"/>
      <point x="249.22" y="130.84" type="line"/>
      <point x="236.07999999999998" y="127.28"/>
      <point x="225.17999999999998" y="125.35999999999999"/>
      <point x="216.64000000000001" y="125.35999999999999" type="curve" smooth="yes"/>
      <point x="195.92" y="125.35999999999999"/>
      <point x="182.2" y="134.73999999999998"/>
      <point x="182.2" y="180.06" type="curve" smooth="yes"/>
    </contour>
  </outline>
</glyph>
<glyph name="m" format="2">
  <advance width="709.66"/>
  <unicode hex="006D"/>
  <outline>
    <contour>
      <point x="36.2" y="0.0" type="line"/>
      <point x="182.76" y="0.0" type="line"/>
      <point x="182.76" y="402.82" type="line"/>
      <point x="200.76" y="413.74"/>
      <point x="219.38" y="421.06"/>
      <point x="238.6" y="421.06" type="curve" smooth="yes"/>
      <point x="268.52000000000004" y="421.06"/>
      <point x="282.26000000000005" y="400.92"/>
      <point x="282.26000000000005" y="368.64" type="curve" smooth="yes"/>
      <point x="282.26000000000005" y="0.0" type="line"/>
      <point x="428.81999999999994" y="0.0" type="line"/>
      <point x="428.81999999999994" y="377.88" type="line" smooth="yes"/>
      <point x="428.81999999999994" y="386.18000000000006"/>
      <point x="427.97999999999996" y="394.82000000000005"/>
      <point x="425.97999999999996" y="402.09999999999997" type="curve"/>
      <point x="443.98" y="412.94"/>
      <point x="463.88" y="421.5"/>
      <point x="484.67999999999995" y="421.5" type="curve" smooth="yes"/>
      <point x="514.7" y="421.5"/>
      <point x="528.0200000000001" y="401.44"/>
      <point x="528.0200000000001" y="368.88" type="curve" smooth="yes"/>
      <point x="528.0200000000001" y="0.0" type="line"/>
      <point x="674.5799999999999" y="0.0" type="line"/>
      <point x="674.5799999999999" y="414.8" type="line" smooth="yes"/>
      <point x="674.5799999999999" y="501.34"/>
      <point x="632.9" y="554.0"/>
      <point x="552.1600000000001" y="554.0" type="curve" smooth="yes"/>
      <point x="501.20000000000005" y="554.0"/>
      <point x="456.42" y="538.2"/>
      <point x="405.65999999999997" y="502.04" type="curve"/>
      <point x="386.24" y="535.66"/>
      <point x="354.20000000000005" y="553.7"/>
      <point x="304.53999999999996" y="553.7" type="curve" smooth="yes"/>
      <point x="260.09999999999997" y="553.7"/>
      <point x="216.01999999999998" y="540.34"/>
      <point x="168.9" y="506.35999999999996" type="curve"/>
      <point x="168.9" y="544.0" type="line"/>
      <point x="36.2" y="544.0" type="line"/>
    </contour>
  </outline>
</glyph>
<glyph name="n" format="2">
  <advance width="474.62"/>
  <unicode hex="006E"/>
  <anchor x="237.6" y="544.0" name="top"/>
  <anchor x="238.20000000000002" y="0.0" name="bottom"/>
  <outline>
    <contour>
      <point x="36.2" y="0.0" type="line"/>
      <point x="182.76" y="0.0" type="line"/>
      <point x="182.76" y="402.28000000000003" type="line"/>
      <point x="204.02" y="413.84000000000003"/>
      <point x="225.34" y="422.06"/>
      <point x="247.06" y="422.06" type="curve" smooth="yes"/>
      <point x="275.28000000000003" y="422.06"/>
      <point x="292.98" y="406.38"/>
      <point x="292.98" y="368.94" type="curve" smooth="yes"/>
      <point x="292.98" y="0.0" type="line"/>
      <point x="439.54" y="0.0" type="line"/>
      <point x="439.54" y="414.85999999999996" type="line" smooth="yes"/>
      <point x="439.54" y="503.43999999999994"/>
      <point x="395.88000000000005" y="554.0"/>
      <point x="311.32" y="554.0" type="curve" smooth="yes"/>
      <point x="262.94" y="554.0"/>
      <point x="219.06" y="540.44"/>
      <point x="168.9" y="505.88" type="curve"/>
      <point x="168.9" y="544.0" type="line"/>
      <point x="36.2" y="544.0" type="line"/>
    </contour>
  </outline>
</glyph>
<glyph name="o" format="2">
  <advance width="474.40000000000003"/>
  <unicode hex="006F"/>
  <anchor x="321.23999999999995" y="5.8" name="ogonek"/>
  <anchor x="237.20000000000002" y="544.0" name="top"/>
  <anchor x="359.88" y="534.6" name="topright"/>
  <anchor x="237.28" y="0.0" name="bottom"/>
  <outline>
    <contour>
      <point x="21.12" y="272.96" type="curve" smooth="yes"/>
      <point x="21.12" y="94.56"/>
      <point x="70.56" y="-10.0"/>
      <point x="237.28" y="-10.0" type="curve" smooth="yes"/>
      <point x="403.84000000000003" y="-10.0"/>
      <point x="453.28" y="94.56"/>
      <point x="453.28" y="272.96" type="curve" smooth="yes"/>
      <point x="453.28" y="448.76"/>
      <point x="407.32" y="554.0"/>
      <point x="237.28" y="554.0" type="curve" smooth="yes"/>
      <point x="66.96000000000001" y="554.0"/>
      <point x="21.12" y="448.76"/>
    </contour>
    <contour>
      <point x="172.8" y="272.88" type="curve" smooth="yes"/>
      <point x="172.8" y="400.91999999999996"/>
      <point x="188.52" y="430.08"/>
      <point x="237.20000000000002" y="430.08" type="curve" smooth="yes"/>
      <point x="285.4" y="430.08"/>
      <point x="301.48" y="400.91999999999996"/>
      <point x="301.48" y="272.88" type="curve" smooth="yes"/>
      <point x="301.48" y="143.35999999999996"/>
      <point x="283.6" y="114.47999999999999"/>
      <point x="237.20000000000002" y="114.47999999999999" type="curve" smooth="yes"/>
      <point x="190.24" y="114.47999999999999"/>
      <point x="172.8" y="143.35999999999996"/>
    </contour>
  </outline>
</glyph>
<glyph name="p" format="2">
  <advance width="476.12"/>
  <unicode hex="0070"/>
  <outline>
    <contour>
      <point x="36.2" y="-210.0" type="line"/>
      <point x="182.89999999999998" y="-210.0" type="line"/>
      <point x="182.89999999999998" y="-3.239999999999999" type="line"/>
      <point x="205.24" y="-7.72"/>
      <point x="227.92000000000002" y="-10.0"/>
      <point x="246.08" y="-10.0" type="curve" smooth="yes"/>
      <point x="386.78000000000003" y="-10.0"/>
      <point x="455.06" y="86.02"/>
      <point x="455.06" y="282.56" type="curve" smooth="yes"/>
      <point x="455.06" y="460.34"/>
      <point x="401.13999999999993" y="554.0"/>
      <point x="300.72" y="554.0" type="curve" smooth="yes"/>
      <point x="256.86" y="554.0"/>
      <point x="216.74" y="541.36"/>
      <point x="175.61999999999998" y="514.32" type="curve"/>
      <point x="168.9" y="546.4" type="line"/>
      <point x="36.2" y="546.4" type="line"/>
    </contour>
    <contour>
      <point x="230.18" y="104.56" type="curve" smooth="yes"/>
      <point x="215.51999999999998" y="104.56"/>
      <point x="200.7" y="107.39999999999999"/>
      <point x="182.76" y="113.61999999999999" type="curve"/>
      <point x="182.76" y="407.11999999999995" type="line"/>
      <point x="205.8" y="420.53999999999996"/>
      <point x="224.43999999999997" y="425.84"/>
      <point x="243.94" y="425.84" type="curve" smooth="yes"/>
      <point x="282.88" y="425.84"/>
      <point x="301.78" y="384.44"/>
      <point x="301.78" y="264.36" type="curve" smooth="yes"/>
      <point x="301.78" y="140.86"/>
      <point x="281.06" y="104.56"/>
    </contour>
  </outline>
</glyph>
<glyph name="q" format="2">
  <advance width="476.68"/>
  <unicode hex="0071"/>
  <outline>
    <contour>
      <point x="440.48" y="530.4" type="line"/>
      <point x="379.94" y="545.5400000000001"/>
      <point x="312.7" y="554.0"/>
      <point x="255.23999999999998" y="554.0" type="curve" smooth="yes"/>
      <point x="93.82000000000001" y="554.0"/>
      <point x="21.060000000000002" y="468.06"/>
      <point x="21.060000000000002" y="272.64" type="curve" smooth="yes"/>
      <point x="21.060000000000002" y="81.1"/>
      <point x="73.54" y="-10.0"/>
      <point x="179.88" y="-10.0" type="curve" smooth="yes"/>
      <point x="218.56000000000003" y="-10.0"/>
      <point x="260.36" y="3.4800000000000004"/>
      <point x="294.48" y="26.04" type="curve"/>
      <point x="294.48" y="-210.0" type="line"/>
      <point x="440.48" y="-210.0" type="line"/>
    </contour>
    <contour>
      <point x="293.92" y="432.94" type="curve"/>
      <point x="293.92" y="139.68" type="line"/>
      <point x="270.88" y="125.69999999999999"/>
      <point x="252.24" y="119.28"/>
      <point x="232.17999999999998" y="119.28" type="curve" smooth="yes"/>
      <point x="194.03999999999996" y="119.28"/>
      <point x="174.9" y="160.04"/>
      <point x="174.9" y="269.56" type="curve" smooth="yes"/>
      <point x="174.9" y="403.14"/>
      <point x="195.62" y="440.56000000000006"/>
      <point x="247.06" y="440.56000000000006" type="curve" smooth="yes"/>
      <point x="260.5" y="440.56000000000006"/>
      <point x="275.98" y="438.28"/>
    </contour>
  </outline>
</glyph>
<glyph name="r" format="2">
  <advance width="342.92"/>
  <unicode hex="0072"/>
  <anchor x="182.12" y="544.0" name="top"/>
  <anchor x="108.92" y="0.0" name="bottom"/>
  <outline>
    <contour>
      <point x="168.34" y="544.0" type="line"/>
      <point x="36.2" y="544.0" type="line"/>
      <point x="36.2" y="0.0" type="line"/>
      <point x="181.64000000000001" y="0.0" type="line"/>
      <point x="181.64000000000001" y="377.32" type="line"/>
      <point x="212.2" y="400.5"/>
      <point x="237.31999999999996" y="408.34000000000003"/>
      <point x="264.08" y="408.34000000000003" type="curve" smooth="yes"/>
      <point x="278.21999999999997" y="408.34000000000003"/>
      <point x="298.0" y="406.53999999999996"/>
      <point x="316.76" y="401.47999999999996" type="curve"/>
      <point x="341.15999999999997" y="544.38" type="line"/>
      <point x="320.12" y="551.72"/>
      <point x="301.84000000000003" y="554.0"/>
      <point x="285.68" y="554.0" type="curve" smooth="yes"/>
      <point x="238.48" y="554.0"/>
      <point x="209.36" y="535.92"/>
      <point x="168.34" y="491.66" type="curve"/>
    </contour>
  </outline>
</glyph>
<glyph name="s" format="2">
  <advance width="393.0"/>
  <unicode hex="0073"/>
  <anchor x="198.00000000000003" y="544.0" name="top"/>
  <anchor x="199.2" y="0.0" name="bottom"/>
  <outline>
    <contour>
      <point x="14.9" y="18.999999999999996" type="line"/>
      <point x="65.1" y="-1.0"/>
      <point x="117.7" y="-10.0"/>
      <point x="178.9" y="-10.0" type="curve" smooth="yes"/>
      <point x="297.50000000000006" y="-10.0"/>
      <point x="380.8" y="43.0"/>
      <point x="380.8" y="163.79999999999998" type="curve" smooth="yes"/>
      <point x="380.8" y="275.4"/>
      <point x="318.7" y="310.0"/>
      <point x="243.5" y="333.40000000000003" type="curve" smooth="yes"/>
      <point x="187.5" y="350.70000000000005"/>
      <point x="154.2" y="360.1"/>
      <point x="154.2" y="392.0" type="curve" smooth="yes"/>
      <point x="154.2" y="418.90000000000003"/>
      <point x="175.4" y="430.7"/>
      <point x="213.3" y="430.7" type="curve" smooth="yes"/>
      <point x="261.0" y="430.7"/>
      <point x="299.8999999999999" y="422.5"/>
      <point x="338.2" y="410.0" type="curve"/>
      <point x="357.8" y="528.1" type="line"/>
      <point x="320.0" y="543.5"/>
      <point x="265.79999999999995" y="554.0"/>
      <point x="211.4" y="554.0" type="curve" smooth="yes"/>
      <point x="85.70000000000002" y="554.0"/>
      <point x="18.5" y="492.8"/>
      <point x="18.5" y="378.59999999999997" type="curve" smooth="yes"/>
      <point x="18.5" y="294.09999999999997"/>
      <point x="59.1" y="245.6"/>
      <point x="132.9" y="220.89999999999998" type="curve" smooth="yes"/>
      <point x="195.20000000000002" y="200.3"/>
      <point x="241.0" y="189.50000000000003"/>
      <point x="241.0" y="153.2" type="curve" smooth="yes"/>
      <point x="241.0" y="126.39999999999998"/>
      <point x="220.2" y="110.49999999999999"/>
      <point x="177.5" y="110.49999999999999" type="curve" smooth="yes"/>
      <point x="133.1" y="110.49999999999999"/>
      <point x="68.6" y="120.39999999999999"/>
      <point x="31.199999999999996" y="134.2" type="curve"/>
    </contour>
  </outline>
</glyph>
<glyph name="t" format="2">
  <advance width="335.41999999999996"/>
  <unicode hex="0074"/>
  <anchor x="163.96" y="275.0" name="center"/>
  <anchor x="147.68" y="658.8399999999999" name="top"/>
  <anchor x="266.94" y="764.3" name="topright"/>
  <anchor x="191.23999999999998" y="0.0" name="bottom"/>
  <outline>
    <contour>
      <point x="206.96" y="-10.0" type="curve" smooth="yes"/>
      <point x="244.06" y="-10.0"/>
      <point x="288.35999999999996" y="-5.239999999999999"/>
      <point x="333.72" y="12.62" type="curve"/>
      <point x="313.08" y="129.1" type="line"/>
      <point x="292.98" y="124.0"/>
      <point x="275.4" y="121.2"/>
      <point x="259.56" y="121.2" type="curve" smooth="yes"/>
      <point x="227.26000000000002" y="121.2"/>
      <point x="211.3" y="137.27999999999997"/>
      <point x="211.3" y="189.44" type="curve" smooth="yes"/>
      <point x="211.3" y="429.18" type="line"/>
      <point x="314.82000000000005" y="429.18" type="line"/>
      <point x="314.82000000000005" y="544.0" type="line"/>
      <point x="211.3" y="544.0" type="line"/>
      <point x="211.3" y="658.8399999999999" type="line"/>
      <point x="83.82" y="658.8399999999999" type="line"/>
      <point x="65.3" y="544.0" type="line"/>
      <point x="6.0" y="536.1" type="line"/>
      <point x="6.0" y="429.74" type="line"/>
      <point x="65.3" y="429.74" type="line"/>
      <point x="65.3" y="175.16" type="line" smooth="yes"/>
      <point x="65.3" y="49.74"/>
      <point x="111.6" y="-10.0"/>
    </contour>
  </outline>
</glyph>
<glyph name="u" format="2">
  <advance width="487.48"/>
  <unicode hex="0075"/>
  <anchor x="485.82" y="13.28" name="ogonek"/>
  <anchor x="236.88" y="544.0" name="top"/>
  <anchor x="435.28000000000003" y="544.0" name="topright"/>
  <anchor x="244.28" y="0.0" name="bottom"/>
  <outline>
    <contour>
      <point x="167.38000000000002" y="-10.0" type="curve" smooth="yes"/>
      <point x="219.64000000000004" y="-10.0"/>
      <point x="263.66" y="7.479999999999999"/>
      <point x="306.22" y="36.42000000000001" type="curve"/>
      <point x="324.0" y="8.06"/>
      <point x="351.7" y="-10.0"/>
      <point x="393.96" y="-10.0" type="curve" smooth="yes"/>
      <point x="432.12" y="-10.0"/>
      <point x="462.96000000000004" y="0.31999999999999984"/>
      <point x="485.82" y="13.28" type="curve"/>
      <point x="474.26" y="130.88" type="line"/>
      <point x="468.26" y="128.26"/>
      <point x="460.98" y="126.89999999999998"/>
      <point x="454.59999999999997" y="126.89999999999998" type="curve" smooth="yes"/>
      <point x="442.68" y="126.89999999999998"/>
      <point x="435.28000000000003" y="134.2"/>
      <point x="435.28000000000003" y="159.16" type="curve" smooth="yes"/>
      <point x="435.28000000000003" y="544.0" type="line"/>
      <point x="289.28000000000003" y="544.0" type="line"/>
      <point x="289.28000000000003" y="140.82" type="line"/>
      <point x="268.03999999999996" y="128.39999999999998"/>
      <point x="247.94" y="121.38000000000001"/>
      <point x="227.02" y="121.38000000000001" type="curve" smooth="yes"/>
      <point x="199.47999999999996" y="121.38000000000001"/>
      <point x="181.64000000000001" y="136.76000000000002"/>
      <point x="181.64000000000001" y="171.9" type="curve" smooth="yes"/>
      <point x="181.64000000000001" y="544.0" type="line"/>
      <point x="35.08" y="544.0" type="line"/>
      <point x="35.08" y="141.94" type="line" smooth="yes"/>
      <point x="35.08" y="33.0"/>
      <point x="90.47999999999999" y="-10.0"/>
    </contour>
  </outline>
</glyph>
<glyph name="v" format="2">
  <advance width="475.1699999999999"/>
  <unicode hex="0076"/>
  <outline>
    <contour>
      <point x="148.11999999999998" y="0.0" type="line"/>
      <point x="325.5899999999999" y="0.0" type="line"/>
      <point x="469.28000000000003" y="543.16" type="line"/>
      <point x="313.71999999999997" y="544.84" type="line"/>
      <point x="239.89" y="134.86" type="line"/>
      <point x="162.5" y="544.84" type="line"/>
      <point x="5.539999999999999" y="543.16" type="line"/>
    </contour>
  </outline>
</glyph>
<glyph name="w" format="2">
  <advance width="676.6800000000001"/>
  <unicode hex="0077"/>
  <anchor x="338.16" y="544.0" name="top"/>
  <anchor x="338.16" y="0.0" name="bottom"/>
  <outline>
    <contour>
      <point x="103.96000000000001" y="0.0" type="line"/>
      <point x="283.42" y="0.0" type="line"/>
      <point x="337.74" y="369.54" type="line"/>
      <point x="392.92" y="0.0" type="line"/>
      <point x="569.58" y="0.0" type="line"/>
      <point x="668.82" y="542.88" type="line"/>
      <point x="523.46" y="544.74" type="line"/>
      <point x="474.58" y="136.4" type="line"/>
      <point x="416.34" y="544.0" type="line"/>
      <point x="259.84000000000003" y="544.0" type="line"/>
      <point x="202.2" y="136.32" type="line"/>
      <point x="155.18" y="544.74" type="line"/>
      <point x="7.36" y="542.88" type="line"/>
    </contour>
  </outline>
</glyph>
<glyph name="x" format="2">
  <advance width="481.64000000000004"/>
  <unicode hex="0078"/>
  <outline>
    <contour>
      <point x="4.440000000000001" y="-0.8200000000000004" type="line"/>
      <point x="172.21" y="-2.6599999999999997" type="line"/>
      <point x="242.2" y="195.46" type="line"/>
      <point x="313.11" y="-2.6599999999999997" type="line"/>
      <point x="478.37" y="-0.8200000000000004" type="line"/>
      <point x="344.66999999999996" y="277.22" type="line"/>
      <point x="470.03" y="543.1800000000001" type="line"/>
      <point x="310.21999999999997" y="545.3199999999999" type="line"/>
      <point x="244.01999999999998" y="348.81" type="line"/>
      <point x="178.61999999999998" y="545.3499999999999" type="line"/>
      <point x="14.999999999999998" y="542.95" type="line"/>
      <point x="139.61" y="276.26000000000005" type="line"/>
    </contour>
  </outline>
</glyph>
<glyph name="y" format="2">
  <advance width="478.89000000000004"/>
  <unicode hex="0079"/>
  <anchor x="232.59" y="544.0" name="top"/>
  <anchor x="412.21" y="0.0" name="bottom"/>
  <outline>
    <contour>
      <point x="126.92000000000002" y="-209.28000000000003" type="line"/>
      <point x="282.78" y="-211.32000000000002" type="line"/>
      <point x="473.10999999999996" y="543.52" type="line"/>
      <point x="316.68999999999994" y="545.08" type="line"/>
      <point x="243.28" y="126.03999999999999" type="line"/>
      <point x="167.06" y="545.08" type="line"/>
      <point x="5.779999999999999" y="543.4" type="line"/>
      <point x="159.85" y="0.0" type="line"/>
      <point x="181.51999999999998" y="0.0" type="line"/>
    </contour>
  </outline>
</glyph>
<glyph name="z" format="2">
  <advance width="423.73"/>
  <unicode hex="007A"/>
  <anchor x="214.4" y="544.0" name="top"/>
  <outline>
    <contour>
      <point x="19.49" y="0.0" type="line"/>
      <point x="405.85999999999996" y="0.0" type="line"/>
      <point x="405.85999999999996" y="123.44" type="line"/>
      <point x="188.77999999999997" y="123.44" type="line"/>
      <point x="394.53999999999996" y="434.85" type="line"/>
      <point x="394.53999999999996" y="544.0" type="line"/>
      <point x="28.770000000000003" y="544.0" type="line"/>
      <point x="28.770000000000003" y="421.8" type="line"/>
      <point x="227.4" y="421.8" type="line"/>
      <point x="19.49" y="110.86000000000001" type="line"/>
    </contour>
  </outline>
</glyph>
<glyph name="braceleft" format="2">
  <advance width="278.35999999999996"/>
  <unicode hex="007B"/>
  <outline>
    <contour>
      <point x="51.94000000000001" y="-45.32000000000001" type="curve" smooth="yes"/>
      <point x="51.94000000000001" y="-158.04"/>
      <point x="110.66" y="-210.56"/>
      <point x="186.79999999999998" y="-210.56" type="curve" smooth="yes"/>
      <point x="258.24" y="-210.56" type="line"/>
      <point x="258.24" y="-99.56" type="line"/>
      <point x="223.2" y="-99.56" type="line" smooth="yes"/>
      <point x="188.2" y="-99.56"/>
      <point x="174.42" y="-69.64"/>
      <point x="174.42" y="-27.82" type="curve" smooth="yes"/>
      <point x="174.42" y="27.42"/>
      <point x="202.66000000000003" y="77.96"/>
      <point x="202.66000000000003" y="140.64" type="curve" smooth="yes"/>
      <point x="202.66000000000003" y="184.68"/>
      <point x="189.98000000000002" y="233.68"/>
      <point x="142.18" y="265.0" type="curve"/>
      <point x="189.92000000000002" y="296.36"/>
      <point x="202.66000000000003" y="344.64"/>
      <point x="202.66000000000003" y="388.68" type="curve" smooth="yes"/>
      <point x="202.66000000000003" y="449.92"/>
      <point x="174.42" y="500.16"/>
      <point x="174.42" y="557.14" type="curve" smooth="yes"/>
      <point x="174.42" y="598.96"/>
      <point x="188.2" y="629.0"/>
      <point x="223.2" y="629.0" type="curve" smooth="yes"/>
      <point x="258.24" y="629.0" type="line"/>
      <point x="258.24" y="740.0" type="line"/>
      <point x="186.79999999999998" y="740.0" type="line" smooth="yes"/>
      <point x="110.66" y="740.0"/>
      <point x="51.94000000000001" y="687.36"/>
      <point x="51.94000000000001" y="574.64" type="curve" smooth="yes"/>
      <point x="51.94000000000001" y="485.3"/>
      <point x="85.78" y="436.26"/>
      <point x="85.78" y="382.38" type="curve" smooth="yes"/>
      <point x="85.78" y="348.4"/>
      <point x="78.06" y="322.6"/>
      <point x="51.339999999999996" y="322.6" type="curve" smooth="yes"/>
      <point x="33.56" y="322.6" type="line"/>
      <point x="33.56" y="206.83999999999997" type="line"/>
      <point x="51.339999999999996" y="206.83999999999997" type="line" smooth="yes"/>
      <point x="78.06" y="206.83999999999997"/>
      <point x="85.78" y="181.16"/>
      <point x="85.78" y="146.94" type="curve" smooth="yes"/>
      <point x="85.78" y="92.46000000000001"/>
      <point x="51.94000000000001" y="42.22"/>
    </contour>
  </outline>
</glyph>
<glyph name="bar" format="2">
  <advance width="189.76000000000002"/>
  <unicode hex="007C"/>
  <outline>
    <contour>
      <point x="155.98" y="790.5600000000001" type="line"/>
      <point x="33.78" y="790.5600000000001" type="line"/>
      <point x="33.78" y="-210.0" type="line"/>
      <point x="155.98" y="-210.0" type="line"/>
    </contour>
  </outline>
</glyph>
<glyph name="braceright" format="2">
  <advance width="278.35999999999996"/>
  <unicode hex="007D"/>
  <outline>
    <contour>
      <point x="20.120000000000005" y="-99.56" type="line"/>
      <point x="20.120000000000005" y="-210.56" type="line"/>
      <point x="91.79999999999998" y="-210.56" type="line" smooth="yes"/>
      <point x="167.94" y="-210.56"/>
      <point x="226.66" y="-158.04"/>
      <point x="226.66" y="-45.32000000000001" type="curve" smooth="yes"/>
      <point x="226.66" y="42.22"/>
      <point x="192.82000000000002" y="92.46000000000001"/>
      <point x="192.82000000000002" y="146.94" type="curve" smooth="yes"/>
      <point x="192.82000000000002" y="181.16"/>
      <point x="200.54000000000002" y="206.83999999999997"/>
      <point x="227.26" y="206.83999999999997" type="curve" smooth="yes"/>
      <point x="244.79999999999998" y="206.83999999999997" type="line"/>
      <point x="244.79999999999998" y="322.6" type="line"/>
      <point x="227.26" y="322.6" type="line" smooth="yes"/>
      <point x="200.3" y="322.6"/>
      <point x="192.82000000000002" y="348.4"/>
      <point x="192.82000000000002" y="382.38" type="curve" smooth="yes"/>
      <point x="192.82000000000002" y="436.26"/>
      <point x="226.66" y="485.3"/>
      <point x="226.66" y="574.64" type="curve" smooth="yes"/>
      <point x="226.66" y="687.36"/>
      <point x="167.94" y="740.0"/>
      <point x="91.79999999999998" y="740.0" type="curve" smooth="yes"/>
      <point x="20.120000000000005" y="740.0" type="line"/>
      <point x="20.120000000000005" y="629.0" type="line"/>
      <point x="45.879999999999995" y="629.0" type="line" smooth="yes"/>
      <point x="80.64" y="629.0"/>
      <point x="94.66" y="598.96"/>
      <point x="94.66" y="557.14" type="curve" smooth="yes"/>
      <point x="94.66" y="500.16"/>
      <point x="66.42" y="449.92"/>
      <point x="66.42" y="388.68" type="curve" smooth="yes"/>
      <point x="66.42" y="344.64"/>
      <point x="78.92" y="296.36"/>
      <point x="126.89999999999999" y="265.0" type="curve"/>
      <point x="78.86" y="233.68"/>
      <point x="66.42" y="184.68"/>
      <point x="66.42" y="140.64" type="curve" smooth="yes"/>
      <point x="66.42" y="77.96"/>
      <point x="94.66" y="27.42"/>
      <point x="94.66" y="-27.82" type="curve" smooth="yes"/>
      <point x="94.66" y="-69.64"/>
      <point x="80.64" y="-99.56"/>
      <point x="45.879999999999995" y="-99.56" type="curve" smooth="yes"/>
    </contour>
  </outline>
</glyph>
<glyph name="asciitilde" format="2">
  <advance width="467.08"/>
  <unicode hex="007E"/>
  <outline>
    <contour>
      <point x="412.09999999999997" y="239.45999999999998" type="curve"/>
      <point x="412.09999999999997" y="363.09999999999997" type="line"/>
      <point x="387.42" y="338.16"/>
      <point x="361.76" y="327.59999999999997"/>
      <point x="330.82000000000005" y="327.59999999999997" type="curve" smooth="yes"/>
      <point x="251.06" y="327.59999999999997"/>
      <point x="216.12" y="410.36"/>
      <point x="141.26" y="410.36" type="curve" smooth="yes"/>
      <point x="97.06" y="410.36"/>
      <point x="65.08000000000001" y="387.97999999999996"/>
      <point x="55.36" y="376.41999999999996" type="curve"/>
      <point x="55.36" y="252.72" type="line"/>
      <point x="69.16" y="267.18"/>
      <point x="99.56" y="287.6"/>
      <point x="139.6" y="287.6" type="curve" smooth="yes"/>
      <point x="212.88" y="287.6"/>
      <point x="249.73999999999998" y="204.7"/>
      <point x="330.84" y="204.7" type="curve" smooth="yes"/>
      <point x="362.0" y="204.7"/>
      <point x="388.71999999999997" y="215.86"/>
    </contour>
  </outline>
</glyph>
<glyph name="exclamdown" format="2">
  <advance width="214.12"/>
  <unicode hex="00A1"/>
  <outline>
    <contour>
      <point x="171.23999999999998" y="283.36" type="line"/>
      <point x="44.980000000000004" y="283.36" type="line"/>
      <point x="33.22000000000001" y="-196.14" type="line"/>
      <point x="181.32000000000002" y="-196.14" type="line"/>
    </contour>
    <contour>
      <point x="186.33999999999997" y="464.42" type="curve" smooth="yes"/>
      <point x="186.33999999999997" y="523.4"/>
      <point x="164.3" y="551.0"/>
      <point x="107.06" y="551.0" type="curve" smooth="yes"/>
      <point x="50.120000000000005" y="551.0"/>
      <point x="27.78000000000001" y="523.4"/>
      <point x="27.78000000000001" y="464.42" type="curve" smooth="yes"/>
      <point x="27.78000000000001" y="404.73999999999995"/>
      <point x="49.82000000000001" y="377.14"/>
      <point x="107.06" y="377.14" type="curve" smooth="yes"/>
      <point x="164.3" y="377.14"/>
      <point x="186.33999999999997" y="404.73999999999995"/>
    </contour>
  </outline>
</glyph>
<glyph name="cent" format="2">
  <advance width="504.23999999999995"/>
  <unicode hex="00A2"/>
  <outline>
    <contour>
      <point x="279.68" y="-10.559999999999999" type="curve" smooth="yes"/>
      <point x="333.48" y="-10.559999999999999"/>
      <point x="390.56" y="-1.9000000000000004"/>
      <point x="432.88000000000005" y="13.3" type="curve"/>
      <point x="406.90000000000003" y="142.2" type="line"/>
      <point x="373.2" y="133.88"/>
      <point x="343.88" y="130.16"/>
      <point x="315.84" y="130.16" type="curve" smooth="yes"/>
      <point x="257.12" y="130.16"/>
      <point x="225.72" y="173.79999999999998"/>
      <point x="225.72" y="266.42" type="curve" smooth="yes"/>
      <point x="225.72" y="368.96"/>
      <point x="256.22" y="412.58"/>
      <point x="316.90000000000003" y="412.58" type="curve" smooth="yes"/>
      <point x="347.64" y="412.58"/>
      <point x="374.0" y="408.2"/>
      <point x="402.1" y="401.74" type="curve"/>
      <point x="424.9599999999999" y="536.38" type="line"/>
      <point x="390.78000000000003" y="545.44"/>
      <point x="342.28000000000003" y="555.12"/>
      <point x="285.82" y="555.12" type="curve" smooth="yes"/>
      <point x="127.56000000000002" y="555.12"/>
      <point x="74.96000000000001" y="429.7"/>
      <point x="74.96000000000001" y="262.21999999999997" type="curve" smooth="yes"/>
      <point x="74.96000000000001" y="80.52"/>
      <point x="142.17999999999998" y="-10.559999999999999"/>
    </contour>
    <contour>
      <point x="209.08" y="-105.56" type="line"/>
      <point x="333.38" y="-105.56" type="line"/>
      <point x="333.38" y="7.519999999999999" type="line"/>
      <point x="209.08" y="14.06" type="line"/>
    </contour>
    <contour>
      <point x="209.08" y="527.8199999999999" type="line"/>
      <point x="333.38" y="538.3599999999999" type="line"/>
      <point x="333.38" y="648.4399999999999" type="line"/>
      <point x="209.08" y="648.4399999999999" type="line"/>
    </contour>
  </outline>
</glyph>
<glyph name="sterling" format="2">
  <advance width="504.59999999999997"/>
  <unicode hex="00A3"/>
  <outline>
    <contour>
      <point x="64.39999999999999" y="0.0" type="line"/>
      <point x="448.94" y="0.0" type="line"/>
      <point x="448.94" y="123.9" type="line"/>
      <point x="226.99999999999997" y="123.9" type="line"/>
      <point x="263.24000000000007" y="163.52"/>
      <point x="294.66" y="203.24"/>
      <point x="294.66" y="265.81999999999994" type="curve" smooth="yes"/>
      <point x="294.66" y="342.04"/>
      <point x="243.89999999999998" y="404.84000000000003"/>
      <point x="243.89999999999998" y="474.4" type="curve" smooth="yes"/>
      <point x="243.89999999999998" y="547.0400000000001"/>
      <point x="283.0" y="573.5000000000001"/>
      <point x="331.09999999999997" y="573.5000000000001" type="curve" smooth="yes"/>
      <point x="364.68" y="573.5000000000001"/>
      <point x="396.26" y="568.28"/>
      <point x="422.92" y="559.9000000000002" type="curve"/>
      <point x="444.85999999999996" y="679.48" type="line"/>
      <point x="404.94" y="699.5000000000002"/>
      <point x="354.08000000000004" y="710.0"/>
      <point x="303.09999999999997" y="710.0" type="curve" smooth="yes"/>
      <point x="164.96" y="710.0"/>
      <point x="91.94" y="633.9200000000001"/>
      <point x="91.94" y="520.12" type="curve" smooth="yes"/>
      <point x="91.94" y="402.32"/>
      <point x="155.6" y="355.92"/>
      <point x="155.6" y="253.46000000000004" type="curve" smooth="yes"/>
      <point x="155.6" y="199.88000000000002"/>
      <point x="128.05999999999997" y="152.42000000000004"/>
      <point x="64.39999999999999" y="95.89999999999999" type="curve"/>
    </contour>
    <contour>
      <point x="56.74" y="312.48" type="line"/>
      <point x="405.15999999999997" y="312.48" type="line"/>
      <point x="405.15999999999997" y="396.38" type="line"/>
      <point x="56.74" y="396.38" type="line"/>
    </contour>
  </outline>
</glyph>
<glyph name="currency" format="2">
  <advance width="448.9"/>
  <unicode hex="00A4"/>
  <outline>
    <contour>
      <point x="30.119999999999997" y="405.08" type="line"/>
      <point x="85.08" y="349.12" type="line"/>
      <point x="77.28" y="333.26"/>
      <point x="72.55999999999999" y="315.15999999999997"/>
      <point x="72.55999999999999" y="295.58" type="curve" smooth="yes"/>
      <point x="72.55999999999999" y="275.3"/>
      <point x="77.28" y="255.94"/>
      <point x="86.08" y="239.52" type="curve"/>
      <point x="30.119999999999997" y="183.56" type="line"/>
      <point x="113.84" y="99.84" type="line"/>
      <point x="176.51999999999998" y="162.38" type="line"/>
      <point x="190.28" y="154.98"/>
      <point x="207.4" y="151.67999999999998"/>
      <point x="225.56" y="151.67999999999998" type="curve" smooth="yes"/>
      <point x="242.88" y="151.67999999999998"/>
      <point x="258.76" y="155.12"/>
      <point x="272.24" y="161.95999999999998" type="curve"/>
      <point x="335.06" y="99.84" type="line"/>
      <point x="418.78" y="183.56" type="line"/>
      <point x="364.36" y="237.42000000000002" type="line"/>
      <point x="373.44" y="254.82"/>
      <point x="378.72" y="274.46000000000004"/>
      <point x="378.72" y="295.58" type="curve" smooth="yes"/>
      <point x="378.72" y="315.44"/>
      <point x="373.58000000000004" y="334.38"/>
      <point x="364.92" y="351.22" type="curve"/>
      <point x="418.78" y="405.08" type="line"/>
      <point x="335.06" y="488.8" type="line"/>
      <point x="274.48" y="428.21999999999997" type="line"/>
      <point x="260.44" y="435.2"/>
      <point x="243.74" y="439.5"/>
      <point x="225.56" y="439.5" type="curve" smooth="yes"/>
      <point x="205.98000000000002" y="439.5"/>
      <point x="188.85999999999999" y="434.64"/>
      <point x="173.98" y="427.8" type="curve"/>
      <point x="113.84" y="488.8" type="line"/>
    </contour>
    <contour>
      <point x="225.42" y="240.28" type="curve" smooth="yes"/>
      <point x="193.38" y="240.28"/>
      <point x="170.68" y="262.84"/>
      <point x="170.68" y="295.02000000000004" type="curve" smooth="yes"/>
      <point x="170.68" y="325.96"/>
      <point x="193.24" y="350.34"/>
      <point x="225.42" y="350.34" type="curve" smooth="yes"/>
      <point x="257.9" y="350.34"/>
      <point x="280.59999999999997" y="325.96"/>
      <point x="280.59999999999997" y="295.02000000000004" type="curve" smooth="yes"/>
      <point x="280.59999999999997" y="262.84"/>
      <point x="257.76" y="240.28"/>
    </contour>
  </outline>
</glyph>
<glyph name="yen" format="2">
  <advance width="517.0"/>
  <unicode hex="00A5"/>
  <outline>
    <contour>
      <point x="57.6" y="304.20000000000005" type="line"/>
      <point x="191.0" y="304.20000000000005" type="line"/>
      <point x="191.0" y="257.40000000000003" type="line"/>
      <point x="57.6" y="257.40000000000003" type="line"/>
      <point x="57.6" y="180.2" type="line"/>
      <point x="191.0" y="180.2" type="line"/>
      <point x="191.0" y="0.0" type="line"/>
      <point x="329.1" y="0.0" type="line"/>
      <point x="329.1" y="180.2" type="line"/>
      <point x="463.09999999999997" y="180.2" type="line"/>
      <point x="463.09999999999997" y="257.40000000000003" type="line"/>
      <point x="329.1" y="257.40000000000003" type="line"/>
      <point x="329.1" y="304.20000000000005" type="line"/>
      <point x="463.09999999999997" y="304.20000000000005" type="line"/>
      <point x="463.09999999999997" y="381.1" type="line"/>
      <point x="329.1" y="381.1" type="line"/>
      <point x="498.49999999999994" y="698.4000000000001" type="line"/>
      <point x="347.69999999999993" y="701.9" type="line"/>
      <point x="260.09999999999997" y="470.69999999999993" type="line"/>
      <point x="169.6" y="701.9" type="line"/>
      <point x="18.800000000000004" y="698.4000000000001" type="line"/>
      <point x="191.0" y="381.1" type="line"/>
      <point x="57.6" y="381.1" type="line"/>
    </contour>
  </outline>
</glyph>
<glyph name="brokenbar" format="2">
  <advance width="189.2"/>
  <unicode hex="00A6"/>
  <outline>
    <contour>
      <point x="155.42" y="391.0" type="line"/>
      <point x="155.42" y="790.5600000000001" type="line"/>
      <point x="33.78" y="790.5600000000001" type="line"/>
      <point x="33.78" y="391.0" type="line"/>
    </contour>
    <contour>
      <point x="33.78" y="190.56" type="line"/>
      <point x="33.78" y="-210.0" type="line"/>
      <point x="155.42" y="-210.0" type="line"/>
      <point x="155.42" y="190.56" type="line"/>
    </contour>
  </outline>
</glyph>
<glyph name="section" format="2">
  <advance width="489.89"/>
  <unicode hex="00A7"/>
  <outline>
    <contour>
      <point x="197.76" y="-220.77" type="curve" smooth="yes"/>
      <point x="351.44000000000005" y="-220.77"/>
      <point x="452.47999999999996" y="-101.57000000000001"/>
      <point x="452.47999999999996" y="65.25000000000001" type="curve" smooth="yes"/>
      <point x="452.47999999999996" y="140.95"/>
      <point x="431.62000000000006" y="230.59999999999997"/>
      <point x="374.00999999999993" y="357.81" type="curve" smooth="yes"/>
      <point x="325.86" y="469.69999999999993"/>
      <point x="309.1600000000001" y="508.9199999999999"/>
      <point x="309.1600000000001" y="542.1400000000001" type="curve" smooth="yes"/>
      <point x="309.1600000000001" y="578.63"/>
      <point x="329.08000000000004" y="600.8299999999999"/>
      <point x="363.57" y="600.8299999999999" type="curve" smooth="yes"/>
      <point x="377.08" y="600.8299999999999"/>
      <point x="389.95" y="598.53"/>
      <point x="406.11" y="591.0100000000001" type="curve"/>
      <point x="433.47999999999996" y="725.4599999999999" type="line"/>
      <point x="399.72999999999996" y="741.0400000000001"/>
      <point x="354.15000000000003" y="749.8500000000001"/>
      <point x="308.74" y="749.8500000000001" type="curve" smooth="yes"/>
      <point x="140.35000000000002" y="749.8500000000001"/>
      <point x="36.84" y="645.3399999999999"/>
      <point x="40.58" y="476.85" type="curve" smooth="yes"/>
      <point x="42.29" y="396.77"/>
      <point x="55.98" y="321.63000000000005"/>
      <point x="122.66" y="173.45000000000002" type="curve" smooth="yes"/>
      <point x="168.09" y="67.11000000000001"/>
      <point x="188.73" y="25.289999999999996"/>
      <point x="188.73000000000002" y="-15.160000000000002" type="curve" smooth="yes"/>
      <point x="188.73" y="-52.760000000000005"/>
      <point x="166.01" y="-72.01"/>
      <point x="129.56" y="-72.01" type="curve" smooth="yes"/>
      <point x="107.96" y="-72.01"/>
      <point x="87.61" y="-65.6"/>
      <point x="64.69" y="-48.440000000000005" type="curve"/>
      <point x="37.129999999999995" y="-180.72" type="line"/>
      <point x="80.67" y="-206.98999999999998"/>
      <point x="135.41" y="-220.77"/>
    </contour>
    <contour>
      <point x="193.68" y="-132.46000000000004" type="curve" smooth="yes"/>
      <point x="173.32" y="-132.46000000000004"/>
      <point x="154.03" y="-128.29"/>
      <point x="134.95" y="-118.77" type="curve"/>
      <point x="171.01000000000002" y="-142.28000000000003" type="line"/>
      <point x="243.98000000000002" y="-140.87"/>
      <point x="292.68" y="-88.45"/>
      <point x="292.68" y="-12.650000000000011" type="curve" smooth="yes"/>
      <point x="292.68" y="40.44999999999999"/>
      <point x="276.03000000000003" y="100.9"/>
      <point x="223.73999999999998" y="221.29999999999998" type="curve" smooth="yes"/>
      <point x="167.44" y="352.57"/>
      <point x="147.97" y="414.12"/>
      <point x="147.97" y="490.45000000000005" type="curve" smooth="yes"/>
      <point x="147.97" y="582.84"/>
      <point x="195.79" y="642.2800000000001"/>
      <point x="259.21000000000004" y="642.2800000000001" type="curve" smooth="yes"/>
      <point x="277.7200000000001" y="642.2800000000001"/>
      <point x="289.58000000000004" y="638.85"/>
      <point x="304.84999999999997" y="629.1800000000001" type="curve"/>
      <point x="283.27" y="658.53" type="line"/>
      <point x="239.17999999999998" y="650.36"/>
      <point x="203.98" y="604.65"/>
      <point x="203.68" y="548.9699999999999" type="curve" smooth="yes"/>
      <point x="203.68" y="496.68"/>
      <point x="217.55000000000004" y="444.47"/>
      <point x="270.77" y="321.71" type="curve" smooth="yes"/>
      <point x="333.45" y="174.64000000000001"/>
      <point x="349.4" y="112.85999999999999"/>
      <point x="349.4" y="50.67" type="curve" smooth="yes"/>
      <point x="349.4" y="-53.27000000000001"/>
      <point x="294.36" y="-132.46"/>
    </contour>
  </outline>
</glyph>
<glyph name="copyright" format="2">
  <advance width="668.28"/>
  <unicode hex="00A9"/>
  <outline>
    <contour>
      <point x="334.2" y="39.919999999999995" type="curve" smooth="yes"/>
      <point x="173.20000000000002" y="39.919999999999995"/>
      <point x="89.96000000000001" y="150.56"/>
      <point x="89.96000000000001" y="350.28" type="curve" smooth="yes"/>
      <point x="89.96000000000001" y="550.52"/>
      <point x="173.40000000000003" y="660.1599999999999"/>
      <point x="334.2" y="660.1599999999999" type="curve" smooth="yes"/>
      <point x="496.56000000000006" y="660.1599999999999"/>
      <point x="577.7600000000001" y="550.52"/>
      <point x="577.7600000000001" y="350.28" type="curve" smooth="yes"/>
      <point x="577.7600000000001" y="150.56"/>
      <point x="496.7600000000001" y="39.919999999999995"/>
    </contour>
    <contour>
      <point x="334.2" y="710.0" type="curve" smooth="yes"/>
      <point x="142.35999999999999" y="710.0"/>
      <point x="36.800000000000004" y="574.68"/>
      <point x="36.800000000000004" y="350.28" type="curve" smooth="yes"/>
      <point x="36.800000000000004" y="126.84"/>
      <point x="142.0" y="-10.0"/>
      <point x="334.2" y="-10.0" type="curve" smooth="yes"/>
      <point x="526.28" y="-10.0"/>
      <point x="631.4800000000001" y="126.84"/>
      <point x="631.4800000000001" y="350.28" type="curve" smooth="yes"/>
      <point x="631.4800000000001" y="574.68"/>
      <point x="526.04" y="710.0"/>
    </contour>
    <contour>
      <point x="196.16" y="348.04" type="curve" smooth="yes"/>
      <point x="196.16" y="204.20000000000002"/>
      <point x="250.44" y="139.36"/>
      <point x="341.12" y="139.36" type="curve" smooth="yes"/>
      <point x="375.84000000000003" y="139.36"/>
      <point x="410.88" y="144.20000000000002"/>
      <point x="442.2" y="158.16000000000003" type="curve"/>
      <point x="427.16" y="244.12" type="line"/>
      <point x="403.43999999999994" y="237.03999999999996"/>
      <point x="379.44000000000005" y="232.56000000000003"/>
      <point x="355.31999999999994" y="232.56000000000003" type="curve" smooth="yes"/>
      <point x="313.84000000000003" y="232.56000000000003"/>
      <point x="299.92" y="263.92"/>
      <point x="299.92" y="345.00000000000006" type="curve" smooth="yes"/>
      <point x="299.92" y="440.28"/>
      <point x="318.04" y="470.88"/>
      <point x="360.4" y="470.88" type="curve" smooth="yes"/>
      <point x="379.32" y="470.88"/>
      <point x="407.44" y="465.44"/>
      <point x="425.96" y="460.24" type="curve"/>
      <point x="443.24" y="544.8400000000001" type="line"/>
      <point x="416.56000000000006" y="558.5199999999999"/>
      <point x="378.40000000000003" y="564.36"/>
      <point x="343.68000000000006" y="564.36" type="curve" smooth="yes"/>
      <point x="256.32" y="564.36"/>
      <point x="196.16" y="509.52000000000004"/>
    </contour>
  </outline>
</glyph>
<glyph name="ordfeminine" format="2">
  <advance width="330.26"/>
  <unicode hex="00AA"/>
  <outline>
    <contour>
      <point x="32.96" y="243.68" type="line"/>
      <point x="304.28" y="243.68" type="line"/>
      <point x="304.28" y="318.67999999999995" type="line"/>
      <point x="32.96" y="318.67999999999995" type="line"/>
    </contour>
    <component base="a.superior" xOffset="9.379999999999999"/>
  </outline>
</glyph>
<glyph name="logicalnot" format="2">
  <advance width="467.08"/>
  <unicode hex="00AC"/>
  <outline>
    <contour>
      <point x="46.019999999999996" y="315.26000000000005" type="line"/>
      <point x="297.0" y="315.26000000000005" type="line"/>
      <point x="297.0" y="174.62" type="line"/>
      <point x="421.3" y="174.62" type="line"/>
      <point x="421.3" y="439.56" type="line"/>
      <point x="46.019999999999996" y="439.56" type="line"/>
    </contour>
  </outline>
</glyph>
<glyph name="registered" format="2">
  <advance width="639.1300000000001"/>
  <unicode hex="00AE"/>
  <outline>
    <contour>
      <point x="317.58000000000004" y="207.65" type="curve" smooth="yes"/>
      <point x="502.4" y="207.65"/>
      <point x="602.3299999999999" y="336.94"/>
      <point x="602.3299999999999" y="550.4100000000001" type="curve" smooth="yes"/>
      <point x="602.3299999999999" y="763.65"/>
      <point x="502.46" y="892.47"/>
      <point x="317.58000000000004" y="892.47" type="curve" smooth="yes"/>
      <point x="135.45" y="892.47"/>
      <point x="36.800000000000004" y="763.65"/>
      <point x="36.800000000000004" y="550.4100000000001" type="curve" smooth="yes"/>
      <point x="36.800000000000004" y="338.17"/>
      <point x="135.04" y="207.65"/>
    </contour>
    <contour>
      <point x="317.58000000000004" y="254.9" type="curve" smooth="yes"/>
      <point x="164.73999999999998" y="254.9"/>
      <point x="87.33" y="360.83"/>
      <point x="87.33" y="550.4100000000001" type="curve" smooth="yes"/>
      <point x="87.33" y="740.58"/>
      <point x="164.68" y="845.1000000000001"/>
      <point x="317.58000000000004" y="845.1000000000001" type="curve" smooth="yes"/>
      <point x="474.80000000000007" y="845.1000000000001"/>
      <point x="551.34" y="740.64"/>
      <point x="551.34" y="550.4100000000001" type="curve" smooth="yes"/>
      <point x="551.34" y="360.42"/>
      <point x="474.45000000000005" y="254.9"/>
    </contour>
    <contour>
      <point x="446.77000000000004" y="361.2499999999999" type="curve" smooth="yes"/>
      <point x="451.46" y="361.2499999999999"/>
      <point x="457.5400000000001" y="361.2499999999999"/>
      <point x="462.36" y="361.8399999999999" type="curve"/>
      <point x="461.64000000000004" y="454.92" type="line"/>
      <point x="460.05000000000007" y="454.67999999999995"/>
      <point x="457.88000000000005" y="454.67999999999995"/>
      <point x="455.88" y="454.67999999999995" type="curve" smooth="yes"/>
      <point x="430.71000000000004" y="454.96999999999997"/>
      <point x="413.00999999999993" y="481.13"/>
      <point x="397.13" y="518.17" type="curve"/>
      <point x="435.75999999999993" y="533.1600000000001"/>
      <point x="453.77000000000004" y="576.4800000000001"/>
      <point x="453.77000000000004" y="632.52" type="curve" smooth="yes"/>
      <point x="453.77000000000004" y="715.0"/>
      <point x="411.0300000000001" y="751.9499999999999"/>
      <point x="323.78999999999996" y="751.9499999999999" type="curve" smooth="yes"/>
      <point x="286.77" y="751.9499999999999"/>
      <point x="248.38000000000002" y="749.6600000000001"/>
      <point x="202.46" y="746.13" type="curve"/>
      <point x="202.46" y="365.63999999999993" type="line"/>
      <point x="291.37" y="365.63999999999993" type="line"/>
      <point x="291.37" y="489.48" type="line"/>
      <point x="296.9099999999999" y="489.24"/>
      <point x="302.14000000000004" y="488.88"/>
      <point x="307.14000000000004" y="488.88" type="curve" smooth="yes"/>
      <point x="310.68" y="488.88"/>
      <point x="313.23" y="488.88"/>
      <point x="316.42" y="489.12" type="curve"/>
      <point x="356.89" y="374.80999999999995"/>
      <point x="398.43999999999994" y="361.5999999999999"/>
    </contour>
    <contour>
      <point x="316.12" y="549.7399999999999" type="curve" smooth="yes"/>
      <point x="308.72999999999996" y="549.7399999999999"/>
      <point x="302.22" y="549.8"/>
      <point x="291.37" y="550.74" type="curve"/>
      <point x="291.37" y="671.34" type="line"/>
      <point x="306.34000000000003" y="673.4"/>
      <point x="313.12" y="673.64"/>
      <point x="323.28" y="673.64" type="curve" smooth="yes"/>
      <point x="356.52" y="673.64"/>
      <point x="362.0" y="654.69"/>
      <point x="362.0" y="618.32" type="curve" smooth="yes"/>
      <point x="362.0" y="570.6999999999999"/>
      <point x="354.38" y="549.7399999999999"/>
    </contour>
  </outline>
</glyph>
<glyph name="degree" format="2">
  <advance width="317.59999999999997"/>
  <unicode hex="00B0"/>
  <outline>
    <contour>
      <point x="158.56" y="408.0" type="curve" smooth="yes"/>
      <point x="249.35999999999999" y="408.0"/>
      <point x="292.08" y="477.16"/>
      <point x="292.08" y="561.4" type="curve" smooth="yes"/>
      <point x="292.08" y="640.8"/>
      <point x="253.92" y="715.4"/>
      <point x="158.56" y="715.4" type="curve" smooth="yes"/>
      <point x="63.080000000000005" y="715.4"/>
      <point x="25.52" y="640.8"/>
      <point x="25.52" y="561.4" type="curve" smooth="yes"/>
      <point x="25.52" y="477.16"/>
      <point x="67.76" y="408.0"/>
    </contour>
    <contour>
      <point x="158.56" y="505.92" type="curve" smooth="yes"/>
      <point x="133.35999999999999" y="505.92"/>
      <point x="119.24" y="528.48"/>
      <point x="119.24" y="560.7599999999999" type="curve" smooth="yes"/>
      <point x="119.24" y="591.52"/>
      <point x="132.51999999999998" y="614.8"/>
      <point x="158.56" y="614.8" type="curve" smooth="yes"/>
      <point x="184.48" y="614.8"/>
      <point x="198.48" y="591.52"/>
      <point x="198.48" y="560.7599999999999" type="curve" smooth="yes"/>
      <point x="198.48" y="528.48"/>
      <point x="183.76" y="505.92"/>
    </contour>
  </outline>
</glyph>
<glyph name="plusminus" format="2">
  <advance width="474.76000000000005"/>
  <unicode hex="00B1"/>
  <outline>
    <contour>
      <point x="45.06" y="21.46" type="line"/>
      <point x="429.7" y="21.46" type="line"/>
      <point x="429.7" y="145.76" type="line"/>
      <point x="302.26" y="145.76" type="line"/>
      <point x="302.26" y="267.62" type="line"/>
      <point x="429.7" y="267.62" type="line"/>
      <point x="429.7" y="391.92" type="line"/>
      <point x="302.26" y="391.92" type="line"/>
      <point x="302.26" y="515.7" type="line"/>
      <point x="172.36" y="515.7" type="line"/>
      <point x="172.36" y="391.92" type="line"/>
      <point x="45.06" y="391.92" type="line"/>
      <point x="45.06" y="267.62" type="line"/>
      <point x="172.36" y="267.62" type="line"/>
      <point x="172.36" y="145.76" type="line"/>
      <point x="45.06" y="145.76" type="line"/>
    </contour>
  </outline>
</glyph>
<glyph name="uni00B2" format="2">
  <advance width="326.15999999999997"/>
  <unicode hex="00B2"/>
  <outline>
    <contour>
      <point x="40.040000000000006" y="370.0" type="line"/>
      <point x="292.78" y="370.0" type="line"/>
      <point x="292.78" y="443.26" type="line"/>
      <point x="165.11999999999998" y="443.26" type="line"/>
      <point x="249.04000000000002" y="541.06"/>
      <point x="272.28" y="589.46"/>
      <point x="272.28" y="649.6200000000001" type="curve" smooth="yes"/>
      <point x="272.28" y="730.1800000000001"/>
      <point x="226.4" y="774.6599999999999"/>
      <point x="149.7" y="774.6599999999999" type="curve" smooth="yes"/>
      <point x="107.0" y="774.6599999999999"/>
      <point x="65.24000000000001" y="762.38"/>
      <point x="30.140000000000004" y="738.3" type="curve"/>
      <point x="61.68000000000001" y="658.36" type="line"/>
      <point x="87.26" y="674.1"/>
      <point x="105.46000000000001" y="679.1"/>
      <point x="127.08000000000001" y="679.1" type="curve" smooth="yes"/>
      <point x="154.32000000000002" y="679.1"/>
      <point x="171.28000000000003" y="657.4"/>
      <point x="171.28000000000003" y="626.94" type="curve" smooth="yes"/>
      <point x="171.28000000000003" y="584.7199999999999"/>
      <point x="126.52" y="520.82"/>
      <point x="39.14000000000001" y="436.08" type="curve"/>
    </contour>
  </outline>
</glyph>
<glyph name="uni00B3" format="2">
  <advance width="332.28000000000003"/>
  <unicode hex="00B3"/>
  <outline>
    <contour>
      <point x="26.9" y="392.32" type="line"/>
      <point x="68.16" y="371.14000000000004"/>
      <point x="104.18" y="363.78"/>
      <point x="150.8" y="363.78" type="curve" smooth="yes"/>
      <point x="242.14" y="363.78"/>
      <point x="299.68" y="407.63999999999993"/>
      <point x="299.68" y="486.6" type="curve" smooth="yes"/>
      <point x="299.68" y="532.3999999999999"/>
      <point x="277.76" y="566.32"/>
      <point x="235.46000000000004" y="582.84" type="curve"/>
      <point x="268.79999999999995" y="600.0799999999999"/>
      <point x="289.76000000000005" y="634.18"/>
      <point x="289.76000000000005" y="673.56" type="curve" smooth="yes"/>
      <point x="289.76000000000005" y="736.08"/>
      <point x="242.28" y="775.4200000000001"/>
      <point x="154.52" y="775.4200000000001" type="curve" smooth="yes"/>
      <point x="103.36000000000001" y="775.4200000000001"/>
      <point x="59.74" y="765.2199999999999"/>
      <point x="30.840000000000003" y="746.92" type="curve"/>
      <point x="57.160000000000004" y="676.56" type="line"/>
      <point x="68.04" y="682.86"/>
      <point x="91.06" y="689.76"/>
      <point x="129.76000000000002" y="689.76" type="curve" smooth="yes"/>
      <point x="168.26" y="689.76"/>
      <point x="193.9" y="673.6999999999999"/>
      <point x="193.9" y="646.5" type="curve" smooth="yes"/>
      <point x="193.9" y="623.18"/>
      <point x="179.9" y="606.58"/>
      <point x="148.52" y="606.58" type="curve" smooth="yes"/>
      <point x="93.32000000000001" y="606.58" type="line"/>
      <point x="93.32000000000001" y="538.42" type="line"/>
      <point x="145.52" y="538.42" type="line" smooth="yes"/>
      <point x="188.74" y="538.42"/>
      <point x="201.23999999999998" y="521.92"/>
      <point x="201.23999999999998" y="495.0" type="curve" smooth="yes"/>
      <point x="201.23999999999998" y="463.13999999999993"/>
      <point x="178.98000000000002" y="444.28000000000003"/>
      <point x="137.54" y="444.28000000000003" type="curve" smooth="yes"/>
      <point x="99.32000000000001" y="444.28000000000003"/>
      <point x="79.02000000000001" y="449.48"/>
      <point x="56.26" y="462.1" type="curve"/>
    </contour>
  </outline>
</glyph>
<glyph name="uni00B5" format="2">
  <advance width="488.59999999999997"/>
  <unicode hex="00B5"/>
  <outline>
    <contour>
      <point x="36.2" y="-210.0" type="line"/>
      <point x="177.16" y="-210.0" type="line"/>
      <point x="177.16" y="5.960000000000003" type="line"/>
      <point x="186.85999999999999" y="-3.96"/>
      <point x="201.33999999999997" y="-8.879999999999999"/>
      <point x="220.16" y="-8.879999999999999" type="curve" smooth="yes"/>
      <point x="254.92000000000002" y="-8.879999999999999"/>
      <point x="287.04" y="7.479999999999999"/>
      <point x="313.50000000000006" y="29.700000000000003" type="curve"/>
      <point x="330.72" y="5.26"/>
      <point x="348.34" y="-10.0"/>
      <point x="395.08000000000004" y="-10.0" type="curve" smooth="yes"/>
      <point x="433.24" y="-10.0"/>
      <point x="464.08" y="0.31999999999999984"/>
      <point x="486.93999999999994" y="13.28" type="curve"/>
      <point x="475.38000000000005" y="124.72" type="line"/>
      <point x="469.38" y="122.1"/>
      <point x="462.1" y="120.74"/>
      <point x="455.72" y="120.74" type="curve" smooth="yes"/>
      <point x="443.8" y="120.74"/>
      <point x="436.4" y="128.04"/>
      <point x="436.4" y="153.0" type="curve" smooth="yes"/>
      <point x="436.4" y="544.0" type="line"/>
      <point x="290.40000000000003" y="544.0" type="line"/>
      <point x="290.40000000000003" y="138.02" type="line"/>
      <point x="269.16" y="125.6"/>
      <point x="249.06000000000003" y="118.58000000000001"/>
      <point x="228.14" y="118.58000000000001" type="curve" smooth="yes"/>
      <point x="200.6" y="118.58000000000001"/>
      <point x="182.76" y="133.96"/>
      <point x="182.76" y="169.1" type="curve" smooth="yes"/>
      <point x="182.76" y="544.0" type="line"/>
      <point x="36.2" y="544.0" type="line"/>
    </contour>
  </outline>
</glyph>
<glyph name="paragraph" format="2">
  <advance width="587.34"/>
  <unicode hex="00B6"/>
  <outline>
    <contour>
      <point x="428.08000000000004" y="-210.0" type="line"/>
      <point x="542.4399999999999" y="-210.0" type="line"/>
      <point x="542.4399999999999" y="740.0" type="line"/>
      <point x="428.08000000000004" y="740.0" type="line"/>
    </contour>
    <contour>
      <point x="238.18" y="317.46" type="line"/>
      <point x="194.01999999999998" y="327.18"/>
      <point x="161.57999999999998" y="384.78"/>
      <point x="161.57999999999998" y="473.2" type="curve" smooth="yes"/>
      <point x="161.57999999999998" y="557.4799999999999"/>
      <point x="194.20000000000002" y="613.6800000000001"/>
      <point x="262.15999999999997" y="615.0600000000001" type="curve"/>
      <point x="262.15999999999997" y="-210.0" type="line"/>
      <point x="376.52" y="-210.0" type="line"/>
      <point x="376.52" y="740.0" type="line"/>
      <point x="301.30000000000007" y="740.0" type="line" smooth="yes"/>
      <point x="97.91999999999999" y="740.0"/>
      <point x="33.36" y="624.68"/>
      <point x="33.36" y="480.76" type="curve" smooth="yes"/>
      <point x="33.36" y="345.88000000000005"/>
      <point x="92.66" y="249.5"/>
      <point x="222.7" y="225.07999999999998" type="curve"/>
    </contour>
  </outline>
</glyph>
<glyph name="periodcentered" format="2">
  <advance width="201.7"/>
  <unicode hex="00B7"/>
  <outline>
    <contour>
      <point x="21.3" y="314.14" type="curve" smooth="yes"/>
      <point x="21.3" y="254.98"/>
      <point x="44.06" y="227.38"/>
      <point x="101.0" y="227.38" type="curve" smooth="yes"/>
      <point x="158.24" y="227.38"/>
      <point x="180.39999999999998" y="254.98"/>
      <point x="180.39999999999998" y="314.14" type="curve" smooth="yes"/>
      <point x="180.39999999999998" y="374.0"/>
      <point x="158.24" y="401.6000000000001"/>
      <point x="101.0" y="401.6000000000001" type="curve" smooth="yes"/>
      <point x="43.46000000000001" y="401.6000000000001"/>
      <point x="21.3" y="374.0"/>
    </contour>
  </outline>
</glyph>
<glyph name="uni00B9" format="2">
  <advance width="302.72"/>
  <unicode hex="00B9"/>
  <outline>
    <contour>
      <point x="33.8" y="370.0" type="line"/>
      <point x="284.78000000000003" y="370.0" type="line"/>
      <point x="284.78000000000003" y="444.20000000000005" type="line"/>
      <point x="214.66" y="444.20000000000005" type="line"/>
      <point x="214.66" y="768.48" type="line"/>
      <point x="164.28" y="768.48" type="line"/>
      <point x="20.680000000000003" y="716.1399999999999" type="line"/>
      <point x="40.599999999999994" y="633.04" type="line"/>
      <point x="113.76" y="662.66" type="line"/>
      <point x="113.76" y="444.20000000000005" type="line"/>
      <point x="33.8" y="444.20000000000005" type="line"/>
    </contour>
  </outline>
</glyph>
<glyph name="ordmasculine" format="2">
  <advance width="334.68"/>
  <unicode hex="00BA"/>
  <outline>
    <contour>
      <point x="33.82000000000001" y="243.74" type="line"/>
      <point x="305.62" y="243.74" type="line"/>
      <point x="305.62" y="318.73999999999995" type="line"/>
      <point x="33.82000000000001" y="318.73999999999995" type="line"/>
    </contour>
    <component base="o.superior" xOffset="10.88"/>
  </outline>
</glyph>
<glyph name="questiondown" format="2">
  <advance width="407.84000000000003"/>
  <unicode hex="00BF"/>
  <outline>
    <contour>
      <point x="296.9" y="277.38000000000005" type="line"/>
      <point x="170.08" y="277.38000000000005" type="line"/>
      <point x="169.8" y="207.66000000000003" type="line"/>
      <point x="70.68" y="158.54000000000002"/>
      <point x="30.34" y="87.69999999999999"/>
      <point x="30.34" y="-13.4" type="curve" smooth="yes"/>
      <point x="30.34" y="-147.0"/>
      <point x="115.08" y="-211.74"/>
      <point x="235.62" y="-211.74" type="curve" smooth="yes"/>
      <point x="299.0" y="-211.74"/>
      <point x="366.82000000000005" y="-188.88"/>
      <point x="411.74" y="-154.74" type="curve"/>
      <point x="363.59999999999997" y="-30.28000000000001" type="line"/>
      <point x="323.54" y="-57.96000000000001"/>
      <point x="290.62" y="-66.82"/>
      <point x="259.0" y="-66.82" type="curve" smooth="yes"/>
      <point x="212.7" y="-66.82"/>
      <point x="182.17999999999998" y="-38.08000000000001"/>
      <point x="182.17999999999998" y="9.219999999999995" type="curve" smooth="yes"/>
      <point x="182.17999999999998" y="55.519999999999996"/>
      <point x="200.70000000000002" y="96.82"/>
      <point x="300.12" y="142.38" type="curve"/>
    </contour>
    <contour>
      <point x="312.52" y="458.26" type="curve" smooth="yes"/>
      <point x="312.52" y="517.24"/>
      <point x="290.26000000000005" y="544.8399999999999"/>
      <point x="233.0" y="544.8399999999999" type="curve" smooth="yes"/>
      <point x="176.56" y="544.8399999999999"/>
      <point x="153.72" y="517.24"/>
      <point x="153.72" y="458.26" type="curve" smooth="yes"/>
      <point x="153.72" y="398.58"/>
      <point x="176.56" y="370.98"/>
      <point x="233.0" y="370.98" type="curve" smooth="yes"/>
      <point x="290.79999999999995" y="370.98"/>
      <point x="312.52" y="398.58"/>
    </contour>
  </outline>
</glyph>
<glyph name="AE" format="2">
  <advance width="788.48"/>
  <unicode hex="00C6"/>
  <anchor x="437.11" y="700.0" name="top"/>
  <outline>
    <contour>
      <point x="5.74" y="0.0" type="line"/>
      <point x="171.25" y="-0.45000000000000007" type="line"/>
      <point x="240.32999999999998" y="173.84999999999997" type="line"/>
      <point x="372.98" y="173.84999999999997" type="line"/>
      <point x="372.98" y="0.0" type="line"/>
      <point x="769.95" y="0.0" type="line"/>
      <point x="769.95" y="136.66" type="line"/>
      <point x="515.9699999999999" y="136.66" type="line"/>
      <point x="515.9699999999999" y="279.21000000000004" type="line"/>
      <point x="733.04" y="279.21000000000004" type="line"/>
      <point x="733.04" y="408.87" type="line"/>
      <point x="515.9699999999999" y="408.87" type="line"/>
      <point x="515.9699999999999" y="560.9899999999999" type="line"/>
      <point x="755.8599999999999" y="560.9899999999999" type="line"/>
      <point x="755.8599999999999" y="700.0" type="line"/>
      <point x="281.94" y="700.0" type="line"/>
    </contour>
    <contour>
      <point x="281.87" y="305.35" type="line"/>
      <point x="371.74" y="593.9899999999999" type="line"/>
      <point x="371.74" y="305.35" type="line"/>
    </contour>
  </outline>
</glyph>
<glyph name="multiply" format="2">
  <advance width="448.28"/>
  <unicode hex="00D7"/>
  <outline>
    <contour>
      <point x="127.16" y="120.69999999999999" type="line"/>
      <point x="223.95999999999998" y="234.24" type="line"/>
      <point x="321.06" y="121.12" type="line"/>
      <point x="407.56" y="209.79999999999998" type="line"/>
      <point x="313.78" y="321.88" type="line"/>
      <point x="407.44" y="434.7" type="line"/>
      <point x="320.94000000000005" y="523.38" type="line"/>
      <point x="223.95999999999998" y="409.76" type="line"/>
      <point x="127.1" y="523.4999999999999" type="line"/>
      <point x="40.6" y="434.82" type="line"/>
      <point x="134.24" y="321.88" type="line"/>
      <point x="40.66000000000001" y="209.38" type="line"/>
    </contour>
  </outline>
</glyph>
<glyph name="Oslash" format="2">
  <advance width="562.6"/>
  <unicode hex="00D8"/>
  <anchor x="281.4" y="700.0" name="top"/>
  <outline>
    <contour>
      <point x="109.5" y="-10.6" type="line"/>
      <point x="164.7" y="89.49999999999999" type="line"/>
      <point x="170.3" y="86.79999999999998" type="line"/>
      <point x="448.79999999999995" y="576.6999999999999" type="line"/>
      <point x="454.1" y="573.1" type="line"/>
      <point x="531.8" y="717.0" type="line"/>
      <point x="453.79999999999995" y="717.0" type="line"/>
      <point x="400.3" y="619.3000000000001" type="line"/>
      <point x="394.5" y="621.8000000000001" type="line"/>
      <point x="118.89999999999999" y="138.6" type="line"/>
      <point x="113.7" y="141.4" type="line"/>
      <point x="31.600000000000005" y="-10.6" type="line"/>
    </contour>
    <contour>
      <point x="281.4" y="110.0" type="curve" smooth="yes"/>
      <point x="210.8" y="110.0"/>
      <point x="161.4" y="152.3"/>
      <point x="161.4" y="349.3" type="curve" smooth="yes"/>
      <point x="161.4" y="548.4999999999999"/>
      <point x="211.2" y="590.0"/>
      <point x="281.4" y="590.0" type="curve" smooth="yes"/>
      <point x="352.29999999999995" y="590.0"/>
      <point x="402.2" y="549.8000000000001"/>
      <point x="402.2" y="350.40000000000003" type="curve" smooth="yes"/>
      <point x="402.2" y="151.60000000000002"/>
      <point x="351.9" y="110.0"/>
    </contour>
    <contour>
      <point x="281.0" y="-10.0" type="curve" smooth="yes"/>
      <point x="441.7" y="-10.0"/>
      <point x="537.4" y="72.69999999999999"/>
      <point x="537.4" y="352.09999999999997" type="curve" smooth="yes"/>
      <point x="537.4" y="628.0999999999999"/>
      <point x="441.99999999999994" y="710.0"/>
      <point x="281.4" y="710.0" type="curve" smooth="yes"/>
      <point x="120.40000000000002" y="710.0"/>
      <point x="26.0" y="626.5000000000001"/>
      <point x="26.0" y="348.90000000000003" type="curve" smooth="yes"/>
      <point x="26.0" y="73.89999999999999"/>
      <point x="121.19999999999999" y="-10.0"/>
    </contour>
  </outline>
</glyph>
<glyph name="Thorn" format="2">
  <advance width="527.56"/>
  <unicode hex="00DE"/>
  <outline>
    <contour>
      <point x="41.660000000000004" y="0.0" type="line"/>
      <point x="191.02" y="0.0" type="line"/>
      <point x="191.02" y="122.22000000000001" type="line"/>
      <point x="241.36" y="118.94"/>
      <point x="243.05999999999997" y="118.88"/>
      <point x="290.3" y="118.88" type="curve" smooth="yes"/>
      <point x="446.38" y="118.88"/>
      <point x="507.56" y="200.66000000000003"/>
      <point x="507.56" y="383.58000000000004" type="curve" smooth="yes"/>
      <point x="507.56" y="560.4"/>
      <point x="451.22" y="635.12"/>
      <point x="254.66000000000003" y="635.12" type="curve" smooth="yes"/>
      <point x="240.44" y="635.12"/>
      <point x="219.56000000000003" y="634.6200000000001"/>
      <point x="191.57999999999998" y="633.52" type="curve"/>
      <point x="191.57999999999998" y="700.0" type="line"/>
      <point x="41.660000000000004" y="700.0" type="line"/>
    </contour>
    <contour>
      <point x="252.32000000000002" y="251.99999999999997" type="curve" smooth="yes"/>
      <point x="231.46" y="251.99999999999997"/>
      <point x="218.57999999999998" y="252.31999999999996"/>
      <point x="191.57999999999998" y="254.42" type="curve"/>
      <point x="191.57999999999998" y="503.02" type="line"/>
      <point x="229.62" y="506.46"/>
      <point x="245.06" y="506.82"/>
      <point x="265.40000000000003" y="506.82" type="curve" smooth="yes"/>
      <point x="338.53999999999996" y="506.82"/>
      <point x="357.21999999999997" y="471.44"/>
      <point x="357.21999999999997" y="389.44" type="curve" smooth="yes"/>
      <point x="357.21999999999997" y="303.65999999999997"/>
      <point x="340.12" y="251.99999999999997"/>
    </contour>
  </outline>
</glyph>
<glyph name="germandbls" format="2">
  <advance width="609.1399999999999"/>
  <unicode hex="00DF"/>
  <outline>
    <contour>
      <point x="70.5" y="0.0" type="line"/>
      <point x="216.26" y="0.0" type="line"/>
      <point x="216.26" y="510.02000000000004" type="line" smooth="yes"/>
      <point x="216.26" y="587.3199999999999"/>
      <point x="255.16000000000003" y="626.16"/>
      <point x="332.15999999999997" y="626.16" type="curve" smooth="yes"/>
      <point x="392.78" y="626.16"/>
      <point x="413.49999999999994" y="610.4399999999999"/>
      <point x="413.49999999999994" y="577.12" type="curve" smooth="yes"/>
      <point x="413.49999999999994" y="550.9600000000002"/>
      <point x="401.74" y="539.4599999999999"/>
      <point x="356.58" y="514.8399999999999" type="curve" smooth="yes"/>
      <point x="296.82" y="486.86"/>
      <point x="265.88" y="444.76000000000005"/>
      <point x="265.88" y="377.65999999999997" type="curve" smooth="yes"/>
      <point x="265.88" y="283.76"/>
      <point x="302.28" y="242.82000000000002"/>
      <point x="397.2" y="214.23999999999998" type="curve" smooth="yes"/>
      <point x="455.26" y="193.96"/>
      <point x="470.32" y="185.09999999999997"/>
      <point x="470.32" y="157.11999999999998" type="curve" smooth="yes"/>
      <point x="470.32" y="126.0"/>
      <point x="443.00000000000006" y="109.64"/>
      <point x="398.74" y="109.64" type="curve" smooth="yes"/>
      <point x="351.26" y="109.64"/>
      <point x="305.3" y="119.35999999999999"/>
      <point x="262.65999999999997" y="131.67999999999998" type="curve"/>
      <point x="244.82" y="17.340000000000003" type="line"/>
      <point x="292.00000000000006" y="-1.4200000000000002"/>
      <point x="346.61999999999995" y="-9.92"/>
      <point x="402.85999999999996" y="-9.92" type="curve" smooth="yes"/>
      <point x="518.0799999999999" y="-9.92"/>
      <point x="605.8799999999999" y="45.0"/>
      <point x="605.8799999999999" y="166.47999999999996" type="curve" smooth="yes"/>
      <point x="605.8799999999999" y="256.41999999999996"/>
      <point x="566.1999999999999" y="302.43999999999994"/>
      <point x="470.3" y="330.58" type="curve" smooth="yes"/>
      <point x="413.69999999999993" y="348.38"/>
      <point x="401.36" y="363.36"/>
      <point x="401.36" y="386.9" type="curve" smooth="yes"/>
      <point x="401.36" y="409.97999999999996"/>
      <point x="415.40000000000003" y="418.32000000000005"/>
      <point x="450.8999999999999" y="435.53999999999996" type="curve" smooth="yes"/>
      <point x="528.3599999999999" y="471.14000000000004"/>
      <point x="561.1400000000001" y="507.70000000000005"/>
      <point x="561.1400000000001" y="579.0" type="curve" smooth="yes"/>
      <point x="561.1400000000001" y="691.62"/>
      <point x="479.64000000000004" y="750.0"/>
      <point x="325.86" y="750.0" type="curve" smooth="yes"/>
      <point x="160.26" y="750.0"/>
      <point x="70.4" y="673.92"/>
      <point x="70.5" y="534.52" type="curve" smooth="yes"/>
      <point x="70.5" y="509.14" type="line"/>
      <point x="10.36" y="500.3" type="line"/>
      <point x="10.36" y="394.14000000000004" type="line"/>
      <point x="70.5" y="394.14000000000004" type="line"/>
    </contour>
  </outline>
</glyph>
<glyph name="ae" format="2">
  <advance width="693.01"/>
  <unicode hex="00E6"/>
  <anchor x="349.57" y="544.0" name="top"/>
  <outline>
    <contour>
      <point x="150.44" y="-10.0" type="curve" smooth="yes"/>
      <point x="219.89000000000001" y="-10.0"/>
      <point x="268.97" y="17.349999999999998"/>
      <point x="318.47" y="61.56" type="curve"/>
      <point x="319.84999999999997" y="61.56" type="line"/>
      <point x="359.82" y="11.17"/>
      <point x="408.72999999999996" y="-10.0"/>
      <point x="489.28000000000003" y="-10.0" type="curve" smooth="yes"/>
      <point x="554.03" y="-10.0"/>
      <point x="609.93" y="0.5999999999999999"/>
      <point x="668.61" y="22.24" type="curve"/>
      <point x="649.42" y="142.76999999999998" type="line"/>
      <point x="602.4899999999999" y="130.25999999999996"/>
      <point x="547.8699999999999" y="121.56"/>
      <point x="511.43000000000006" y="121.56" type="curve" smooth="yes"/>
      <point x="441.61" y="121.56"/>
      <point x="413.85" y="140.60999999999999"/>
      <point x="412.69" y="218.15" type="curve" smooth="yes"/>
      <point x="412.31" y="221.76000000000002"/>
      <point x="412.31" y="227.42000000000002"/>
      <point x="412.65" y="229.31" type="curve"/>
      <point x="514.6499999999999" y="232.96"/>
      <point x="619.57" y="245.09"/>
      <point x="670.1" y="250.75" type="curve"/>
      <point x="670.57" y="266.73"/>
      <point x="671.65" y="289.13"/>
      <point x="671.65" y="304.56" type="curve" smooth="yes"/>
      <point x="671.65" y="483.42"/>
      <point x="611.5999999999999" y="554.0"/>
      <point x="476.71" y="554.0" type="curve" smooth="yes"/>
      <point x="424.19000000000005" y="554.0"/>
      <point x="380.31" y="537.51"/>
      <point x="346.15999999999997" y="491.71999999999997" type="curve"/>
      <point x="345.08" y="491.71999999999997" type="line"/>
      <point x="310.84000000000003" y="534.3000000000001"/>
      <point x="270.24000000000007" y="554.0"/>
      <point x="202.87" y="554.0" type="curve" smooth="yes"/>
      <point x="153.41" y="554.0"/>
      <point x="87.5" y="541.98"/>
      <point x="36.8" y="524.1999999999999" type="curve"/>
      <point x="63.559999999999995" y="399.03999999999996" type="line"/>
      <point x="117.64" y="415.63"/>
      <point x="163.59" y="418.83"/>
      <point x="191.09" y="418.83" type="curve" smooth="yes"/>
      <point x="239.68000000000004" y="418.83"/>
      <point x="263.53999999999996" y="398.79"/>
      <point x="263.53999999999996" y="364.40999999999997" type="curve" smooth="yes"/>
      <point x="263.53999999999996" y="330.14" type="line"/>
      <point x="92.19" y="313.95"/>
      <point x="12.890000000000002" y="271.54"/>
      <point x="12.890000000000002" y="147.57999999999998" type="curve" smooth="yes"/>
      <point x="12.890000000000002" y="47.69"/>
      <point x="65.55" y="-10.0"/>
    </contour>
    <contour>
      <point x="199.89000000000001" y="97.96" type="curve" smooth="yes"/>
      <point x="175.48" y="97.96"/>
      <point x="158.01" y="118.1"/>
      <point x="158.01" y="159.65" type="curve" smooth="yes"/>
      <point x="158.01" y="218.27"/>
      <point x="201.75" y="236.76"/>
      <point x="264.05000000000007" y="245.58999999999997" type="curve"/>
      <point x="264.13000000000005" y="235.26"/>
      <point x="264.13000000000005" y="222.89"/>
      <point x="264.13000000000005" y="213.22" type="curve" smooth="yes"/>
      <point x="264.13000000000005" y="183.16"/>
      <point x="265.5" y="156.47000000000003"/>
      <point x="268.45000000000005" y="134.08" type="curve"/>
      <point x="253.57999999999998" y="116.38000000000001"/>
      <point x="224.81" y="97.96"/>
    </contour>
    <contour>
      <point x="411.75" y="315.69" type="curve"/>
      <point x="410.14" y="418.35"/>
      <point x="439.66" y="442.57000000000005"/>
      <point x="468.90000000000003" y="442.57000000000005" type="curve" smooth="yes"/>
      <point x="505.7700000000001" y="442.57000000000005"/>
      <point x="521.9499999999999" y="410.71"/>
      <point x="525.45" y="322.84000000000003" type="curve"/>
      <point x="503.65" y="320.40000000000003"/>
      <point x="455.95" y="315.77"/>
    </contour>
  </outline>
</glyph>
<glyph name="eth" format="2">
  <advance width="481.0"/>
  <unicode hex="00F0"/>
  <outline>
    <contour>
      <point x="338.2" y="411.59999999999997" type="curve"/>
      <point x="344.6" y="510.09999999999997" type="line"/>
      <point x="310.6" y="528.4"/>
      <point x="272.8" y="536.0"/>
      <point x="231.1" y="536.0" type="curve" smooth="yes"/>
      <point x="84.0" y="536.0"/>
      <point x="22.900000000000002" y="443.99999999999994"/>
      <point x="22.900000000000002" y="250.2" type="curve" smooth="yes"/>
      <point x="22.900000000000002" y="71.7"/>
      <point x="89.89999999999999" y="-10.0"/>
      <point x="229.69999999999996" y="-10.0" type="curve" smooth="yes"/>
      <point x="398.7" y="-10.0"/>
      <point x="458.29999999999995" y="80.7"/>
      <point x="458.29999999999995" y="347.9" type="curve" smooth="yes"/>
      <point x="458.29999999999995" y="613.2"/>
      <point x="364.4" y="739.2"/>
      <point x="175.1" y="739.2" type="curve" smooth="yes"/>
      <point x="123.2" y="739.2"/>
      <point x="75.7" y="728.8"/>
      <point x="29.599999999999998" y="714.0000000000001" type="curve"/>
      <point x="44.6" y="623.0999999999999" type="line"/>
      <point x="79.10000000000001" y="632.4"/>
      <point x="109.10000000000001" y="639.9"/>
      <point x="143.9" y="639.9" type="curve" smooth="yes"/>
      <point x="277.2" y="639.9"/>
      <point x="320.20000000000005" y="579.9"/>
      <point x="320.20000000000005" y="365.3" type="curve" smooth="yes"/>
      <point x="320.20000000000005" y="132.5"/>
      <point x="298.0" y="92.5"/>
      <point x="237.79999999999998" y="92.5" type="curve" smooth="yes"/>
      <point x="186.20000000000002" y="92.5"/>
      <point x="163.7" y="131.6"/>
      <point x="163.7" y="251.1" type="curve" smooth="yes"/>
      <point x="163.7" y="400.2"/>
      <point x="194.2" y="433.79999999999995"/>
      <point x="254.6" y="433.79999999999995" type="curve" smooth="yes"/>
      <point x="284.1" y="433.79999999999995"/>
      <point x="311.1" y="427.6"/>
    </contour>
    <contour>
      <point x="165.1" y="557.1999999999999" type="line"/>
      <point x="297.4" y="636.3000000000001" type="line"/>
      <point x="301.09999999999997" y="642.5" type="line"/>
      <point x="449.7" y="741.3000000000001" type="line"/>
      <point x="343.29999999999995" y="741.7" type="line"/>
      <point x="251.20000000000002" y="682.3" type="line"/>
      <point x="250.60000000000005" y="677.2" type="line"/>
      <point x="60.6" y="557.6" type="line"/>
    </contour>
  </outline>
</glyph>
<glyph name="divide" format="2">
  <advance width="467.26"/>
  <unicode hex="00F7"/>
  <outline>
    <contour>
      <point x="161.46" y="127.52000000000001" type="curve" smooth="yes"/>
      <point x="161.46" y="81.89999999999999"/>
      <point x="182.52000000000004" y="60.60000000000001"/>
      <point x="233.78" y="60.60000000000001" type="curve" smooth="yes"/>
      <point x="284.79999999999995" y="60.60000000000001"/>
      <point x="306.18" y="81.89999999999999"/>
      <point x="306.18" y="127.52000000000001" type="curve" smooth="yes"/>
      <point x="306.18" y="173.32000000000002"/>
      <point x="284.8" y="194.92000000000002"/>
      <point x="233.78" y="194.92000000000002" type="curve" smooth="yes"/>
      <point x="182.22" y="194.92000000000002"/>
      <point x="161.46" y="173.32000000000002"/>
    </contour>
    <contour>
      <point x="161.46" y="504.52000000000004" type="curve" smooth="yes"/>
      <point x="161.46" y="459.2"/>
      <point x="182.52" y="437.9"/>
      <point x="233.78" y="437.9" type="curve" smooth="yes"/>
      <point x="284.79999999999995" y="437.9"/>
      <point x="306.18" y="459.2"/>
      <point x="306.18" y="504.52000000000004" type="curve" smooth="yes"/>
      <point x="306.18" y="550.92"/>
      <point x="284.79999999999995" y="572.22"/>
      <point x="233.78" y="572.22" type="curve" smooth="yes"/>
      <point x="182.22" y="572.22"/>
      <point x="161.46" y="550.92"/>
    </contour>
    <contour>
      <point x="45.24000000000001" y="254.5" type="line"/>
      <point x="422.32" y="254.5" type="line"/>
      <point x="422.32" y="379.1000000000001" type="line"/>
      <point x="45.24000000000001" y="379.1000000000001" type="line"/>
    </contour>
  </outline>
</glyph>
<glyph name="oslash" format="2">
  <advance width="489.59999999999997"/>
  <unicode hex="00F8"/>
  <anchor x="243.39999999999998" y="544.0" name="top"/>
  <outline>
    <contour>
      <point x="243.39999999999998" y="-10.0" type="curve" smooth="yes"/>
      <point x="71.0" y="-10.0"/>
      <point x="22.6" y="100.60000000000001"/>
      <point x="22.6" y="273.2" type="curve" smooth="yes"/>
      <point x="22.6" y="443.09999999999997"/>
      <point x="67.2" y="554.0"/>
      <point x="243.39999999999998" y="554.0" type="curve" smooth="yes"/>
      <point x="419.5" y="554.0"/>
      <point x="465.09999999999997" y="443.09999999999997"/>
      <point x="465.09999999999997" y="273.2" type="curve" smooth="yes"/>
      <point x="465.09999999999997" y="100.60000000000001"/>
      <point x="416.0" y="-10.0"/>
    </contour>
    <contour>
      <point x="243.7" y="104.29999999999998" type="curve" smooth="yes"/>
      <point x="307.0" y="104.29999999999998"/>
      <point x="329.8" y="134.2"/>
      <point x="329.8" y="273.2" type="curve" smooth="yes"/>
      <point x="329.8" y="410.0"/>
      <point x="309.6" y="440.40000000000003"/>
      <point x="243.7" y="440.40000000000003" type="curve" smooth="yes"/>
      <point x="176.6" y="440.40000000000003"/>
      <point x="157.49999999999997" y="410.0"/>
      <point x="157.49999999999997" y="273.2" type="curve" smooth="yes"/>
      <point x="157.49999999999997" y="134.2"/>
      <point x="179.49999999999997" y="104.29999999999998"/>
    </contour>
    <contour>
      <point x="21.0" y="-3.600000000000001" type="line"/>
      <point x="101.49999999999999" y="127.3" type="line"/>
      <point x="104.6" y="126.4" type="line"/>
      <point x="338.29999999999995" y="476.40000000000003" type="line"/>
      <point x="342.0" y="475.5" type="line"/>
      <point x="392.09999999999997" y="554.0" type="line"/>
      <point x="466.70000000000005" y="554.0" type="line"/>
      <point x="387.70000000000005" y="429.8" type="line"/>
      <point x="384.3" y="430.7" type="line"/>
      <point x="149.3" y="76.4" type="line"/>
      <point x="145.6" y="77.3" type="line"/>
      <point x="94.6" y="-3.600000000000001" type="line"/>
    </contour>
  </outline>
</glyph>
<glyph name="thorn" format="2">
  <advance width="475.56"/>
  <unicode hex="00FE"/>
  <outline>
    <contour>
      <point x="36.2" y="-210.0" type="line"/>
      <point x="181.22" y="-210.0" type="line"/>
      <point x="181.22" y="-6.1" type="line"/>
      <point x="197.67999999999998" y="-8.84"/>
      <point x="213.18" y="-10.0"/>
      <point x="228.16" y="-10.0" type="curve" smooth="yes"/>
      <point x="390.74" y="-10.0"/>
      <point x="454.5" y="71.74"/>
      <point x="454.5" y="285.84000000000003" type="curve" smooth="yes"/>
      <point x="454.5" y="465.88"/>
      <point x="400.2" y="554.0"/>
      <point x="291.34" y="554.0" type="curve" smooth="yes"/>
      <point x="256.96000000000004" y="554.0"/>
      <point x="215.15999999999997" y="542.0600000000001"/>
      <point x="182.34" y="523.9799999999999" type="curve"/>
      <point x="182.34" y="740.0" type="line"/>
      <point x="36.2" y="740.0" type="line"/>
    </contour>
    <contour>
      <point x="229.61999999999998" y="102.32000000000001" type="curve" smooth="yes"/>
      <point x="216.07999999999998" y="102.32000000000001"/>
      <point x="201.26" y="104.6"/>
      <point x="182.76" y="109.7" type="curve"/>
      <point x="182.76" y="409.56000000000006" type="line"/>
      <point x="203.98" y="419.48"/>
      <point x="220.51999999999998" y="423.66"/>
      <point x="238.62" y="423.66" type="curve" smooth="yes"/>
      <point x="281.62" y="423.66"/>
      <point x="301.78" y="383.56"/>
      <point x="301.78" y="272.12" type="curve" smooth="yes"/>
      <point x="301.78" y="138.9"/>
      <point x="281.65999999999997" y="102.32000000000001"/>
    </contour>
  </outline>
</glyph>
<glyph name="Dcroat" format="2">
  <advance width="544.0099999999999"/>
  <unicode hex="0110"/>
  <outline>
    <contour>
      <point x="3.0599999999999987" y="291.44" type="line"/>
      <point x="271.36999999999995" y="291.44" type="line"/>
      <point x="271.36999999999995" y="414.95" type="line"/>
      <point x="3.0599999999999987" y="414.95" type="line"/>
    </contour>
    <component base="D" xOffset="2.59"/>
  </outline>
</glyph>
<glyph name="dcroat" format="2">
  <advance width="481.90999999999997"/>
  <unicode hex="0111"/>
  <outline>
    <contour>
      <point x="183.12" y="605.9499999999999" type="line"/>
      <point x="489.75" y="605.9499999999999" type="line"/>
      <point x="489.75" y="687.45" type="line"/>
      <point x="183.12" y="687.45" type="line"/>
    </contour>
    <component base="d"/>
  </outline>
</glyph>
<glyph name="Hbar" format="2">
  <advance width="549.0400000000001"/>
  <unicode hex="0126"/>
  <outline>
    <contour>
      <point x="7.920000000000002" y="501.32000000000005" type="line"/>
      <point x="42.12" y="501.32000000000005" type="line"/>
      <point x="42.12" y="0.0" type="line"/>
      <point x="190.92000000000002" y="0.0" type="line"/>
      <point x="190.92000000000002" y="244.52" type="line"/>
      <point x="359.52000000000004" y="244.52" type="line"/>
      <point x="359.52000000000004" y="0.0" type="line"/>
      <point x="506.92" y="0.0" type="line"/>
      <point x="506.92" y="501.32000000000005" type="line"/>
      <point x="541.1200000000001" y="501.32000000000005" type="line"/>
      <point x="541.1200000000001" y="610.0800000000002" type="line"/>
      <point x="506.92" y="610.0800000000002" type="line"/>
      <point x="506.92" y="700.0" type="line"/>
      <point x="359.52000000000004" y="700.0" type="line"/>
      <point x="359.52000000000004" y="610.0800000000002" type="line"/>
      <point x="190.92000000000002" y="610.0800000000002" type="line"/>
      <point x="190.92000000000002" y="700.0" type="line"/>
      <point x="42.12" y="700.0" type="line"/>
      <point x="42.12" y="610.0800000000002" type="line"/>
      <point x="7.920000000000002" y="610.0800000000002" type="line"/>
    </contour>
    <contour>
      <point x="190.92000000000002" y="387.48" type="line"/>
      <point x="190.92000000000002" y="501.32000000000005" type="line"/>
      <point x="359.52000000000004" y="501.32000000000005" type="line"/>
      <point x="359.52000000000004" y="387.48" type="line"/>
    </contour>
  </outline>
</glyph>
<glyph name="hbar" format="2">
  <advance width="474.33"/>
  <unicode hex="0127"/>
  <outline>
    <contour>
      <point x="-5.590000000000001" y="605.95" type="line"/>
      <point x="293.05" y="605.95" type="line"/>
      <point x="293.05" y="687.45" type="line"/>
      <point x="-5.590000000000001" y="687.45" type="line"/>
    </contour>
    <component base="h"/>
  </outline>
</glyph>
<glyph name="Idotaccent" format="2">
  <advance width="232.11999999999998"/>
  <unicode hex="0130"/>
  <outline>
    <contour>
      <point x="116.89999999999999" y="747.34" type="curve" smooth="yes"/>
      <point x="175.26000000000002" y="747.34"/>
      <point x="201.35999999999999" y="773.6800000000001"/>
      <point x="201.35999999999999" y="829.44" type="curve" smooth="yes"/>
      <point x="201.35999999999999" y="886.3199999999999"/>
      <point x="174.14" y="912.0999999999999"/>
      <point x="116.89999999999999" y="912.0999999999999" type="curve" smooth="yes"/>
      <point x="59.1" y="912.0999999999999"/>
      <point x="31.880000000000006" y="886.3199999999999"/>
      <point x="31.880000000000006" y="829.44" type="curve" smooth="yes"/>
      <point x="31.880000000000006" y="773.12"/>
      <point x="59.4" y="747.34"/>
    </contour>
    <component base="I"/>
  </outline>
</glyph>
<glyph name="dotlessi" format="2">
  <advance width="220.07999999999998"/>
  <unicode hex="0131"/>
  <anchor x="177.38000000000002" y="7.0" name="ogonek"/>
  <anchor x="111.15999999999998" y="0.0" name="bottom"/>
  <anchor x="110.03999999999999" y="544.0" name="top"/>
  <outline>
    <contour>
      <point x="36.2" y="0.0" type="line"/>
      <point x="183.88" y="0.0" type="line"/>
      <point x="183.88" y="544.0" type="line"/>
      <point x="36.2" y="544.0" type="line"/>
    </contour>
  </outline>
</glyph>
<glyph name="Ldot" format="2">
  <advance width="430.5"/>
  <unicode hex="013F"/>
  <outline>
    <contour>
      <point x="270.16" y="393.56" type="curve" smooth="yes"/>
      <point x="270.16" y="350.26"/>
      <point x="286.9" y="330.49999999999994"/>
      <point x="330.4" y="330.49999999999994" type="curve" smooth="yes"/>
      <point x="374.76000000000005" y="330.49999999999994"/>
      <point x="391.2" y="350.26"/>
      <point x="391.2" y="393.56" type="curve" smooth="yes"/>
      <point x="391.2" y="437.56"/>
      <point x="374.76000000000005" y="457.32"/>
      <point x="330.4" y="457.32" type="curve" smooth="yes"/>
      <point x="286.59999999999997" y="457.32"/>
      <point x="270.16" y="437.56"/>
    </contour>
    <component base="L"/>
  </outline>
</glyph>
<glyph name="ldot" format="2">
  <advance width="334.3"/>
  <unicode hex="0140"/>
  <outline>
    <contour>
      <point x="279.3" y="317.96000000000004" type="curve" smooth="yes"/>
      <point x="312.6" y="317.96000000000004"/>
      <point x="329.17999999999995" y="334.92"/>
      <point x="329.17999999999995" y="377.38" type="curve" smooth="yes"/>
      <point x="329.17999999999995" y="420.40000000000003"/>
      <point x="312.6" y="437.36"/>
      <point x="279.3" y="437.36" type="curve" smooth="yes"/>
      <point x="246.56" y="437.36"/>
      <point x="229.98" y="420.40000000000003"/>
      <point x="229.98" y="377.38" type="curve" smooth="yes"/>
      <point x="229.98" y="334.92"/>
      <point x="246.86" y="317.96000000000004"/>
    </contour>
    <component base="l"/>
  </outline>
</glyph>
<glyph name="Lslash" format="2">
  <advance width="445.78"/>
  <unicode hex="0141"/>
  <outline>
    <contour>
      <point x="10.4" y="199.6" type="line"/>
      <point x="56.940000000000005" y="229.29999999999998" type="line"/>
      <point x="56.940000000000005" y="0.0" type="line"/>
      <point x="432.58000000000004" y="0.0" type="line"/>
      <point x="432.58000000000004" y="139.04" type="line"/>
      <point x="206.29999999999998" y="139.04" type="line"/>
      <point x="206.29999999999998" y="304.28000000000003" type="line"/>
      <point x="347.81999999999994" y="389.6" type="line"/>
      <point x="347.81999999999994" y="526.64" type="line"/>
      <point x="206.29999999999998" y="441.55999999999995" type="line"/>
      <point x="206.29999999999998" y="700.0" type="line"/>
      <point x="56.940000000000005" y="700.0" type="line"/>
      <point x="56.940000000000005" y="366.58000000000004" type="line"/>
      <point x="10.4" y="336.88" type="line"/>
    </contour>
  </outline>
</glyph>
<glyph name="lslash" format="2">
  <advance width="279.41999999999996"/>
  <unicode hex="0142"/>
  <outline>
    <contour>
      <point x="175.66" y="-10.0" type="curve" smooth="yes"/>
      <point x="212.92" y="-10.0"/>
      <point x="248.82" y="0.7599999999999989"/>
      <point x="273.46000000000004" y="12.04" type="curve"/>
      <point x="261.90000000000003" y="142.96" type="line"/>
      <point x="246.76000000000002" y="139.51999999999998"/>
      <point x="234.21999999999997" y="137.53999999999996"/>
      <point x="224.52" y="137.53999999999996" type="curve" smooth="yes"/>
      <point x="204.48000000000002" y="137.53999999999996"/>
      <point x="190.88" y="147.41999999999996"/>
      <point x="190.88" y="198.54" type="curve" smooth="yes"/>
      <point x="190.88" y="330.2" type="line"/>
      <point x="260.8" y="385.74000000000007" type="line"/>
      <point x="260.8" y="505.8" type="line"/>
      <point x="190.88" y="450.26000000000005" type="line"/>
      <point x="190.88" y="740.0" type="line"/>
      <point x="44.88" y="740.0" type="line"/>
      <point x="44.88" y="340.56" type="line"/>
      <point x="3.12" y="306.94" type="line"/>
      <point x="3.12" y="187.12" type="line"/>
      <point x="45.160000000000004" y="220.64" type="line"/>
      <point x="45.440000000000005" y="160.32" type="line" smooth="yes"/>
      <point x="47.82" y="33.28"/>
      <point x="89.39999999999999" y="-10.0"/>
    </contour>
  </outline>
</glyph>
<glyph name="Eng" format="2">
  <advance width="546.3"/>
  <unicode hex="014A"/>
  <outline>
    <contour>
      <point x="41.65" y="0.0" type="line"/>
      <point x="174.0" y="0.0" type="line"/>
      <point x="174.0" y="405.65" type="line"/>
      <point x="362.15000000000003" y="-0.1999999999999993" type="line"/>
      <point x="362.15000000000003" y="-7.4" type="line" smooth="yes"/>
      <point x="361.85" y="-41.550000000000004"/>
      <point x="338.6" y="-57.7"/>
      <point x="298.55" y="-57.7" type="curve" smooth="yes"/>
      <point x="282.4" y="-57.7"/>
      <point x="263.8" y="-56.25"/>
      <point x="241.75" y="-49.2" type="curve"/>
      <point x="216.95" y="-174.6" type="line"/>
      <point x="246.7" y="-187.75"/>
      <point x="281.2" y="-197.95"/>
      <point x="328.3" y="-197.95" type="curve" smooth="yes"/>
      <point x="441.5" y="-197.95"/>
      <point x="504.65" y="-134.29999999999998"/>
      <point x="504.65" y="-13.5" type="curve" smooth="yes"/>
      <point x="504.65" y="700.0" type="line"/>
      <point x="373.0" y="700.0" type="line"/>
      <point x="373.0" y="279.54999999999995" type="line"/>
      <point x="189.84999999999997" y="700.6" type="line"/>
      <point x="41.65" y="700.6" type="line"/>
    </contour>
  </outline>
</glyph>
<glyph name="eng" format="2">
  <advance width="474.62"/>
  <unicode hex="014B"/>
  <outline>
    <contour>
      <point x="439.54" y="22.5" type="curve"/>
      <point x="439.54" y="417.65999999999997" type="line" smooth="yes"/>
      <point x="439.54" y="501.76"/>
      <point x="396.44" y="554.0"/>
      <point x="311.32" y="554.0" type="curve" smooth="yes"/>
      <point x="258.46000000000004" y="554.0"/>
      <point x="214.01999999999998" y="536.5199999999999"/>
      <point x="168.9" y="505.88" type="curve"/>
      <point x="168.9" y="544.0" type="line"/>
      <point x="36.2" y="544.0" type="line"/>
      <point x="36.2" y="0.0" type="line"/>
      <point x="182.76" y="0.0" type="line"/>
      <point x="182.76" y="402.28000000000003" type="line"/>
      <point x="203.45999999999998" y="413.28"/>
      <point x="224.78000000000003" y="422.06"/>
      <point x="247.06" y="422.06" type="curve" smooth="yes"/>
      <point x="276.96000000000004" y="422.06"/>
      <point x="292.98" y="404.7"/>
      <point x="292.98" y="368.94" type="curve" smooth="yes"/>
      <point x="292.98" y="19.46" type="line" smooth="yes"/>
      <point x="292.98" y="-29.060000000000002"/>
      <point x="282.26" y="-54.06000000000001"/>
      <point x="261.46" y="-63.66000000000002" type="curve" smooth="yes"/>
      <point x="256.15999999999997" y="-65.22000000000001"/>
      <point x="248.62" y="-65.64000000000001"/>
      <point x="243.02" y="-65.76" type="curve"/>
      <point x="238.64000000000001" y="-211.34" type="line"/>
      <point x="256.54" y="-213.54"/>
      <point x="275.03999999999996" y="-213.28"/>
      <point x="295.94000000000005" y="-211.48" type="curve" smooth="yes"/>
      <point x="385.34" y="-200.5"/>
      <point x="439.54" y="-116.32000000000001"/>
    </contour>
  </outline>
</glyph>
<glyph name="OE" format="2">
  <advance width="770.8599999999999"/>
  <unicode hex="0152"/>
  <outline>
    <contour>
      <point x="752.33" y="0.0" type="line"/>
      <point x="752.33" y="136.66" type="line"/>
      <point x="499.78000000000003" y="136.66" type="line"/>
      <point x="499.78000000000003" y="289.40999999999997" type="line"/>
      <point x="715.1200000000001" y="289.40999999999997" type="line"/>
      <point x="715.1200000000001" y="419.07" type="line"/>
      <point x="499.78000000000003" y="419.07" type="line"/>
      <point x="499.78000000000003" y="561.29" type="line"/>
      <point x="737.9399999999999" y="561.29" type="line"/>
      <point x="737.9399999999999" y="700.0" type="line"/>
      <point x="471.31" y="700.0" type="line"/>
      <point x="412.02" y="706.03"/>
      <point x="353.94000000000005" y="708.5000000000001"/>
      <point x="292.09" y="708.5000000000001" type="curve" smooth="yes"/>
      <point x="103.84" y="708.5000000000001"/>
      <point x="22.41" y="602.82"/>
      <point x="22.41" y="353.56" type="curve" smooth="yes"/>
      <point x="22.41" y="72.62"/>
      <point x="116.19000000000001" y="-9.100000000000001"/>
      <point x="292.90999999999997" y="-9.100000000000001" type="curve" smooth="yes"/>
      <point x="357.09" y="-9.100000000000001"/>
      <point x="425.37" y="-7.11"/>
      <point x="499.31" y="0.0" type="curve"/>
    </contour>
    <contour>
      <point x="350.78000000000003" y="123.76999999999998" type="line"/>
      <point x="334.73" y="121.76999999999998"/>
      <point x="309.38" y="119.62"/>
      <point x="282.53" y="119.62" type="curve" smooth="yes"/>
      <point x="217.90999999999997" y="119.62"/>
      <point x="176.7" y="168.17"/>
      <point x="176.7" y="350.84000000000003" type="curve" smooth="yes"/>
      <point x="176.7" y="534.53"/>
      <point x="216.64" y="579.2099999999999"/>
      <point x="281.69" y="579.2099999999999" type="curve" smooth="yes"/>
      <point x="304.65" y="579.2099999999999"/>
      <point x="329.29" y="576.68"/>
      <point x="350.78000000000003" y="574.68" type="curve"/>
    </contour>
  </outline>
</glyph>
<glyph name="oe" format="2">
  <advance width="740.3199999999999"/>
  <unicode hex="0153"/>
  <outline>
    <contour>
      <point x="21.060000000000002" y="273.06" type="curve" smooth="yes"/>
      <point x="21.060000000000002" y="94.56"/>
      <point x="70.14" y="-10.0"/>
      <point x="237.02" y="-10.0" type="curve" smooth="yes"/>
      <point x="304.12" y="-10.0"/>
      <point x="346.85999999999996" y="14.440000000000001"/>
      <point x="376.4" y="56.44000000000001" type="curve"/>
      <point x="412.46000000000004" y="15.740000000000002"/>
      <point x="459.4" y="-10.0"/>
      <point x="534.3599999999999" y="-10.0" type="curve" smooth="yes"/>
      <point x="602.32" y="-10.0"/>
      <point x="660.12" y="1.1"/>
      <point x="714.5" y="21.919999999999998" type="curve"/>
      <point x="695.58" y="143.18" type="line"/>
      <point x="638.6" y="128.6"/>
      <point x="582.76" y="121.42"/>
      <point x="552.48" y="121.42" type="curve" smooth="yes"/>
      <point x="491.68" y="121.42"/>
      <point x="451.78" y="141.82"/>
      <point x="451.78" y="211.68" type="curve" smooth="yes"/>
      <point x="451.78" y="217.29999999999998"/>
      <point x="451.64" y="224.52"/>
      <point x="452.0" y="231.14" type="curve"/>
      <point x="556.66" y="234.64"/>
      <point x="670.12" y="246.48"/>
      <point x="717.14" y="251.20000000000002" type="curve"/>
      <point x="717.84" y="265.98"/>
      <point x="718.84" y="288.74"/>
      <point x="718.84" y="304.98" type="curve" smooth="yes"/>
      <point x="718.84" y="471.98"/>
      <point x="664.04" y="554.0"/>
      <point x="518.08" y="554.0" type="curve" smooth="yes"/>
      <point x="458.84000000000003" y="554.0"/>
      <point x="414.56" y="525.38"/>
      <point x="382.34000000000003" y="481.5" type="curve"/>
      <point x="348.54" y="528.94"/>
      <point x="304.28000000000003" y="554.0"/>
      <point x="237.02" y="554.0" type="curve" smooth="yes"/>
      <point x="66.5" y="554.0"/>
      <point x="21.060000000000002" y="448.56"/>
    </contour>
    <contour>
      <point x="171.68" y="272.92" type="curve" smooth="yes"/>
      <point x="171.68" y="402.32"/>
      <point x="186.87999999999997" y="431.76"/>
      <point x="236.88" y="431.76" type="curve" smooth="yes"/>
      <point x="285.96" y="431.76"/>
      <point x="301.58" y="402.32"/>
      <point x="301.58" y="272.92" type="curve" smooth="yes"/>
      <point x="301.58" y="141.72"/>
      <point x="284.5" y="112.8"/>
      <point x="236.88" y="112.8" type="curve" smooth="yes"/>
      <point x="188.7" y="112.8"/>
      <point x="171.68" y="141.72"/>
    </contour>
    <contour>
      <point x="452.08" y="316.47999999999996" type="curve"/>
      <point x="457.92" y="426.53999999999996"/>
      <point x="482.44000000000005" y="442.96000000000004"/>
      <point x="514.86" y="442.96000000000004" type="curve" smooth="yes"/>
      <point x="548.6600000000001" y="442.96000000000004"/>
      <point x="570.3199999999999" y="415.68"/>
      <point x="572.42" y="322.72" type="curve"/>
      <point x="549.6800000000001" y="320.16"/>
      <point x="499.8" y="316.62"/>
    </contour>
  </outline>
</glyph>
<glyph name="uni0162" format="2">
  <advance width="477.03999999999996"/>
  <unicode hex="0162"/>
  <outline>
    <contour>
      <point x="134.32000000000002" y="-116.5" type="curve"/>
      <point x="131.88" y="-207.98" type="line"/>
      <point x="158.5" y="-217.12"/>
      <point x="182.3" y="-220.0"/>
      <point x="204.48" y="-220.0" type="curve" smooth="yes"/>
      <point x="288.06" y="-220.0"/>
      <point x="316.98" y="-171.78"/>
      <point x="316.98" y="-111.44" type="curve" smooth="yes"/>
      <point x="316.98" y="-75.07999999999998"/>
      <point x="299.58" y="-23.46"/>
      <point x="283.4" y="5.06" type="curve"/>
      <point x="187.49999999999997" y="4.759999999999999" type="line"/>
      <point x="204.43999999999997" y="-22.02"/>
      <point x="218.08" y="-56.760000000000005"/>
      <point x="218.08" y="-78.96000000000001" type="curve" smooth="yes"/>
      <point x="218.08" y="-107.58000000000001"/>
      <point x="200.26" y="-123.16000000000003"/>
      <point x="174.40000000000003" y="-123.16000000000003" type="curve" smooth="yes"/>
      <point x="162.94" y="-123.16000000000003"/>
      <point x="150.6" y="-121.02"/>
    </contour>
    <component base="T"/>
  </outline>
</glyph>
<glyph name="Tbar" format="2">
  <advance width="479.84"/>
  <unicode hex="0166"/>
  <outline>
    <contour>
      <point x="66.22" y="272.0" type="line"/>
      <point x="165.8" y="272.0" type="line"/>
      <point x="165.8" y="0.0" type="line"/>
      <point x="314.6" y="0.0" type="line"/>
      <point x="314.6" y="272.0" type="line"/>
      <point x="412.5" y="272.0" type="line"/>
      <point x="412.5" y="399.23999999999995" type="line"/>
      <point x="314.6" y="399.23999999999995" type="line"/>
      <point x="314.6" y="558.84" type="line"/>
      <point x="467.78" y="558.84" type="line"/>
      <point x="467.78" y="700.0" type="line"/>
      <point x="12.059999999999999" y="700.0" type="line"/>
      <point x="12.059999999999999" y="558.84" type="line"/>
      <point x="165.8" y="558.84" type="line"/>
      <point x="165.8" y="399.23999999999995" type="line"/>
      <point x="66.22" y="399.23999999999995" type="line"/>
    </contour>
  </outline>
</glyph>
